G04 #@! TF.FileFunction,Copper,L1,Top,Signal*
%FSLAX46Y46*%
G04 Gerber Fmt 4.6, Leading zero omitted, Abs format (unit mm)*
G04 Created by KiCad (PCBNEW 4.0.2-stable) date 9/03/2016 9:38:59 PM*
%MOMM*%
G01*
G04 APERTURE LIST*
%ADD10C,0.100000*%
%ADD11C,0.300000*%
%ADD12R,1.300000X1.300000*%
%ADD13C,1.300000*%
%ADD14O,2.300000X1.600000*%
%ADD15R,2.540000X2.540000*%
%ADD16C,2.540000*%
%ADD17R,1.727200X1.727200*%
%ADD18O,1.727200X1.727200*%
%ADD19R,2.032000X2.032000*%
%ADD20O,2.032000X2.032000*%
%ADD21R,2.032000X1.727200*%
%ADD22O,2.032000X1.727200*%
%ADD23C,1.998980*%
%ADD24C,1.270000*%
%ADD25C,0.508000*%
%ADD26C,0.254000*%
G04 APERTURE END LIST*
D10*
D11*
X139819286Y-139513571D02*
X140676429Y-139513571D01*
X140247858Y-141013571D02*
X140247858Y-139513571D01*
X141390715Y-141013571D02*
X141247857Y-140942143D01*
X141176429Y-140870714D01*
X141105000Y-140727857D01*
X141105000Y-140299286D01*
X141176429Y-140156429D01*
X141247857Y-140085000D01*
X141390715Y-140013571D01*
X141605000Y-140013571D01*
X141747857Y-140085000D01*
X141819286Y-140156429D01*
X141890715Y-140299286D01*
X141890715Y-140727857D01*
X141819286Y-140870714D01*
X141747857Y-140942143D01*
X141605000Y-141013571D01*
X141390715Y-141013571D01*
X142533572Y-140013571D02*
X142533572Y-141513571D01*
X142533572Y-140085000D02*
X142676429Y-140013571D01*
X142962143Y-140013571D01*
X143105000Y-140085000D01*
X143176429Y-140156429D01*
X143247858Y-140299286D01*
X143247858Y-140727857D01*
X143176429Y-140870714D01*
X143105000Y-140942143D01*
X142962143Y-141013571D01*
X142676429Y-141013571D01*
X142533572Y-140942143D01*
D12*
X140970000Y-88900000D03*
D13*
X140970000Y-90900000D03*
D12*
X146050000Y-121920000D03*
D13*
X146050000Y-126920000D03*
D12*
X173990000Y-92710000D03*
D13*
X168990000Y-92710000D03*
D14*
X149860000Y-106680000D03*
X149860000Y-109220000D03*
X149860000Y-111760000D03*
X149860000Y-114300000D03*
X149860000Y-116840000D03*
X149860000Y-119380000D03*
X149860000Y-121920000D03*
X149860000Y-124460000D03*
X149860000Y-127000000D03*
X149860000Y-129540000D03*
X149860000Y-132080000D03*
X149860000Y-134620000D03*
X149860000Y-137160000D03*
X149860000Y-139700000D03*
X157480000Y-139700000D03*
X157480000Y-137160000D03*
X157480000Y-134620000D03*
X157480000Y-132080000D03*
X157480000Y-129540000D03*
X157480000Y-127000000D03*
X157480000Y-124460000D03*
X157480000Y-121920000D03*
X157480000Y-119380000D03*
X157480000Y-116840000D03*
X157480000Y-114300000D03*
X157480000Y-111760000D03*
X157480000Y-109220000D03*
X157480000Y-106680000D03*
D15*
X162560000Y-83820000D03*
D16*
X167640000Y-83820000D03*
D17*
X152400000Y-83820000D03*
D18*
X154940000Y-83820000D03*
X152400000Y-86360000D03*
X154940000Y-86360000D03*
X152400000Y-88900000D03*
X154940000Y-88900000D03*
X152400000Y-91440000D03*
X154940000Y-91440000D03*
X152400000Y-93980000D03*
X154940000Y-93980000D03*
X152400000Y-96520000D03*
X154940000Y-96520000D03*
D19*
X170180000Y-96520000D03*
D20*
X172720000Y-96520000D03*
D21*
X177800000Y-104140000D03*
D22*
X177800000Y-106680000D03*
X177800000Y-109220000D03*
X177800000Y-111760000D03*
X177800000Y-114300000D03*
X177800000Y-116840000D03*
X177800000Y-119380000D03*
X177800000Y-121920000D03*
X177800000Y-124460000D03*
X177800000Y-127000000D03*
X177800000Y-129540000D03*
X177800000Y-132080000D03*
D21*
X175260000Y-104140000D03*
D22*
X175260000Y-106680000D03*
X175260000Y-109220000D03*
X175260000Y-111760000D03*
X175260000Y-114300000D03*
X175260000Y-116840000D03*
X175260000Y-119380000D03*
X175260000Y-121920000D03*
X175260000Y-124460000D03*
X175260000Y-127000000D03*
X175260000Y-129540000D03*
X175260000Y-132080000D03*
D21*
X139700000Y-114300000D03*
D22*
X139700000Y-116840000D03*
X139700000Y-119380000D03*
X139700000Y-121920000D03*
X139700000Y-124460000D03*
X139700000Y-127000000D03*
X139700000Y-129540000D03*
X139700000Y-132080000D03*
D21*
X137160000Y-114300000D03*
D22*
X137160000Y-116840000D03*
X137160000Y-119380000D03*
X137160000Y-121920000D03*
X137160000Y-124460000D03*
X137160000Y-127000000D03*
X137160000Y-129540000D03*
X137160000Y-132080000D03*
D21*
X142240000Y-114300000D03*
D22*
X142240000Y-116840000D03*
X142240000Y-119380000D03*
X142240000Y-121920000D03*
X142240000Y-124460000D03*
X142240000Y-127000000D03*
X142240000Y-129540000D03*
X142240000Y-132080000D03*
D21*
X167640000Y-104140000D03*
D22*
X167640000Y-106680000D03*
X167640000Y-109220000D03*
X167640000Y-111760000D03*
X167640000Y-114300000D03*
X167640000Y-116840000D03*
X167640000Y-119380000D03*
X167640000Y-121920000D03*
X167640000Y-124460000D03*
X167640000Y-127000000D03*
X167640000Y-129540000D03*
X167640000Y-132080000D03*
D21*
X170180000Y-104140000D03*
D22*
X170180000Y-106680000D03*
X170180000Y-109220000D03*
X170180000Y-111760000D03*
X170180000Y-114300000D03*
X170180000Y-116840000D03*
X170180000Y-119380000D03*
X170180000Y-121920000D03*
X170180000Y-124460000D03*
X170180000Y-127000000D03*
X170180000Y-129540000D03*
X170180000Y-132080000D03*
D21*
X172720000Y-104140000D03*
D22*
X172720000Y-106680000D03*
X172720000Y-109220000D03*
X172720000Y-111760000D03*
X172720000Y-114300000D03*
X172720000Y-116840000D03*
X172720000Y-119380000D03*
X172720000Y-121920000D03*
X172720000Y-124460000D03*
X172720000Y-127000000D03*
X172720000Y-129540000D03*
X172720000Y-132080000D03*
D21*
X134620000Y-104140000D03*
D22*
X134620000Y-106680000D03*
X134620000Y-109220000D03*
X134620000Y-111760000D03*
X134620000Y-114300000D03*
X134620000Y-116840000D03*
X134620000Y-119380000D03*
X134620000Y-121920000D03*
X134620000Y-124460000D03*
X134620000Y-127000000D03*
X134620000Y-129540000D03*
X134620000Y-132080000D03*
D21*
X177800000Y-99060000D03*
D22*
X177800000Y-96520000D03*
X177800000Y-93980000D03*
X177800000Y-91440000D03*
D21*
X132080000Y-104140000D03*
D22*
X132080000Y-106680000D03*
X132080000Y-109220000D03*
X132080000Y-111760000D03*
X132080000Y-114300000D03*
X132080000Y-116840000D03*
X132080000Y-119380000D03*
X132080000Y-121920000D03*
X132080000Y-124460000D03*
X132080000Y-127000000D03*
X132080000Y-129540000D03*
X132080000Y-132080000D03*
D19*
X162560000Y-96520000D03*
D20*
X162560000Y-93980000D03*
D23*
X163830000Y-89535000D03*
X173990000Y-89535000D03*
D24*
X157480000Y-127000000D02*
X161290000Y-127000000D01*
X166370000Y-99060000D02*
X177800000Y-99060000D01*
X164465000Y-100965000D02*
X166370000Y-99060000D01*
X164465000Y-123825000D02*
X164465000Y-100965000D01*
X161290000Y-127000000D02*
X164465000Y-123825000D01*
D25*
X149860000Y-106680000D02*
X149860000Y-94615000D01*
X150495000Y-93980000D02*
X152400000Y-93980000D01*
X149860000Y-94615000D02*
X150495000Y-93980000D01*
D24*
X157480000Y-124460000D02*
X160655000Y-124460000D01*
X166370000Y-96520000D02*
X170180000Y-96520000D01*
X162560000Y-100330000D02*
X166370000Y-96520000D01*
X162560000Y-122555000D02*
X162560000Y-100330000D01*
X160655000Y-124460000D02*
X162560000Y-122555000D01*
D26*
G36*
X179578000Y-142748000D02*
X130302000Y-142748000D01*
X130302000Y-138902325D01*
X132234587Y-138902325D01*
X132596916Y-139779229D01*
X133267242Y-140450726D01*
X134143513Y-140814585D01*
X135092325Y-140815413D01*
X135969229Y-140453084D01*
X136640726Y-139782758D01*
X137004585Y-138906487D01*
X137005201Y-138200000D01*
X138891429Y-138200000D01*
X138891429Y-142170000D01*
X144318572Y-142170000D01*
X144318572Y-138200000D01*
X138891429Y-138200000D01*
X137005201Y-138200000D01*
X137005413Y-137957675D01*
X136643084Y-137080771D01*
X135972758Y-136409274D01*
X135096487Y-136045415D01*
X134147675Y-136044587D01*
X133270771Y-136406916D01*
X132599274Y-137077242D01*
X132235415Y-137953513D01*
X132234587Y-138902325D01*
X130302000Y-138902325D01*
X130302000Y-106680000D01*
X130396655Y-106680000D01*
X130510729Y-107253489D01*
X130835585Y-107739670D01*
X131150366Y-107950000D01*
X130835585Y-108160330D01*
X130510729Y-108646511D01*
X130396655Y-109220000D01*
X130510729Y-109793489D01*
X130835585Y-110279670D01*
X131150366Y-110490000D01*
X130835585Y-110700330D01*
X130510729Y-111186511D01*
X130396655Y-111760000D01*
X130510729Y-112333489D01*
X130835585Y-112819670D01*
X131150366Y-113030000D01*
X130835585Y-113240330D01*
X130510729Y-113726511D01*
X130396655Y-114300000D01*
X130510729Y-114873489D01*
X130835585Y-115359670D01*
X131150366Y-115570000D01*
X130835585Y-115780330D01*
X130510729Y-116266511D01*
X130396655Y-116840000D01*
X130510729Y-117413489D01*
X130835585Y-117899670D01*
X131150366Y-118110000D01*
X130835585Y-118320330D01*
X130510729Y-118806511D01*
X130396655Y-119380000D01*
X130510729Y-119953489D01*
X130835585Y-120439670D01*
X131150366Y-120650000D01*
X130835585Y-120860330D01*
X130510729Y-121346511D01*
X130396655Y-121920000D01*
X130510729Y-122493489D01*
X130835585Y-122979670D01*
X131150366Y-123190000D01*
X130835585Y-123400330D01*
X130510729Y-123886511D01*
X130396655Y-124460000D01*
X130510729Y-125033489D01*
X130835585Y-125519670D01*
X131150366Y-125730000D01*
X130835585Y-125940330D01*
X130510729Y-126426511D01*
X130396655Y-127000000D01*
X130510729Y-127573489D01*
X130835585Y-128059670D01*
X131150366Y-128270000D01*
X130835585Y-128480330D01*
X130510729Y-128966511D01*
X130396655Y-129540000D01*
X130510729Y-130113489D01*
X130835585Y-130599670D01*
X131150366Y-130810000D01*
X130835585Y-131020330D01*
X130510729Y-131506511D01*
X130396655Y-132080000D01*
X130510729Y-132653489D01*
X130835585Y-133139670D01*
X131321766Y-133464526D01*
X131895255Y-133578600D01*
X132264745Y-133578600D01*
X132838234Y-133464526D01*
X133324415Y-133139670D01*
X133369754Y-133071816D01*
X133705680Y-133371954D01*
X134258087Y-133565184D01*
X134493000Y-133420924D01*
X134493000Y-132207000D01*
X134473000Y-132207000D01*
X134473000Y-131953000D01*
X134493000Y-131953000D01*
X134493000Y-129667000D01*
X134473000Y-129667000D01*
X134473000Y-129413000D01*
X134493000Y-129413000D01*
X134493000Y-127127000D01*
X134473000Y-127127000D01*
X134473000Y-126873000D01*
X134493000Y-126873000D01*
X134493000Y-124587000D01*
X134473000Y-124587000D01*
X134473000Y-124333000D01*
X134493000Y-124333000D01*
X134493000Y-122047000D01*
X134473000Y-122047000D01*
X134473000Y-121793000D01*
X134493000Y-121793000D01*
X134493000Y-119507000D01*
X134473000Y-119507000D01*
X134473000Y-119253000D01*
X134493000Y-119253000D01*
X134493000Y-116967000D01*
X134473000Y-116967000D01*
X134473000Y-116713000D01*
X134493000Y-116713000D01*
X134493000Y-114427000D01*
X134473000Y-114427000D01*
X134473000Y-114173000D01*
X134493000Y-114173000D01*
X134493000Y-111887000D01*
X134747000Y-111887000D01*
X134747000Y-114173000D01*
X134767000Y-114173000D01*
X134767000Y-114427000D01*
X134747000Y-114427000D01*
X134747000Y-116713000D01*
X134767000Y-116713000D01*
X134767000Y-116967000D01*
X134747000Y-116967000D01*
X134747000Y-119253000D01*
X134767000Y-119253000D01*
X134767000Y-119507000D01*
X134747000Y-119507000D01*
X134747000Y-121793000D01*
X134767000Y-121793000D01*
X134767000Y-122047000D01*
X134747000Y-122047000D01*
X134747000Y-124333000D01*
X134767000Y-124333000D01*
X134767000Y-124587000D01*
X134747000Y-124587000D01*
X134747000Y-126873000D01*
X134767000Y-126873000D01*
X134767000Y-127127000D01*
X134747000Y-127127000D01*
X134747000Y-129413000D01*
X134767000Y-129413000D01*
X134767000Y-129667000D01*
X134747000Y-129667000D01*
X134747000Y-131953000D01*
X134767000Y-131953000D01*
X134767000Y-132207000D01*
X134747000Y-132207000D01*
X134747000Y-133420924D01*
X134981913Y-133565184D01*
X135534320Y-133371954D01*
X135870246Y-133071816D01*
X135915585Y-133139670D01*
X136401766Y-133464526D01*
X136975255Y-133578600D01*
X137344745Y-133578600D01*
X137918234Y-133464526D01*
X138404415Y-133139670D01*
X138430000Y-133101379D01*
X138455585Y-133139670D01*
X138941766Y-133464526D01*
X139515255Y-133578600D01*
X139884745Y-133578600D01*
X140458234Y-133464526D01*
X140944415Y-133139670D01*
X140970000Y-133101379D01*
X140995585Y-133139670D01*
X141481766Y-133464526D01*
X142055255Y-133578600D01*
X142424745Y-133578600D01*
X142998234Y-133464526D01*
X143484415Y-133139670D01*
X143809271Y-132653489D01*
X143923345Y-132080000D01*
X143809271Y-131506511D01*
X143484415Y-131020330D01*
X143169634Y-130810000D01*
X143484415Y-130599670D01*
X143809271Y-130113489D01*
X143923345Y-129540000D01*
X143809271Y-128966511D01*
X143484415Y-128480330D01*
X143169634Y-128270000D01*
X143484415Y-128059670D01*
X143809271Y-127573489D01*
X143888638Y-127174481D01*
X144764777Y-127174481D01*
X144959995Y-127646943D01*
X145321155Y-128008735D01*
X145793276Y-128204777D01*
X146304481Y-128205223D01*
X146776943Y-128010005D01*
X147138735Y-127648845D01*
X147334777Y-127176724D01*
X147335223Y-126665519D01*
X147140005Y-126193057D01*
X146778845Y-125831265D01*
X146306724Y-125635223D01*
X145795519Y-125634777D01*
X145323057Y-125829995D01*
X144961265Y-126191155D01*
X144765223Y-126663276D01*
X144764777Y-127174481D01*
X143888638Y-127174481D01*
X143923345Y-127000000D01*
X143809271Y-126426511D01*
X143484415Y-125940330D01*
X143169634Y-125730000D01*
X143484415Y-125519670D01*
X143809271Y-125033489D01*
X143923345Y-124460000D01*
X148040030Y-124460000D01*
X148149263Y-125009151D01*
X148460332Y-125474698D01*
X148842418Y-125730000D01*
X148460332Y-125985302D01*
X148149263Y-126450849D01*
X148040030Y-127000000D01*
X148149263Y-127549151D01*
X148460332Y-128014698D01*
X148842418Y-128270000D01*
X148460332Y-128525302D01*
X148149263Y-128990849D01*
X148040030Y-129540000D01*
X148149263Y-130089151D01*
X148460332Y-130554698D01*
X148842418Y-130810000D01*
X148460332Y-131065302D01*
X148149263Y-131530849D01*
X148040030Y-132080000D01*
X148149263Y-132629151D01*
X148460332Y-133094698D01*
X148842418Y-133350000D01*
X148460332Y-133605302D01*
X148149263Y-134070849D01*
X148040030Y-134620000D01*
X148149263Y-135169151D01*
X148460332Y-135634698D01*
X148842418Y-135890000D01*
X148460332Y-136145302D01*
X148149263Y-136610849D01*
X148040030Y-137160000D01*
X148149263Y-137709151D01*
X148460332Y-138174698D01*
X148842418Y-138430000D01*
X148460332Y-138685302D01*
X148149263Y-139150849D01*
X148040030Y-139700000D01*
X148149263Y-140249151D01*
X148460332Y-140714698D01*
X148925879Y-141025767D01*
X149475030Y-141135000D01*
X150244970Y-141135000D01*
X150794121Y-141025767D01*
X151259668Y-140714698D01*
X151570737Y-140249151D01*
X151679970Y-139700000D01*
X151570737Y-139150849D01*
X151259668Y-138685302D01*
X150877582Y-138430000D01*
X151259668Y-138174698D01*
X151570737Y-137709151D01*
X151679970Y-137160000D01*
X151570737Y-136610849D01*
X151259668Y-136145302D01*
X150877582Y-135890000D01*
X151259668Y-135634698D01*
X151570737Y-135169151D01*
X151679970Y-134620000D01*
X151570737Y-134070849D01*
X151259668Y-133605302D01*
X150877582Y-133350000D01*
X151259668Y-133094698D01*
X151570737Y-132629151D01*
X151679970Y-132080000D01*
X151570737Y-131530849D01*
X151259668Y-131065302D01*
X150877582Y-130810000D01*
X151259668Y-130554698D01*
X151570737Y-130089151D01*
X151679970Y-129540000D01*
X151570737Y-128990849D01*
X151259668Y-128525302D01*
X150877582Y-128270000D01*
X151259668Y-128014698D01*
X151570737Y-127549151D01*
X151679970Y-127000000D01*
X151570737Y-126450849D01*
X151259668Y-125985302D01*
X150877582Y-125730000D01*
X151259668Y-125474698D01*
X151570737Y-125009151D01*
X151679970Y-124460000D01*
X151570737Y-123910849D01*
X151259668Y-123445302D01*
X150881849Y-123192851D01*
X151314500Y-122844896D01*
X151584367Y-122351819D01*
X151601904Y-122269039D01*
X151479915Y-122047000D01*
X149987000Y-122047000D01*
X149987000Y-122067000D01*
X149733000Y-122067000D01*
X149733000Y-122047000D01*
X148240085Y-122047000D01*
X148118096Y-122269039D01*
X148135633Y-122351819D01*
X148405500Y-122844896D01*
X148838151Y-123192851D01*
X148460332Y-123445302D01*
X148149263Y-123910849D01*
X148040030Y-124460000D01*
X143923345Y-124460000D01*
X143809271Y-123886511D01*
X143484415Y-123400330D01*
X143169634Y-123190000D01*
X143484415Y-122979670D01*
X143809271Y-122493489D01*
X143866505Y-122205750D01*
X144765000Y-122205750D01*
X144765000Y-122696309D01*
X144861673Y-122929698D01*
X145040301Y-123108327D01*
X145273690Y-123205000D01*
X145764250Y-123205000D01*
X145923000Y-123046250D01*
X145923000Y-122047000D01*
X146177000Y-122047000D01*
X146177000Y-123046250D01*
X146335750Y-123205000D01*
X146826310Y-123205000D01*
X147059699Y-123108327D01*
X147238327Y-122929698D01*
X147335000Y-122696309D01*
X147335000Y-122205750D01*
X147176250Y-122047000D01*
X146177000Y-122047000D01*
X145923000Y-122047000D01*
X144923750Y-122047000D01*
X144765000Y-122205750D01*
X143866505Y-122205750D01*
X143923345Y-121920000D01*
X143809271Y-121346511D01*
X143673751Y-121143691D01*
X144765000Y-121143691D01*
X144765000Y-121634250D01*
X144923750Y-121793000D01*
X145923000Y-121793000D01*
X145923000Y-120793750D01*
X146177000Y-120793750D01*
X146177000Y-121793000D01*
X147176250Y-121793000D01*
X147335000Y-121634250D01*
X147335000Y-121143691D01*
X147238327Y-120910302D01*
X147059699Y-120731673D01*
X146826310Y-120635000D01*
X146335750Y-120635000D01*
X146177000Y-120793750D01*
X145923000Y-120793750D01*
X145764250Y-120635000D01*
X145273690Y-120635000D01*
X145040301Y-120731673D01*
X144861673Y-120910302D01*
X144765000Y-121143691D01*
X143673751Y-121143691D01*
X143484415Y-120860330D01*
X143169634Y-120650000D01*
X143484415Y-120439670D01*
X143809271Y-119953489D01*
X143923345Y-119380000D01*
X143809271Y-118806511D01*
X143484415Y-118320330D01*
X143169634Y-118110000D01*
X143484415Y-117899670D01*
X143809271Y-117413489D01*
X143923345Y-116840000D01*
X143809271Y-116266511D01*
X143484415Y-115780330D01*
X143470087Y-115770757D01*
X143491317Y-115766762D01*
X143707441Y-115627690D01*
X143852431Y-115415490D01*
X143903440Y-115163600D01*
X143903440Y-113436400D01*
X143859162Y-113201083D01*
X143720090Y-112984959D01*
X143507890Y-112839969D01*
X143256000Y-112788960D01*
X141224000Y-112788960D01*
X140988683Y-112833238D01*
X140972901Y-112843393D01*
X140967890Y-112839969D01*
X140716000Y-112788960D01*
X138684000Y-112788960D01*
X138448683Y-112833238D01*
X138432901Y-112843393D01*
X138427890Y-112839969D01*
X138176000Y-112788960D01*
X136144000Y-112788960D01*
X135908683Y-112833238D01*
X135692559Y-112972310D01*
X135617414Y-113082288D01*
X135558892Y-113030000D01*
X135970732Y-112662036D01*
X136224709Y-112134791D01*
X136227358Y-112119026D01*
X136106217Y-111887000D01*
X134747000Y-111887000D01*
X134493000Y-111887000D01*
X134473000Y-111887000D01*
X134473000Y-111633000D01*
X134493000Y-111633000D01*
X134493000Y-109347000D01*
X134747000Y-109347000D01*
X134747000Y-111633000D01*
X136106217Y-111633000D01*
X136227358Y-111400974D01*
X136224709Y-111385209D01*
X135970732Y-110857964D01*
X135558892Y-110490000D01*
X135970732Y-110122036D01*
X136224709Y-109594791D01*
X136227358Y-109579026D01*
X136106217Y-109347000D01*
X134747000Y-109347000D01*
X134493000Y-109347000D01*
X134473000Y-109347000D01*
X134473000Y-109093000D01*
X134493000Y-109093000D01*
X134493000Y-106807000D01*
X134747000Y-106807000D01*
X134747000Y-109093000D01*
X136106217Y-109093000D01*
X136227358Y-108860974D01*
X136224709Y-108845209D01*
X135970732Y-108317964D01*
X135558892Y-107950000D01*
X135970732Y-107582036D01*
X136224709Y-107054791D01*
X136227358Y-107039026D01*
X136106217Y-106807000D01*
X134747000Y-106807000D01*
X134493000Y-106807000D01*
X134473000Y-106807000D01*
X134473000Y-106680000D01*
X148040030Y-106680000D01*
X148149263Y-107229151D01*
X148460332Y-107694698D01*
X148842418Y-107950000D01*
X148460332Y-108205302D01*
X148149263Y-108670849D01*
X148040030Y-109220000D01*
X148149263Y-109769151D01*
X148460332Y-110234698D01*
X148842418Y-110490000D01*
X148460332Y-110745302D01*
X148149263Y-111210849D01*
X148040030Y-111760000D01*
X148149263Y-112309151D01*
X148460332Y-112774698D01*
X148842418Y-113030000D01*
X148460332Y-113285302D01*
X148149263Y-113750849D01*
X148040030Y-114300000D01*
X148149263Y-114849151D01*
X148460332Y-115314698D01*
X148842418Y-115570000D01*
X148460332Y-115825302D01*
X148149263Y-116290849D01*
X148040030Y-116840000D01*
X148149263Y-117389151D01*
X148460332Y-117854698D01*
X148842418Y-118110000D01*
X148460332Y-118365302D01*
X148149263Y-118830849D01*
X148040030Y-119380000D01*
X148149263Y-119929151D01*
X148460332Y-120394698D01*
X148838151Y-120647149D01*
X148405500Y-120995104D01*
X148135633Y-121488181D01*
X148118096Y-121570961D01*
X148240085Y-121793000D01*
X149733000Y-121793000D01*
X149733000Y-121773000D01*
X149987000Y-121773000D01*
X149987000Y-121793000D01*
X151479915Y-121793000D01*
X151601904Y-121570961D01*
X151584367Y-121488181D01*
X151314500Y-120995104D01*
X150881849Y-120647149D01*
X151259668Y-120394698D01*
X151570737Y-119929151D01*
X151679970Y-119380000D01*
X151570737Y-118830849D01*
X151259668Y-118365302D01*
X150877582Y-118110000D01*
X151259668Y-117854698D01*
X151570737Y-117389151D01*
X151679970Y-116840000D01*
X151570737Y-116290849D01*
X151259668Y-115825302D01*
X150877582Y-115570000D01*
X151259668Y-115314698D01*
X151570737Y-114849151D01*
X151679970Y-114300000D01*
X151570737Y-113750849D01*
X151259668Y-113285302D01*
X150877582Y-113030000D01*
X151259668Y-112774698D01*
X151570737Y-112309151D01*
X151679970Y-111760000D01*
X151570737Y-111210849D01*
X151259668Y-110745302D01*
X150877582Y-110490000D01*
X151259668Y-110234698D01*
X151570737Y-109769151D01*
X151679970Y-109220000D01*
X151570737Y-108670849D01*
X151259668Y-108205302D01*
X150877582Y-107950000D01*
X151259668Y-107694698D01*
X151570737Y-107229151D01*
X151679970Y-106680000D01*
X155660030Y-106680000D01*
X155769263Y-107229151D01*
X156080332Y-107694698D01*
X156462418Y-107950000D01*
X156080332Y-108205302D01*
X155769263Y-108670849D01*
X155660030Y-109220000D01*
X155769263Y-109769151D01*
X156080332Y-110234698D01*
X156462418Y-110490000D01*
X156080332Y-110745302D01*
X155769263Y-111210849D01*
X155660030Y-111760000D01*
X155769263Y-112309151D01*
X156080332Y-112774698D01*
X156462418Y-113030000D01*
X156080332Y-113285302D01*
X155769263Y-113750849D01*
X155660030Y-114300000D01*
X155769263Y-114849151D01*
X156080332Y-115314698D01*
X156462418Y-115570000D01*
X156080332Y-115825302D01*
X155769263Y-116290849D01*
X155660030Y-116840000D01*
X155769263Y-117389151D01*
X156080332Y-117854698D01*
X156462418Y-118110000D01*
X156080332Y-118365302D01*
X155769263Y-118830849D01*
X155660030Y-119380000D01*
X155769263Y-119929151D01*
X156080332Y-120394698D01*
X156462418Y-120650000D01*
X156080332Y-120905302D01*
X155769263Y-121370849D01*
X155660030Y-121920000D01*
X155769263Y-122469151D01*
X156080332Y-122934698D01*
X156462418Y-123190000D01*
X156080332Y-123445302D01*
X155769263Y-123910849D01*
X155660030Y-124460000D01*
X155769263Y-125009151D01*
X156080332Y-125474698D01*
X156462418Y-125730000D01*
X156080332Y-125985302D01*
X155769263Y-126450849D01*
X155660030Y-127000000D01*
X155769263Y-127549151D01*
X156080332Y-128014698D01*
X156462418Y-128270000D01*
X156080332Y-128525302D01*
X155769263Y-128990849D01*
X155660030Y-129540000D01*
X155769263Y-130089151D01*
X156080332Y-130554698D01*
X156462418Y-130810000D01*
X156080332Y-131065302D01*
X155769263Y-131530849D01*
X155660030Y-132080000D01*
X155769263Y-132629151D01*
X156080332Y-133094698D01*
X156462418Y-133350000D01*
X156080332Y-133605302D01*
X155769263Y-134070849D01*
X155660030Y-134620000D01*
X155769263Y-135169151D01*
X156080332Y-135634698D01*
X156462418Y-135890000D01*
X156080332Y-136145302D01*
X155769263Y-136610849D01*
X155660030Y-137160000D01*
X155769263Y-137709151D01*
X156080332Y-138174698D01*
X156462418Y-138430000D01*
X156080332Y-138685302D01*
X155769263Y-139150849D01*
X155660030Y-139700000D01*
X155769263Y-140249151D01*
X156080332Y-140714698D01*
X156545879Y-141025767D01*
X157095030Y-141135000D01*
X157864970Y-141135000D01*
X158414121Y-141025767D01*
X158879668Y-140714698D01*
X159190737Y-140249151D01*
X159299970Y-139700000D01*
X159190737Y-139150849D01*
X159024679Y-138902325D01*
X172874587Y-138902325D01*
X173236916Y-139779229D01*
X173907242Y-140450726D01*
X174783513Y-140814585D01*
X175732325Y-140815413D01*
X176609229Y-140453084D01*
X177280726Y-139782758D01*
X177644585Y-138906487D01*
X177645413Y-137957675D01*
X177283084Y-137080771D01*
X176612758Y-136409274D01*
X175736487Y-136045415D01*
X174787675Y-136044587D01*
X173910771Y-136406916D01*
X173239274Y-137077242D01*
X172875415Y-137953513D01*
X172874587Y-138902325D01*
X159024679Y-138902325D01*
X158879668Y-138685302D01*
X158497582Y-138430000D01*
X158879668Y-138174698D01*
X159190737Y-137709151D01*
X159299970Y-137160000D01*
X159190737Y-136610849D01*
X158879668Y-136145302D01*
X158497582Y-135890000D01*
X158879668Y-135634698D01*
X159190737Y-135169151D01*
X159299970Y-134620000D01*
X159190737Y-134070849D01*
X158879668Y-133605302D01*
X158497582Y-133350000D01*
X158879668Y-133094698D01*
X159190737Y-132629151D01*
X159299970Y-132080000D01*
X159190737Y-131530849D01*
X158879668Y-131065302D01*
X158497582Y-130810000D01*
X158879668Y-130554698D01*
X159190737Y-130089151D01*
X159299970Y-129540000D01*
X159190737Y-128990849D01*
X158879668Y-128525302D01*
X158497582Y-128270000D01*
X161289995Y-128270000D01*
X161290000Y-128270001D01*
X161776008Y-128173327D01*
X162188026Y-127898026D01*
X165363026Y-124723026D01*
X165638327Y-124311008D01*
X165735001Y-123825000D01*
X165735000Y-123824995D01*
X165735000Y-106680000D01*
X165956655Y-106680000D01*
X166070729Y-107253489D01*
X166395585Y-107739670D01*
X166710366Y-107950000D01*
X166395585Y-108160330D01*
X166070729Y-108646511D01*
X165956655Y-109220000D01*
X166070729Y-109793489D01*
X166395585Y-110279670D01*
X166710366Y-110490000D01*
X166395585Y-110700330D01*
X166070729Y-111186511D01*
X165956655Y-111760000D01*
X166070729Y-112333489D01*
X166395585Y-112819670D01*
X166710366Y-113030000D01*
X166395585Y-113240330D01*
X166070729Y-113726511D01*
X165956655Y-114300000D01*
X166070729Y-114873489D01*
X166395585Y-115359670D01*
X166710366Y-115570000D01*
X166395585Y-115780330D01*
X166070729Y-116266511D01*
X165956655Y-116840000D01*
X166070729Y-117413489D01*
X166395585Y-117899670D01*
X166710366Y-118110000D01*
X166395585Y-118320330D01*
X166070729Y-118806511D01*
X165956655Y-119380000D01*
X166070729Y-119953489D01*
X166395585Y-120439670D01*
X166710366Y-120650000D01*
X166395585Y-120860330D01*
X166070729Y-121346511D01*
X165956655Y-121920000D01*
X166070729Y-122493489D01*
X166395585Y-122979670D01*
X166710366Y-123190000D01*
X166395585Y-123400330D01*
X166070729Y-123886511D01*
X165956655Y-124460000D01*
X166070729Y-125033489D01*
X166395585Y-125519670D01*
X166710366Y-125730000D01*
X166395585Y-125940330D01*
X166070729Y-126426511D01*
X165956655Y-127000000D01*
X166070729Y-127573489D01*
X166395585Y-128059670D01*
X166710366Y-128270000D01*
X166395585Y-128480330D01*
X166070729Y-128966511D01*
X165956655Y-129540000D01*
X166070729Y-130113489D01*
X166395585Y-130599670D01*
X166710366Y-130810000D01*
X166395585Y-131020330D01*
X166070729Y-131506511D01*
X165956655Y-132080000D01*
X166070729Y-132653489D01*
X166395585Y-133139670D01*
X166881766Y-133464526D01*
X167455255Y-133578600D01*
X167824745Y-133578600D01*
X168398234Y-133464526D01*
X168884415Y-133139670D01*
X168910000Y-133101379D01*
X168935585Y-133139670D01*
X169421766Y-133464526D01*
X169995255Y-133578600D01*
X170364745Y-133578600D01*
X170938234Y-133464526D01*
X171424415Y-133139670D01*
X171450000Y-133101379D01*
X171475585Y-133139670D01*
X171961766Y-133464526D01*
X172535255Y-133578600D01*
X172904745Y-133578600D01*
X173478234Y-133464526D01*
X173964415Y-133139670D01*
X174009754Y-133071816D01*
X174345680Y-133371954D01*
X174898087Y-133565184D01*
X175133000Y-133420924D01*
X175133000Y-132207000D01*
X175113000Y-132207000D01*
X175113000Y-131953000D01*
X175133000Y-131953000D01*
X175133000Y-129667000D01*
X175113000Y-129667000D01*
X175113000Y-129413000D01*
X175133000Y-129413000D01*
X175133000Y-127127000D01*
X175113000Y-127127000D01*
X175113000Y-126873000D01*
X175133000Y-126873000D01*
X175133000Y-124587000D01*
X175113000Y-124587000D01*
X175113000Y-124333000D01*
X175133000Y-124333000D01*
X175133000Y-122047000D01*
X175113000Y-122047000D01*
X175113000Y-121793000D01*
X175133000Y-121793000D01*
X175133000Y-119507000D01*
X175113000Y-119507000D01*
X175113000Y-119253000D01*
X175133000Y-119253000D01*
X175133000Y-116967000D01*
X175113000Y-116967000D01*
X175113000Y-116713000D01*
X175133000Y-116713000D01*
X175133000Y-114427000D01*
X175113000Y-114427000D01*
X175113000Y-114173000D01*
X175133000Y-114173000D01*
X175133000Y-111887000D01*
X175113000Y-111887000D01*
X175113000Y-111633000D01*
X175133000Y-111633000D01*
X175133000Y-109347000D01*
X175113000Y-109347000D01*
X175113000Y-109093000D01*
X175133000Y-109093000D01*
X175133000Y-106807000D01*
X175113000Y-106807000D01*
X175113000Y-106553000D01*
X175133000Y-106553000D01*
X175133000Y-104267000D01*
X175113000Y-104267000D01*
X175113000Y-104013000D01*
X175133000Y-104013000D01*
X175133000Y-102800150D01*
X175387000Y-102800150D01*
X175387000Y-104013000D01*
X175407000Y-104013000D01*
X175407000Y-104267000D01*
X175387000Y-104267000D01*
X175387000Y-106553000D01*
X175407000Y-106553000D01*
X175407000Y-106807000D01*
X175387000Y-106807000D01*
X175387000Y-109093000D01*
X175407000Y-109093000D01*
X175407000Y-109347000D01*
X175387000Y-109347000D01*
X175387000Y-111633000D01*
X175407000Y-111633000D01*
X175407000Y-111887000D01*
X175387000Y-111887000D01*
X175387000Y-114173000D01*
X175407000Y-114173000D01*
X175407000Y-114427000D01*
X175387000Y-114427000D01*
X175387000Y-116713000D01*
X175407000Y-116713000D01*
X175407000Y-116967000D01*
X175387000Y-116967000D01*
X175387000Y-119253000D01*
X175407000Y-119253000D01*
X175407000Y-119507000D01*
X175387000Y-119507000D01*
X175387000Y-121793000D01*
X175407000Y-121793000D01*
X175407000Y-122047000D01*
X175387000Y-122047000D01*
X175387000Y-124333000D01*
X175407000Y-124333000D01*
X175407000Y-124587000D01*
X175387000Y-124587000D01*
X175387000Y-126873000D01*
X175407000Y-126873000D01*
X175407000Y-127127000D01*
X175387000Y-127127000D01*
X175387000Y-129413000D01*
X175407000Y-129413000D01*
X175407000Y-129667000D01*
X175387000Y-129667000D01*
X175387000Y-131953000D01*
X175407000Y-131953000D01*
X175407000Y-132207000D01*
X175387000Y-132207000D01*
X175387000Y-133420924D01*
X175621913Y-133565184D01*
X176174320Y-133371954D01*
X176510246Y-133071816D01*
X176555585Y-133139670D01*
X177041766Y-133464526D01*
X177615255Y-133578600D01*
X177984745Y-133578600D01*
X178558234Y-133464526D01*
X179044415Y-133139670D01*
X179369271Y-132653489D01*
X179483345Y-132080000D01*
X179369271Y-131506511D01*
X179044415Y-131020330D01*
X178729634Y-130810000D01*
X179044415Y-130599670D01*
X179369271Y-130113489D01*
X179483345Y-129540000D01*
X179369271Y-128966511D01*
X179044415Y-128480330D01*
X178729634Y-128270000D01*
X179044415Y-128059670D01*
X179369271Y-127573489D01*
X179483345Y-127000000D01*
X179369271Y-126426511D01*
X179044415Y-125940330D01*
X178729634Y-125730000D01*
X179044415Y-125519670D01*
X179369271Y-125033489D01*
X179483345Y-124460000D01*
X179369271Y-123886511D01*
X179044415Y-123400330D01*
X178729634Y-123190000D01*
X179044415Y-122979670D01*
X179369271Y-122493489D01*
X179483345Y-121920000D01*
X179369271Y-121346511D01*
X179044415Y-120860330D01*
X178729634Y-120650000D01*
X179044415Y-120439670D01*
X179369271Y-119953489D01*
X179483345Y-119380000D01*
X179369271Y-118806511D01*
X179044415Y-118320330D01*
X178729634Y-118110000D01*
X179044415Y-117899670D01*
X179369271Y-117413489D01*
X179483345Y-116840000D01*
X179369271Y-116266511D01*
X179044415Y-115780330D01*
X178729634Y-115570000D01*
X179044415Y-115359670D01*
X179369271Y-114873489D01*
X179483345Y-114300000D01*
X179369271Y-113726511D01*
X179044415Y-113240330D01*
X178729634Y-113030000D01*
X179044415Y-112819670D01*
X179369271Y-112333489D01*
X179483345Y-111760000D01*
X179369271Y-111186511D01*
X179044415Y-110700330D01*
X178729634Y-110490000D01*
X179044415Y-110279670D01*
X179369271Y-109793489D01*
X179483345Y-109220000D01*
X179369271Y-108646511D01*
X179044415Y-108160330D01*
X178729634Y-107950000D01*
X179044415Y-107739670D01*
X179369271Y-107253489D01*
X179483345Y-106680000D01*
X179369271Y-106106511D01*
X179044415Y-105620330D01*
X179030087Y-105610757D01*
X179051317Y-105606762D01*
X179267441Y-105467690D01*
X179412431Y-105255490D01*
X179463440Y-105003600D01*
X179463440Y-103276400D01*
X179419162Y-103041083D01*
X179280090Y-102824959D01*
X179067890Y-102679969D01*
X178816000Y-102628960D01*
X176784000Y-102628960D01*
X176548683Y-102673238D01*
X176521461Y-102690755D01*
X176402309Y-102641400D01*
X175545750Y-102641400D01*
X175387000Y-102800150D01*
X175133000Y-102800150D01*
X174974250Y-102641400D01*
X174117691Y-102641400D01*
X174001737Y-102689430D01*
X173987890Y-102679969D01*
X173736000Y-102628960D01*
X171704000Y-102628960D01*
X171468683Y-102673238D01*
X171452901Y-102683393D01*
X171447890Y-102679969D01*
X171196000Y-102628960D01*
X169164000Y-102628960D01*
X168928683Y-102673238D01*
X168912901Y-102683393D01*
X168907890Y-102679969D01*
X168656000Y-102628960D01*
X166624000Y-102628960D01*
X166388683Y-102673238D01*
X166172559Y-102812310D01*
X166027569Y-103024510D01*
X165976560Y-103276400D01*
X165976560Y-105003600D01*
X166020838Y-105238917D01*
X166159910Y-105455041D01*
X166372110Y-105600031D01*
X166413439Y-105608400D01*
X166395585Y-105620330D01*
X166070729Y-106106511D01*
X165956655Y-106680000D01*
X165735000Y-106680000D01*
X165735000Y-101491052D01*
X166896051Y-100330000D01*
X176290927Y-100330000D01*
X176319910Y-100375041D01*
X176532110Y-100520031D01*
X176784000Y-100571040D01*
X178816000Y-100571040D01*
X179051317Y-100526762D01*
X179267441Y-100387690D01*
X179412431Y-100175490D01*
X179463440Y-99923600D01*
X179463440Y-98196400D01*
X179419162Y-97961083D01*
X179280090Y-97744959D01*
X179067890Y-97599969D01*
X179026561Y-97591600D01*
X179044415Y-97579670D01*
X179369271Y-97093489D01*
X179483345Y-96520000D01*
X179369271Y-95946511D01*
X179044415Y-95460330D01*
X178729634Y-95250000D01*
X179044415Y-95039670D01*
X179369271Y-94553489D01*
X179483345Y-93980000D01*
X179369271Y-93406511D01*
X179044415Y-92920330D01*
X178729634Y-92710000D01*
X179044415Y-92499670D01*
X179369271Y-92013489D01*
X179483345Y-91440000D01*
X179369271Y-90866511D01*
X179044415Y-90380330D01*
X178558234Y-90055474D01*
X177984745Y-89941400D01*
X177615255Y-89941400D01*
X177041766Y-90055474D01*
X176555585Y-90380330D01*
X176230729Y-90866511D01*
X176116655Y-91440000D01*
X176230729Y-92013489D01*
X176555585Y-92499670D01*
X176870366Y-92710000D01*
X176555585Y-92920330D01*
X176230729Y-93406511D01*
X176116655Y-93980000D01*
X176230729Y-94553489D01*
X176555585Y-95039670D01*
X176870366Y-95250000D01*
X176555585Y-95460330D01*
X176230729Y-95946511D01*
X176116655Y-96520000D01*
X176230729Y-97093489D01*
X176555585Y-97579670D01*
X176569913Y-97589243D01*
X176548683Y-97593238D01*
X176332559Y-97732310D01*
X176293141Y-97790000D01*
X173782338Y-97790000D01*
X173887433Y-97719778D01*
X174245325Y-97184155D01*
X174371000Y-96552345D01*
X174371000Y-96487655D01*
X174245325Y-95855845D01*
X173887433Y-95320222D01*
X173351810Y-94962330D01*
X172720000Y-94836655D01*
X172088190Y-94962330D01*
X171748208Y-95189499D01*
X171660090Y-95052559D01*
X171447890Y-94907569D01*
X171196000Y-94856560D01*
X169164000Y-94856560D01*
X168928683Y-94900838D01*
X168712559Y-95039910D01*
X168569011Y-95250000D01*
X166370005Y-95250000D01*
X166370000Y-95249999D01*
X165883992Y-95346673D01*
X165471974Y-95621974D01*
X165471972Y-95621977D01*
X164223440Y-96870509D01*
X164223440Y-95504000D01*
X164179162Y-95268683D01*
X164040090Y-95052559D01*
X163891163Y-94950802D01*
X164117670Y-94611810D01*
X164243345Y-93980000D01*
X164117670Y-93348190D01*
X163861284Y-92964481D01*
X167704777Y-92964481D01*
X167899995Y-93436943D01*
X168261155Y-93798735D01*
X168733276Y-93994777D01*
X169244481Y-93995223D01*
X169716943Y-93800005D01*
X170078735Y-93438845D01*
X170274777Y-92966724D01*
X170275223Y-92455519D01*
X170111798Y-92060000D01*
X172692560Y-92060000D01*
X172692560Y-93360000D01*
X172736838Y-93595317D01*
X172875910Y-93811441D01*
X173088110Y-93956431D01*
X173340000Y-94007440D01*
X174640000Y-94007440D01*
X174875317Y-93963162D01*
X175091441Y-93824090D01*
X175236431Y-93611890D01*
X175287440Y-93360000D01*
X175287440Y-92060000D01*
X175243162Y-91824683D01*
X175104090Y-91608559D01*
X174891890Y-91463569D01*
X174640000Y-91412560D01*
X173340000Y-91412560D01*
X173104683Y-91456838D01*
X172888559Y-91595910D01*
X172743569Y-91808110D01*
X172692560Y-92060000D01*
X170111798Y-92060000D01*
X170080005Y-91983057D01*
X169718845Y-91621265D01*
X169246724Y-91425223D01*
X168735519Y-91424777D01*
X168263057Y-91619995D01*
X167901265Y-91981155D01*
X167705223Y-92453276D01*
X167704777Y-92964481D01*
X163861284Y-92964481D01*
X163759778Y-92812567D01*
X163224155Y-92454675D01*
X162592345Y-92329000D01*
X162527655Y-92329000D01*
X161895845Y-92454675D01*
X161360222Y-92812567D01*
X161002330Y-93348190D01*
X160876655Y-93980000D01*
X161002330Y-94611810D01*
X161229499Y-94951792D01*
X161092559Y-95039910D01*
X160947569Y-95252110D01*
X160896560Y-95504000D01*
X160896560Y-97536000D01*
X160940838Y-97771317D01*
X161079910Y-97987441D01*
X161292110Y-98132431D01*
X161544000Y-98183440D01*
X162910508Y-98183440D01*
X161661974Y-99431974D01*
X161386673Y-99843992D01*
X161289999Y-100330000D01*
X161290000Y-100330005D01*
X161290000Y-122028949D01*
X160128948Y-123190000D01*
X158497582Y-123190000D01*
X158879668Y-122934698D01*
X159190737Y-122469151D01*
X159299970Y-121920000D01*
X159190737Y-121370849D01*
X158879668Y-120905302D01*
X158497582Y-120650000D01*
X158879668Y-120394698D01*
X159190737Y-119929151D01*
X159299970Y-119380000D01*
X159190737Y-118830849D01*
X158879668Y-118365302D01*
X158497582Y-118110000D01*
X158879668Y-117854698D01*
X159190737Y-117389151D01*
X159299970Y-116840000D01*
X159190737Y-116290849D01*
X158879668Y-115825302D01*
X158497582Y-115570000D01*
X158879668Y-115314698D01*
X159190737Y-114849151D01*
X159299970Y-114300000D01*
X159190737Y-113750849D01*
X158879668Y-113285302D01*
X158497582Y-113030000D01*
X158879668Y-112774698D01*
X159190737Y-112309151D01*
X159299970Y-111760000D01*
X159190737Y-111210849D01*
X158879668Y-110745302D01*
X158497582Y-110490000D01*
X158879668Y-110234698D01*
X159190737Y-109769151D01*
X159299970Y-109220000D01*
X159190737Y-108670849D01*
X158879668Y-108205302D01*
X158497582Y-107950000D01*
X158879668Y-107694698D01*
X159190737Y-107229151D01*
X159299970Y-106680000D01*
X159190737Y-106130849D01*
X158879668Y-105665302D01*
X158414121Y-105354233D01*
X157864970Y-105245000D01*
X157095030Y-105245000D01*
X156545879Y-105354233D01*
X156080332Y-105665302D01*
X155769263Y-106130849D01*
X155660030Y-106680000D01*
X151679970Y-106680000D01*
X151570737Y-106130849D01*
X151259668Y-105665302D01*
X150794121Y-105354233D01*
X150749000Y-105345258D01*
X150749000Y-94983236D01*
X150863236Y-94869000D01*
X151206675Y-94869000D01*
X151340330Y-95069029D01*
X151611172Y-95250000D01*
X151340330Y-95430971D01*
X151015474Y-95917152D01*
X150901400Y-96490641D01*
X150901400Y-96549359D01*
X151015474Y-97122848D01*
X151340330Y-97609029D01*
X151826511Y-97933885D01*
X152400000Y-98047959D01*
X152973489Y-97933885D01*
X153459670Y-97609029D01*
X153670000Y-97294248D01*
X153880330Y-97609029D01*
X154366511Y-97933885D01*
X154940000Y-98047959D01*
X155513489Y-97933885D01*
X155999670Y-97609029D01*
X156324526Y-97122848D01*
X156438600Y-96549359D01*
X156438600Y-96490641D01*
X156324526Y-95917152D01*
X155999670Y-95430971D01*
X155728828Y-95250000D01*
X155999670Y-95069029D01*
X156324526Y-94582848D01*
X156438600Y-94009359D01*
X156438600Y-93950641D01*
X156324526Y-93377152D01*
X155999670Y-92890971D01*
X155728828Y-92710000D01*
X155999670Y-92529029D01*
X156324526Y-92042848D01*
X156438600Y-91469359D01*
X156438600Y-91410641D01*
X156324526Y-90837152D01*
X156224307Y-90687163D01*
X162857443Y-90687163D01*
X162956042Y-90953965D01*
X163565582Y-91180401D01*
X164215377Y-91156341D01*
X164703958Y-90953965D01*
X164802557Y-90687163D01*
X163830000Y-89714605D01*
X162857443Y-90687163D01*
X156224307Y-90687163D01*
X155999670Y-90350971D01*
X155728828Y-90170000D01*
X155999670Y-89989029D01*
X156324526Y-89502848D01*
X156370726Y-89270582D01*
X162184599Y-89270582D01*
X162208659Y-89920377D01*
X162411035Y-90408958D01*
X162677837Y-90507557D01*
X163650395Y-89535000D01*
X164009605Y-89535000D01*
X164982163Y-90507557D01*
X165248965Y-90408958D01*
X165453380Y-89858694D01*
X172355226Y-89858694D01*
X172603538Y-90459655D01*
X173062927Y-90919846D01*
X173663453Y-91169206D01*
X174313694Y-91169774D01*
X174914655Y-90921462D01*
X175374846Y-90462073D01*
X175624206Y-89861547D01*
X175624774Y-89211306D01*
X175376462Y-88610345D01*
X174917073Y-88150154D01*
X174316547Y-87900794D01*
X173666306Y-87900226D01*
X173065345Y-88148538D01*
X172605154Y-88607927D01*
X172355794Y-89208453D01*
X172355226Y-89858694D01*
X165453380Y-89858694D01*
X165475401Y-89799418D01*
X165451341Y-89149623D01*
X165248965Y-88661042D01*
X164982163Y-88562443D01*
X164009605Y-89535000D01*
X163650395Y-89535000D01*
X162677837Y-88562443D01*
X162411035Y-88661042D01*
X162184599Y-89270582D01*
X156370726Y-89270582D01*
X156438600Y-88929359D01*
X156438600Y-88870641D01*
X156341570Y-88382837D01*
X162857443Y-88382837D01*
X163830000Y-89355395D01*
X164802557Y-88382837D01*
X164703958Y-88116035D01*
X164094418Y-87889599D01*
X163444623Y-87913659D01*
X162956042Y-88116035D01*
X162857443Y-88382837D01*
X156341570Y-88382837D01*
X156324526Y-88297152D01*
X155999670Y-87810971D01*
X155728839Y-87630008D01*
X156146821Y-87248490D01*
X156394968Y-86719027D01*
X156274469Y-86487000D01*
X155067000Y-86487000D01*
X155067000Y-86507000D01*
X154813000Y-86507000D01*
X154813000Y-86487000D01*
X152527000Y-86487000D01*
X152527000Y-86507000D01*
X152273000Y-86507000D01*
X152273000Y-86487000D01*
X151065531Y-86487000D01*
X150945032Y-86719027D01*
X151193179Y-87248490D01*
X151611161Y-87630008D01*
X151340330Y-87810971D01*
X151015474Y-88297152D01*
X150901400Y-88870641D01*
X150901400Y-88929359D01*
X151015474Y-89502848D01*
X151340330Y-89989029D01*
X151611172Y-90170000D01*
X151340330Y-90350971D01*
X151015474Y-90837152D01*
X150901400Y-91410641D01*
X150901400Y-91469359D01*
X151015474Y-92042848D01*
X151340330Y-92529029D01*
X151611172Y-92710000D01*
X151340330Y-92890971D01*
X151206675Y-93091000D01*
X150495000Y-93091000D01*
X150154795Y-93158670D01*
X149866382Y-93351382D01*
X149231382Y-93986382D01*
X149038671Y-94274794D01*
X148971000Y-94615000D01*
X148971000Y-105345258D01*
X148925879Y-105354233D01*
X148460332Y-105665302D01*
X148149263Y-106130849D01*
X148040030Y-106680000D01*
X134473000Y-106680000D01*
X134473000Y-106553000D01*
X134493000Y-106553000D01*
X134493000Y-104267000D01*
X134747000Y-104267000D01*
X134747000Y-106553000D01*
X136106217Y-106553000D01*
X136227358Y-106320974D01*
X136224709Y-106305209D01*
X135970732Y-105777964D01*
X135798139Y-105623759D01*
X135995698Y-105541927D01*
X136174327Y-105363299D01*
X136271000Y-105129910D01*
X136271000Y-104425750D01*
X136112250Y-104267000D01*
X134747000Y-104267000D01*
X134493000Y-104267000D01*
X134473000Y-104267000D01*
X134473000Y-104013000D01*
X134493000Y-104013000D01*
X134493000Y-102800150D01*
X134747000Y-102800150D01*
X134747000Y-104013000D01*
X136112250Y-104013000D01*
X136271000Y-103854250D01*
X136271000Y-103150090D01*
X136174327Y-102916701D01*
X135995698Y-102738073D01*
X135762309Y-102641400D01*
X134905750Y-102641400D01*
X134747000Y-102800150D01*
X134493000Y-102800150D01*
X134334250Y-102641400D01*
X133477691Y-102641400D01*
X133361737Y-102689430D01*
X133347890Y-102679969D01*
X133096000Y-102628960D01*
X131064000Y-102628960D01*
X130828683Y-102673238D01*
X130612559Y-102812310D01*
X130467569Y-103024510D01*
X130416560Y-103276400D01*
X130416560Y-105003600D01*
X130460838Y-105238917D01*
X130599910Y-105455041D01*
X130812110Y-105600031D01*
X130853439Y-105608400D01*
X130835585Y-105620330D01*
X130510729Y-106106511D01*
X130396655Y-106680000D01*
X130302000Y-106680000D01*
X130302000Y-91154481D01*
X139684777Y-91154481D01*
X139879995Y-91626943D01*
X140241155Y-91988735D01*
X140713276Y-92184777D01*
X141224481Y-92185223D01*
X141696943Y-91990005D01*
X142058735Y-91628845D01*
X142254777Y-91156724D01*
X142255223Y-90645519D01*
X142060005Y-90173057D01*
X141976674Y-90089580D01*
X141979699Y-90088327D01*
X142158327Y-89909698D01*
X142255000Y-89676309D01*
X142255000Y-89185750D01*
X142096250Y-89027000D01*
X141097000Y-89027000D01*
X141097000Y-89047000D01*
X140843000Y-89047000D01*
X140843000Y-89027000D01*
X139843750Y-89027000D01*
X139685000Y-89185750D01*
X139685000Y-89676309D01*
X139781673Y-89909698D01*
X139960301Y-90088327D01*
X139963083Y-90089480D01*
X139881265Y-90171155D01*
X139685223Y-90643276D01*
X139684777Y-91154481D01*
X130302000Y-91154481D01*
X130302000Y-88123691D01*
X139685000Y-88123691D01*
X139685000Y-88614250D01*
X139843750Y-88773000D01*
X140843000Y-88773000D01*
X140843000Y-87773750D01*
X141097000Y-87773750D01*
X141097000Y-88773000D01*
X142096250Y-88773000D01*
X142255000Y-88614250D01*
X142255000Y-88123691D01*
X142158327Y-87890302D01*
X141979699Y-87711673D01*
X141746310Y-87615000D01*
X141255750Y-87615000D01*
X141097000Y-87773750D01*
X140843000Y-87773750D01*
X140684250Y-87615000D01*
X140193690Y-87615000D01*
X139960301Y-87711673D01*
X139781673Y-87890302D01*
X139685000Y-88123691D01*
X130302000Y-88123691D01*
X130302000Y-84292325D01*
X132234587Y-84292325D01*
X132596916Y-85169229D01*
X133267242Y-85840726D01*
X134143513Y-86204585D01*
X135092325Y-86205413D01*
X135969229Y-85843084D01*
X136640726Y-85172758D01*
X137004585Y-84296487D01*
X137004751Y-84105750D01*
X150901400Y-84105750D01*
X150901400Y-84809909D01*
X150998073Y-85043298D01*
X151176701Y-85221927D01*
X151376119Y-85304529D01*
X151193179Y-85471510D01*
X150945032Y-86000973D01*
X151065531Y-86233000D01*
X152273000Y-86233000D01*
X152273000Y-83947000D01*
X152527000Y-83947000D01*
X152527000Y-86233000D01*
X154813000Y-86233000D01*
X154813000Y-83947000D01*
X155067000Y-83947000D01*
X155067000Y-86233000D01*
X156274469Y-86233000D01*
X156394968Y-86000973D01*
X156146821Y-85471510D01*
X155728848Y-85090000D01*
X156146821Y-84708490D01*
X156394968Y-84179027D01*
X156356913Y-84105750D01*
X160655000Y-84105750D01*
X160655000Y-85216310D01*
X160751673Y-85449699D01*
X160930302Y-85628327D01*
X161163691Y-85725000D01*
X162274250Y-85725000D01*
X162433000Y-85566250D01*
X162433000Y-83947000D01*
X162687000Y-83947000D01*
X162687000Y-85566250D01*
X162845750Y-85725000D01*
X163956309Y-85725000D01*
X164189698Y-85628327D01*
X164368327Y-85449699D01*
X164465000Y-85216310D01*
X164465000Y-84197265D01*
X165734670Y-84197265D01*
X166024078Y-84897686D01*
X166559495Y-85434039D01*
X167259410Y-85724668D01*
X168017265Y-85725330D01*
X168717686Y-85435922D01*
X169254039Y-84900505D01*
X169506576Y-84292325D01*
X172874587Y-84292325D01*
X173236916Y-85169229D01*
X173907242Y-85840726D01*
X174783513Y-86204585D01*
X175732325Y-86205413D01*
X176609229Y-85843084D01*
X177280726Y-85172758D01*
X177644585Y-84296487D01*
X177645413Y-83347675D01*
X177283084Y-82470771D01*
X176612758Y-81799274D01*
X175736487Y-81435415D01*
X174787675Y-81434587D01*
X173910771Y-81796916D01*
X173239274Y-82467242D01*
X172875415Y-83343513D01*
X172874587Y-84292325D01*
X169506576Y-84292325D01*
X169544668Y-84200590D01*
X169545330Y-83442735D01*
X169255922Y-82742314D01*
X168720505Y-82205961D01*
X168020590Y-81915332D01*
X167262735Y-81914670D01*
X166562314Y-82204078D01*
X166025961Y-82739495D01*
X165735332Y-83439410D01*
X165734670Y-84197265D01*
X164465000Y-84197265D01*
X164465000Y-84105750D01*
X164306250Y-83947000D01*
X162687000Y-83947000D01*
X162433000Y-83947000D01*
X160813750Y-83947000D01*
X160655000Y-84105750D01*
X156356913Y-84105750D01*
X156274469Y-83947000D01*
X155067000Y-83947000D01*
X154813000Y-83947000D01*
X152527000Y-83947000D01*
X152273000Y-83947000D01*
X151060150Y-83947000D01*
X150901400Y-84105750D01*
X137004751Y-84105750D01*
X137005413Y-83347675D01*
X136791552Y-82830091D01*
X150901400Y-82830091D01*
X150901400Y-83534250D01*
X151060150Y-83693000D01*
X152273000Y-83693000D01*
X152273000Y-82480150D01*
X152527000Y-82480150D01*
X152527000Y-83693000D01*
X154813000Y-83693000D01*
X154813000Y-82486183D01*
X155067000Y-82486183D01*
X155067000Y-83693000D01*
X156274469Y-83693000D01*
X156394968Y-83460973D01*
X156146821Y-82931510D01*
X155714947Y-82537312D01*
X155440624Y-82423690D01*
X160655000Y-82423690D01*
X160655000Y-83534250D01*
X160813750Y-83693000D01*
X162433000Y-83693000D01*
X162433000Y-82073750D01*
X162687000Y-82073750D01*
X162687000Y-83693000D01*
X164306250Y-83693000D01*
X164465000Y-83534250D01*
X164465000Y-82423690D01*
X164368327Y-82190301D01*
X164189698Y-82011673D01*
X163956309Y-81915000D01*
X162845750Y-81915000D01*
X162687000Y-82073750D01*
X162433000Y-82073750D01*
X162274250Y-81915000D01*
X161163691Y-81915000D01*
X160930302Y-82011673D01*
X160751673Y-82190301D01*
X160655000Y-82423690D01*
X155440624Y-82423690D01*
X155299026Y-82365042D01*
X155067000Y-82486183D01*
X154813000Y-82486183D01*
X154580974Y-82365042D01*
X154165053Y-82537312D01*
X153883700Y-82794120D01*
X153801927Y-82596702D01*
X153623299Y-82418073D01*
X153389910Y-82321400D01*
X152685750Y-82321400D01*
X152527000Y-82480150D01*
X152273000Y-82480150D01*
X152114250Y-82321400D01*
X151410090Y-82321400D01*
X151176701Y-82418073D01*
X150998073Y-82596702D01*
X150901400Y-82830091D01*
X136791552Y-82830091D01*
X136643084Y-82470771D01*
X135972758Y-81799274D01*
X135096487Y-81435415D01*
X134147675Y-81434587D01*
X133270771Y-81796916D01*
X132599274Y-82467242D01*
X132235415Y-83343513D01*
X132234587Y-84292325D01*
X130302000Y-84292325D01*
X130302000Y-78867000D01*
X179578000Y-78867000D01*
X179578000Y-142748000D01*
X179578000Y-142748000D01*
G37*
X179578000Y-142748000D02*
X130302000Y-142748000D01*
X130302000Y-138902325D01*
X132234587Y-138902325D01*
X132596916Y-139779229D01*
X133267242Y-140450726D01*
X134143513Y-140814585D01*
X135092325Y-140815413D01*
X135969229Y-140453084D01*
X136640726Y-139782758D01*
X137004585Y-138906487D01*
X137005201Y-138200000D01*
X138891429Y-138200000D01*
X138891429Y-142170000D01*
X144318572Y-142170000D01*
X144318572Y-138200000D01*
X138891429Y-138200000D01*
X137005201Y-138200000D01*
X137005413Y-137957675D01*
X136643084Y-137080771D01*
X135972758Y-136409274D01*
X135096487Y-136045415D01*
X134147675Y-136044587D01*
X133270771Y-136406916D01*
X132599274Y-137077242D01*
X132235415Y-137953513D01*
X132234587Y-138902325D01*
X130302000Y-138902325D01*
X130302000Y-106680000D01*
X130396655Y-106680000D01*
X130510729Y-107253489D01*
X130835585Y-107739670D01*
X131150366Y-107950000D01*
X130835585Y-108160330D01*
X130510729Y-108646511D01*
X130396655Y-109220000D01*
X130510729Y-109793489D01*
X130835585Y-110279670D01*
X131150366Y-110490000D01*
X130835585Y-110700330D01*
X130510729Y-111186511D01*
X130396655Y-111760000D01*
X130510729Y-112333489D01*
X130835585Y-112819670D01*
X131150366Y-113030000D01*
X130835585Y-113240330D01*
X130510729Y-113726511D01*
X130396655Y-114300000D01*
X130510729Y-114873489D01*
X130835585Y-115359670D01*
X131150366Y-115570000D01*
X130835585Y-115780330D01*
X130510729Y-116266511D01*
X130396655Y-116840000D01*
X130510729Y-117413489D01*
X130835585Y-117899670D01*
X131150366Y-118110000D01*
X130835585Y-118320330D01*
X130510729Y-118806511D01*
X130396655Y-119380000D01*
X130510729Y-119953489D01*
X130835585Y-120439670D01*
X131150366Y-120650000D01*
X130835585Y-120860330D01*
X130510729Y-121346511D01*
X130396655Y-121920000D01*
X130510729Y-122493489D01*
X130835585Y-122979670D01*
X131150366Y-123190000D01*
X130835585Y-123400330D01*
X130510729Y-123886511D01*
X130396655Y-124460000D01*
X130510729Y-125033489D01*
X130835585Y-125519670D01*
X131150366Y-125730000D01*
X130835585Y-125940330D01*
X130510729Y-126426511D01*
X130396655Y-127000000D01*
X130510729Y-127573489D01*
X130835585Y-128059670D01*
X131150366Y-128270000D01*
X130835585Y-128480330D01*
X130510729Y-128966511D01*
X130396655Y-129540000D01*
X130510729Y-130113489D01*
X130835585Y-130599670D01*
X131150366Y-130810000D01*
X130835585Y-131020330D01*
X130510729Y-131506511D01*
X130396655Y-132080000D01*
X130510729Y-132653489D01*
X130835585Y-133139670D01*
X131321766Y-133464526D01*
X131895255Y-133578600D01*
X132264745Y-133578600D01*
X132838234Y-133464526D01*
X133324415Y-133139670D01*
X133369754Y-133071816D01*
X133705680Y-133371954D01*
X134258087Y-133565184D01*
X134493000Y-133420924D01*
X134493000Y-132207000D01*
X134473000Y-132207000D01*
X134473000Y-131953000D01*
X134493000Y-131953000D01*
X134493000Y-129667000D01*
X134473000Y-129667000D01*
X134473000Y-129413000D01*
X134493000Y-129413000D01*
X134493000Y-127127000D01*
X134473000Y-127127000D01*
X134473000Y-126873000D01*
X134493000Y-126873000D01*
X134493000Y-124587000D01*
X134473000Y-124587000D01*
X134473000Y-124333000D01*
X134493000Y-124333000D01*
X134493000Y-122047000D01*
X134473000Y-122047000D01*
X134473000Y-121793000D01*
X134493000Y-121793000D01*
X134493000Y-119507000D01*
X134473000Y-119507000D01*
X134473000Y-119253000D01*
X134493000Y-119253000D01*
X134493000Y-116967000D01*
X134473000Y-116967000D01*
X134473000Y-116713000D01*
X134493000Y-116713000D01*
X134493000Y-114427000D01*
X134473000Y-114427000D01*
X134473000Y-114173000D01*
X134493000Y-114173000D01*
X134493000Y-111887000D01*
X134747000Y-111887000D01*
X134747000Y-114173000D01*
X134767000Y-114173000D01*
X134767000Y-114427000D01*
X134747000Y-114427000D01*
X134747000Y-116713000D01*
X134767000Y-116713000D01*
X134767000Y-116967000D01*
X134747000Y-116967000D01*
X134747000Y-119253000D01*
X134767000Y-119253000D01*
X134767000Y-119507000D01*
X134747000Y-119507000D01*
X134747000Y-121793000D01*
X134767000Y-121793000D01*
X134767000Y-122047000D01*
X134747000Y-122047000D01*
X134747000Y-124333000D01*
X134767000Y-124333000D01*
X134767000Y-124587000D01*
X134747000Y-124587000D01*
X134747000Y-126873000D01*
X134767000Y-126873000D01*
X134767000Y-127127000D01*
X134747000Y-127127000D01*
X134747000Y-129413000D01*
X134767000Y-129413000D01*
X134767000Y-129667000D01*
X134747000Y-129667000D01*
X134747000Y-131953000D01*
X134767000Y-131953000D01*
X134767000Y-132207000D01*
X134747000Y-132207000D01*
X134747000Y-133420924D01*
X134981913Y-133565184D01*
X135534320Y-133371954D01*
X135870246Y-133071816D01*
X135915585Y-133139670D01*
X136401766Y-133464526D01*
X136975255Y-133578600D01*
X137344745Y-133578600D01*
X137918234Y-133464526D01*
X138404415Y-133139670D01*
X138430000Y-133101379D01*
X138455585Y-133139670D01*
X138941766Y-133464526D01*
X139515255Y-133578600D01*
X139884745Y-133578600D01*
X140458234Y-133464526D01*
X140944415Y-133139670D01*
X140970000Y-133101379D01*
X140995585Y-133139670D01*
X141481766Y-133464526D01*
X142055255Y-133578600D01*
X142424745Y-133578600D01*
X142998234Y-133464526D01*
X143484415Y-133139670D01*
X143809271Y-132653489D01*
X143923345Y-132080000D01*
X143809271Y-131506511D01*
X143484415Y-131020330D01*
X143169634Y-130810000D01*
X143484415Y-130599670D01*
X143809271Y-130113489D01*
X143923345Y-129540000D01*
X143809271Y-128966511D01*
X143484415Y-128480330D01*
X143169634Y-128270000D01*
X143484415Y-128059670D01*
X143809271Y-127573489D01*
X143888638Y-127174481D01*
X144764777Y-127174481D01*
X144959995Y-127646943D01*
X145321155Y-128008735D01*
X145793276Y-128204777D01*
X146304481Y-128205223D01*
X146776943Y-128010005D01*
X147138735Y-127648845D01*
X147334777Y-127176724D01*
X147335223Y-126665519D01*
X147140005Y-126193057D01*
X146778845Y-125831265D01*
X146306724Y-125635223D01*
X145795519Y-125634777D01*
X145323057Y-125829995D01*
X144961265Y-126191155D01*
X144765223Y-126663276D01*
X144764777Y-127174481D01*
X143888638Y-127174481D01*
X143923345Y-127000000D01*
X143809271Y-126426511D01*
X143484415Y-125940330D01*
X143169634Y-125730000D01*
X143484415Y-125519670D01*
X143809271Y-125033489D01*
X143923345Y-124460000D01*
X148040030Y-124460000D01*
X148149263Y-125009151D01*
X148460332Y-125474698D01*
X148842418Y-125730000D01*
X148460332Y-125985302D01*
X148149263Y-126450849D01*
X148040030Y-127000000D01*
X148149263Y-127549151D01*
X148460332Y-128014698D01*
X148842418Y-128270000D01*
X148460332Y-128525302D01*
X148149263Y-128990849D01*
X148040030Y-129540000D01*
X148149263Y-130089151D01*
X148460332Y-130554698D01*
X148842418Y-130810000D01*
X148460332Y-131065302D01*
X148149263Y-131530849D01*
X148040030Y-132080000D01*
X148149263Y-132629151D01*
X148460332Y-133094698D01*
X148842418Y-133350000D01*
X148460332Y-133605302D01*
X148149263Y-134070849D01*
X148040030Y-134620000D01*
X148149263Y-135169151D01*
X148460332Y-135634698D01*
X148842418Y-135890000D01*
X148460332Y-136145302D01*
X148149263Y-136610849D01*
X148040030Y-137160000D01*
X148149263Y-137709151D01*
X148460332Y-138174698D01*
X148842418Y-138430000D01*
X148460332Y-138685302D01*
X148149263Y-139150849D01*
X148040030Y-139700000D01*
X148149263Y-140249151D01*
X148460332Y-140714698D01*
X148925879Y-141025767D01*
X149475030Y-141135000D01*
X150244970Y-141135000D01*
X150794121Y-141025767D01*
X151259668Y-140714698D01*
X151570737Y-140249151D01*
X151679970Y-139700000D01*
X151570737Y-139150849D01*
X151259668Y-138685302D01*
X150877582Y-138430000D01*
X151259668Y-138174698D01*
X151570737Y-137709151D01*
X151679970Y-137160000D01*
X151570737Y-136610849D01*
X151259668Y-136145302D01*
X150877582Y-135890000D01*
X151259668Y-135634698D01*
X151570737Y-135169151D01*
X151679970Y-134620000D01*
X151570737Y-134070849D01*
X151259668Y-133605302D01*
X150877582Y-133350000D01*
X151259668Y-133094698D01*
X151570737Y-132629151D01*
X151679970Y-132080000D01*
X151570737Y-131530849D01*
X151259668Y-131065302D01*
X150877582Y-130810000D01*
X151259668Y-130554698D01*
X151570737Y-130089151D01*
X151679970Y-129540000D01*
X151570737Y-128990849D01*
X151259668Y-128525302D01*
X150877582Y-128270000D01*
X151259668Y-128014698D01*
X151570737Y-127549151D01*
X151679970Y-127000000D01*
X151570737Y-126450849D01*
X151259668Y-125985302D01*
X150877582Y-125730000D01*
X151259668Y-125474698D01*
X151570737Y-125009151D01*
X151679970Y-124460000D01*
X151570737Y-123910849D01*
X151259668Y-123445302D01*
X150881849Y-123192851D01*
X151314500Y-122844896D01*
X151584367Y-122351819D01*
X151601904Y-122269039D01*
X151479915Y-122047000D01*
X149987000Y-122047000D01*
X149987000Y-122067000D01*
X149733000Y-122067000D01*
X149733000Y-122047000D01*
X148240085Y-122047000D01*
X148118096Y-122269039D01*
X148135633Y-122351819D01*
X148405500Y-122844896D01*
X148838151Y-123192851D01*
X148460332Y-123445302D01*
X148149263Y-123910849D01*
X148040030Y-124460000D01*
X143923345Y-124460000D01*
X143809271Y-123886511D01*
X143484415Y-123400330D01*
X143169634Y-123190000D01*
X143484415Y-122979670D01*
X143809271Y-122493489D01*
X143866505Y-122205750D01*
X144765000Y-122205750D01*
X144765000Y-122696309D01*
X144861673Y-122929698D01*
X145040301Y-123108327D01*
X145273690Y-123205000D01*
X145764250Y-123205000D01*
X145923000Y-123046250D01*
X145923000Y-122047000D01*
X146177000Y-122047000D01*
X146177000Y-123046250D01*
X146335750Y-123205000D01*
X146826310Y-123205000D01*
X147059699Y-123108327D01*
X147238327Y-122929698D01*
X147335000Y-122696309D01*
X147335000Y-122205750D01*
X147176250Y-122047000D01*
X146177000Y-122047000D01*
X145923000Y-122047000D01*
X144923750Y-122047000D01*
X144765000Y-122205750D01*
X143866505Y-122205750D01*
X143923345Y-121920000D01*
X143809271Y-121346511D01*
X143673751Y-121143691D01*
X144765000Y-121143691D01*
X144765000Y-121634250D01*
X144923750Y-121793000D01*
X145923000Y-121793000D01*
X145923000Y-120793750D01*
X146177000Y-120793750D01*
X146177000Y-121793000D01*
X147176250Y-121793000D01*
X147335000Y-121634250D01*
X147335000Y-121143691D01*
X147238327Y-120910302D01*
X147059699Y-120731673D01*
X146826310Y-120635000D01*
X146335750Y-120635000D01*
X146177000Y-120793750D01*
X145923000Y-120793750D01*
X145764250Y-120635000D01*
X145273690Y-120635000D01*
X145040301Y-120731673D01*
X144861673Y-120910302D01*
X144765000Y-121143691D01*
X143673751Y-121143691D01*
X143484415Y-120860330D01*
X143169634Y-120650000D01*
X143484415Y-120439670D01*
X143809271Y-119953489D01*
X143923345Y-119380000D01*
X143809271Y-118806511D01*
X143484415Y-118320330D01*
X143169634Y-118110000D01*
X143484415Y-117899670D01*
X143809271Y-117413489D01*
X143923345Y-116840000D01*
X143809271Y-116266511D01*
X143484415Y-115780330D01*
X143470087Y-115770757D01*
X143491317Y-115766762D01*
X143707441Y-115627690D01*
X143852431Y-115415490D01*
X143903440Y-115163600D01*
X143903440Y-113436400D01*
X143859162Y-113201083D01*
X143720090Y-112984959D01*
X143507890Y-112839969D01*
X143256000Y-112788960D01*
X141224000Y-112788960D01*
X140988683Y-112833238D01*
X140972901Y-112843393D01*
X140967890Y-112839969D01*
X140716000Y-112788960D01*
X138684000Y-112788960D01*
X138448683Y-112833238D01*
X138432901Y-112843393D01*
X138427890Y-112839969D01*
X138176000Y-112788960D01*
X136144000Y-112788960D01*
X135908683Y-112833238D01*
X135692559Y-112972310D01*
X135617414Y-113082288D01*
X135558892Y-113030000D01*
X135970732Y-112662036D01*
X136224709Y-112134791D01*
X136227358Y-112119026D01*
X136106217Y-111887000D01*
X134747000Y-111887000D01*
X134493000Y-111887000D01*
X134473000Y-111887000D01*
X134473000Y-111633000D01*
X134493000Y-111633000D01*
X134493000Y-109347000D01*
X134747000Y-109347000D01*
X134747000Y-111633000D01*
X136106217Y-111633000D01*
X136227358Y-111400974D01*
X136224709Y-111385209D01*
X135970732Y-110857964D01*
X135558892Y-110490000D01*
X135970732Y-110122036D01*
X136224709Y-109594791D01*
X136227358Y-109579026D01*
X136106217Y-109347000D01*
X134747000Y-109347000D01*
X134493000Y-109347000D01*
X134473000Y-109347000D01*
X134473000Y-109093000D01*
X134493000Y-109093000D01*
X134493000Y-106807000D01*
X134747000Y-106807000D01*
X134747000Y-109093000D01*
X136106217Y-109093000D01*
X136227358Y-108860974D01*
X136224709Y-108845209D01*
X135970732Y-108317964D01*
X135558892Y-107950000D01*
X135970732Y-107582036D01*
X136224709Y-107054791D01*
X136227358Y-107039026D01*
X136106217Y-106807000D01*
X134747000Y-106807000D01*
X134493000Y-106807000D01*
X134473000Y-106807000D01*
X134473000Y-106680000D01*
X148040030Y-106680000D01*
X148149263Y-107229151D01*
X148460332Y-107694698D01*
X148842418Y-107950000D01*
X148460332Y-108205302D01*
X148149263Y-108670849D01*
X148040030Y-109220000D01*
X148149263Y-109769151D01*
X148460332Y-110234698D01*
X148842418Y-110490000D01*
X148460332Y-110745302D01*
X148149263Y-111210849D01*
X148040030Y-111760000D01*
X148149263Y-112309151D01*
X148460332Y-112774698D01*
X148842418Y-113030000D01*
X148460332Y-113285302D01*
X148149263Y-113750849D01*
X148040030Y-114300000D01*
X148149263Y-114849151D01*
X148460332Y-115314698D01*
X148842418Y-115570000D01*
X148460332Y-115825302D01*
X148149263Y-116290849D01*
X148040030Y-116840000D01*
X148149263Y-117389151D01*
X148460332Y-117854698D01*
X148842418Y-118110000D01*
X148460332Y-118365302D01*
X148149263Y-118830849D01*
X148040030Y-119380000D01*
X148149263Y-119929151D01*
X148460332Y-120394698D01*
X148838151Y-120647149D01*
X148405500Y-120995104D01*
X148135633Y-121488181D01*
X148118096Y-121570961D01*
X148240085Y-121793000D01*
X149733000Y-121793000D01*
X149733000Y-121773000D01*
X149987000Y-121773000D01*
X149987000Y-121793000D01*
X151479915Y-121793000D01*
X151601904Y-121570961D01*
X151584367Y-121488181D01*
X151314500Y-120995104D01*
X150881849Y-120647149D01*
X151259668Y-120394698D01*
X151570737Y-119929151D01*
X151679970Y-119380000D01*
X151570737Y-118830849D01*
X151259668Y-118365302D01*
X150877582Y-118110000D01*
X151259668Y-117854698D01*
X151570737Y-117389151D01*
X151679970Y-116840000D01*
X151570737Y-116290849D01*
X151259668Y-115825302D01*
X150877582Y-115570000D01*
X151259668Y-115314698D01*
X151570737Y-114849151D01*
X151679970Y-114300000D01*
X151570737Y-113750849D01*
X151259668Y-113285302D01*
X150877582Y-113030000D01*
X151259668Y-112774698D01*
X151570737Y-112309151D01*
X151679970Y-111760000D01*
X151570737Y-111210849D01*
X151259668Y-110745302D01*
X150877582Y-110490000D01*
X151259668Y-110234698D01*
X151570737Y-109769151D01*
X151679970Y-109220000D01*
X151570737Y-108670849D01*
X151259668Y-108205302D01*
X150877582Y-107950000D01*
X151259668Y-107694698D01*
X151570737Y-107229151D01*
X151679970Y-106680000D01*
X155660030Y-106680000D01*
X155769263Y-107229151D01*
X156080332Y-107694698D01*
X156462418Y-107950000D01*
X156080332Y-108205302D01*
X155769263Y-108670849D01*
X155660030Y-109220000D01*
X155769263Y-109769151D01*
X156080332Y-110234698D01*
X156462418Y-110490000D01*
X156080332Y-110745302D01*
X155769263Y-111210849D01*
X155660030Y-111760000D01*
X155769263Y-112309151D01*
X156080332Y-112774698D01*
X156462418Y-113030000D01*
X156080332Y-113285302D01*
X155769263Y-113750849D01*
X155660030Y-114300000D01*
X155769263Y-114849151D01*
X156080332Y-115314698D01*
X156462418Y-115570000D01*
X156080332Y-115825302D01*
X155769263Y-116290849D01*
X155660030Y-116840000D01*
X155769263Y-117389151D01*
X156080332Y-117854698D01*
X156462418Y-118110000D01*
X156080332Y-118365302D01*
X155769263Y-118830849D01*
X155660030Y-119380000D01*
X155769263Y-119929151D01*
X156080332Y-120394698D01*
X156462418Y-120650000D01*
X156080332Y-120905302D01*
X155769263Y-121370849D01*
X155660030Y-121920000D01*
X155769263Y-122469151D01*
X156080332Y-122934698D01*
X156462418Y-123190000D01*
X156080332Y-123445302D01*
X155769263Y-123910849D01*
X155660030Y-124460000D01*
X155769263Y-125009151D01*
X156080332Y-125474698D01*
X156462418Y-125730000D01*
X156080332Y-125985302D01*
X155769263Y-126450849D01*
X155660030Y-127000000D01*
X155769263Y-127549151D01*
X156080332Y-128014698D01*
X156462418Y-128270000D01*
X156080332Y-128525302D01*
X155769263Y-128990849D01*
X155660030Y-129540000D01*
X155769263Y-130089151D01*
X156080332Y-130554698D01*
X156462418Y-130810000D01*
X156080332Y-131065302D01*
X155769263Y-131530849D01*
X155660030Y-132080000D01*
X155769263Y-132629151D01*
X156080332Y-133094698D01*
X156462418Y-133350000D01*
X156080332Y-133605302D01*
X155769263Y-134070849D01*
X155660030Y-134620000D01*
X155769263Y-135169151D01*
X156080332Y-135634698D01*
X156462418Y-135890000D01*
X156080332Y-136145302D01*
X155769263Y-136610849D01*
X155660030Y-137160000D01*
X155769263Y-137709151D01*
X156080332Y-138174698D01*
X156462418Y-138430000D01*
X156080332Y-138685302D01*
X155769263Y-139150849D01*
X155660030Y-139700000D01*
X155769263Y-140249151D01*
X156080332Y-140714698D01*
X156545879Y-141025767D01*
X157095030Y-141135000D01*
X157864970Y-141135000D01*
X158414121Y-141025767D01*
X158879668Y-140714698D01*
X159190737Y-140249151D01*
X159299970Y-139700000D01*
X159190737Y-139150849D01*
X159024679Y-138902325D01*
X172874587Y-138902325D01*
X173236916Y-139779229D01*
X173907242Y-140450726D01*
X174783513Y-140814585D01*
X175732325Y-140815413D01*
X176609229Y-140453084D01*
X177280726Y-139782758D01*
X177644585Y-138906487D01*
X177645413Y-137957675D01*
X177283084Y-137080771D01*
X176612758Y-136409274D01*
X175736487Y-136045415D01*
X174787675Y-136044587D01*
X173910771Y-136406916D01*
X173239274Y-137077242D01*
X172875415Y-137953513D01*
X172874587Y-138902325D01*
X159024679Y-138902325D01*
X158879668Y-138685302D01*
X158497582Y-138430000D01*
X158879668Y-138174698D01*
X159190737Y-137709151D01*
X159299970Y-137160000D01*
X159190737Y-136610849D01*
X158879668Y-136145302D01*
X158497582Y-135890000D01*
X158879668Y-135634698D01*
X159190737Y-135169151D01*
X159299970Y-134620000D01*
X159190737Y-134070849D01*
X158879668Y-133605302D01*
X158497582Y-133350000D01*
X158879668Y-133094698D01*
X159190737Y-132629151D01*
X159299970Y-132080000D01*
X159190737Y-131530849D01*
X158879668Y-131065302D01*
X158497582Y-130810000D01*
X158879668Y-130554698D01*
X159190737Y-130089151D01*
X159299970Y-129540000D01*
X159190737Y-128990849D01*
X158879668Y-128525302D01*
X158497582Y-128270000D01*
X161289995Y-128270000D01*
X161290000Y-128270001D01*
X161776008Y-128173327D01*
X162188026Y-127898026D01*
X165363026Y-124723026D01*
X165638327Y-124311008D01*
X165735001Y-123825000D01*
X165735000Y-123824995D01*
X165735000Y-106680000D01*
X165956655Y-106680000D01*
X166070729Y-107253489D01*
X166395585Y-107739670D01*
X166710366Y-107950000D01*
X166395585Y-108160330D01*
X166070729Y-108646511D01*
X165956655Y-109220000D01*
X166070729Y-109793489D01*
X166395585Y-110279670D01*
X166710366Y-110490000D01*
X166395585Y-110700330D01*
X166070729Y-111186511D01*
X165956655Y-111760000D01*
X166070729Y-112333489D01*
X166395585Y-112819670D01*
X166710366Y-113030000D01*
X166395585Y-113240330D01*
X166070729Y-113726511D01*
X165956655Y-114300000D01*
X166070729Y-114873489D01*
X166395585Y-115359670D01*
X166710366Y-115570000D01*
X166395585Y-115780330D01*
X166070729Y-116266511D01*
X165956655Y-116840000D01*
X166070729Y-117413489D01*
X166395585Y-117899670D01*
X166710366Y-118110000D01*
X166395585Y-118320330D01*
X166070729Y-118806511D01*
X165956655Y-119380000D01*
X166070729Y-119953489D01*
X166395585Y-120439670D01*
X166710366Y-120650000D01*
X166395585Y-120860330D01*
X166070729Y-121346511D01*
X165956655Y-121920000D01*
X166070729Y-122493489D01*
X166395585Y-122979670D01*
X166710366Y-123190000D01*
X166395585Y-123400330D01*
X166070729Y-123886511D01*
X165956655Y-124460000D01*
X166070729Y-125033489D01*
X166395585Y-125519670D01*
X166710366Y-125730000D01*
X166395585Y-125940330D01*
X166070729Y-126426511D01*
X165956655Y-127000000D01*
X166070729Y-127573489D01*
X166395585Y-128059670D01*
X166710366Y-128270000D01*
X166395585Y-128480330D01*
X166070729Y-128966511D01*
X165956655Y-129540000D01*
X166070729Y-130113489D01*
X166395585Y-130599670D01*
X166710366Y-130810000D01*
X166395585Y-131020330D01*
X166070729Y-131506511D01*
X165956655Y-132080000D01*
X166070729Y-132653489D01*
X166395585Y-133139670D01*
X166881766Y-133464526D01*
X167455255Y-133578600D01*
X167824745Y-133578600D01*
X168398234Y-133464526D01*
X168884415Y-133139670D01*
X168910000Y-133101379D01*
X168935585Y-133139670D01*
X169421766Y-133464526D01*
X169995255Y-133578600D01*
X170364745Y-133578600D01*
X170938234Y-133464526D01*
X171424415Y-133139670D01*
X171450000Y-133101379D01*
X171475585Y-133139670D01*
X171961766Y-133464526D01*
X172535255Y-133578600D01*
X172904745Y-133578600D01*
X173478234Y-133464526D01*
X173964415Y-133139670D01*
X174009754Y-133071816D01*
X174345680Y-133371954D01*
X174898087Y-133565184D01*
X175133000Y-133420924D01*
X175133000Y-132207000D01*
X175113000Y-132207000D01*
X175113000Y-131953000D01*
X175133000Y-131953000D01*
X175133000Y-129667000D01*
X175113000Y-129667000D01*
X175113000Y-129413000D01*
X175133000Y-129413000D01*
X175133000Y-127127000D01*
X175113000Y-127127000D01*
X175113000Y-126873000D01*
X175133000Y-126873000D01*
X175133000Y-124587000D01*
X175113000Y-124587000D01*
X175113000Y-124333000D01*
X175133000Y-124333000D01*
X175133000Y-122047000D01*
X175113000Y-122047000D01*
X175113000Y-121793000D01*
X175133000Y-121793000D01*
X175133000Y-119507000D01*
X175113000Y-119507000D01*
X175113000Y-119253000D01*
X175133000Y-119253000D01*
X175133000Y-116967000D01*
X175113000Y-116967000D01*
X175113000Y-116713000D01*
X175133000Y-116713000D01*
X175133000Y-114427000D01*
X175113000Y-114427000D01*
X175113000Y-114173000D01*
X175133000Y-114173000D01*
X175133000Y-111887000D01*
X175113000Y-111887000D01*
X175113000Y-111633000D01*
X175133000Y-111633000D01*
X175133000Y-109347000D01*
X175113000Y-109347000D01*
X175113000Y-109093000D01*
X175133000Y-109093000D01*
X175133000Y-106807000D01*
X175113000Y-106807000D01*
X175113000Y-106553000D01*
X175133000Y-106553000D01*
X175133000Y-104267000D01*
X175113000Y-104267000D01*
X175113000Y-104013000D01*
X175133000Y-104013000D01*
X175133000Y-102800150D01*
X175387000Y-102800150D01*
X175387000Y-104013000D01*
X175407000Y-104013000D01*
X175407000Y-104267000D01*
X175387000Y-104267000D01*
X175387000Y-106553000D01*
X175407000Y-106553000D01*
X175407000Y-106807000D01*
X175387000Y-106807000D01*
X175387000Y-109093000D01*
X175407000Y-109093000D01*
X175407000Y-109347000D01*
X175387000Y-109347000D01*
X175387000Y-111633000D01*
X175407000Y-111633000D01*
X175407000Y-111887000D01*
X175387000Y-111887000D01*
X175387000Y-114173000D01*
X175407000Y-114173000D01*
X175407000Y-114427000D01*
X175387000Y-114427000D01*
X175387000Y-116713000D01*
X175407000Y-116713000D01*
X175407000Y-116967000D01*
X175387000Y-116967000D01*
X175387000Y-119253000D01*
X175407000Y-119253000D01*
X175407000Y-119507000D01*
X175387000Y-119507000D01*
X175387000Y-121793000D01*
X175407000Y-121793000D01*
X175407000Y-122047000D01*
X175387000Y-122047000D01*
X175387000Y-124333000D01*
X175407000Y-124333000D01*
X175407000Y-124587000D01*
X175387000Y-124587000D01*
X175387000Y-126873000D01*
X175407000Y-126873000D01*
X175407000Y-127127000D01*
X175387000Y-127127000D01*
X175387000Y-129413000D01*
X175407000Y-129413000D01*
X175407000Y-129667000D01*
X175387000Y-129667000D01*
X175387000Y-131953000D01*
X175407000Y-131953000D01*
X175407000Y-132207000D01*
X175387000Y-132207000D01*
X175387000Y-133420924D01*
X175621913Y-133565184D01*
X176174320Y-133371954D01*
X176510246Y-133071816D01*
X176555585Y-133139670D01*
X177041766Y-133464526D01*
X177615255Y-133578600D01*
X177984745Y-133578600D01*
X178558234Y-133464526D01*
X179044415Y-133139670D01*
X179369271Y-132653489D01*
X179483345Y-132080000D01*
X179369271Y-131506511D01*
X179044415Y-131020330D01*
X178729634Y-130810000D01*
X179044415Y-130599670D01*
X179369271Y-130113489D01*
X179483345Y-129540000D01*
X179369271Y-128966511D01*
X179044415Y-128480330D01*
X178729634Y-128270000D01*
X179044415Y-128059670D01*
X179369271Y-127573489D01*
X179483345Y-127000000D01*
X179369271Y-126426511D01*
X179044415Y-125940330D01*
X178729634Y-125730000D01*
X179044415Y-125519670D01*
X179369271Y-125033489D01*
X179483345Y-124460000D01*
X179369271Y-123886511D01*
X179044415Y-123400330D01*
X178729634Y-123190000D01*
X179044415Y-122979670D01*
X179369271Y-122493489D01*
X179483345Y-121920000D01*
X179369271Y-121346511D01*
X179044415Y-120860330D01*
X178729634Y-120650000D01*
X179044415Y-120439670D01*
X179369271Y-119953489D01*
X179483345Y-119380000D01*
X179369271Y-118806511D01*
X179044415Y-118320330D01*
X178729634Y-118110000D01*
X179044415Y-117899670D01*
X179369271Y-117413489D01*
X179483345Y-116840000D01*
X179369271Y-116266511D01*
X179044415Y-115780330D01*
X178729634Y-115570000D01*
X179044415Y-115359670D01*
X179369271Y-114873489D01*
X179483345Y-114300000D01*
X179369271Y-113726511D01*
X179044415Y-113240330D01*
X178729634Y-113030000D01*
X179044415Y-112819670D01*
X179369271Y-112333489D01*
X179483345Y-111760000D01*
X179369271Y-111186511D01*
X179044415Y-110700330D01*
X178729634Y-110490000D01*
X179044415Y-110279670D01*
X179369271Y-109793489D01*
X179483345Y-109220000D01*
X179369271Y-108646511D01*
X179044415Y-108160330D01*
X178729634Y-107950000D01*
X179044415Y-107739670D01*
X179369271Y-107253489D01*
X179483345Y-106680000D01*
X179369271Y-106106511D01*
X179044415Y-105620330D01*
X179030087Y-105610757D01*
X179051317Y-105606762D01*
X179267441Y-105467690D01*
X179412431Y-105255490D01*
X179463440Y-105003600D01*
X179463440Y-103276400D01*
X179419162Y-103041083D01*
X179280090Y-102824959D01*
X179067890Y-102679969D01*
X178816000Y-102628960D01*
X176784000Y-102628960D01*
X176548683Y-102673238D01*
X176521461Y-102690755D01*
X176402309Y-102641400D01*
X175545750Y-102641400D01*
X175387000Y-102800150D01*
X175133000Y-102800150D01*
X174974250Y-102641400D01*
X174117691Y-102641400D01*
X174001737Y-102689430D01*
X173987890Y-102679969D01*
X173736000Y-102628960D01*
X171704000Y-102628960D01*
X171468683Y-102673238D01*
X171452901Y-102683393D01*
X171447890Y-102679969D01*
X171196000Y-102628960D01*
X169164000Y-102628960D01*
X168928683Y-102673238D01*
X168912901Y-102683393D01*
X168907890Y-102679969D01*
X168656000Y-102628960D01*
X166624000Y-102628960D01*
X166388683Y-102673238D01*
X166172559Y-102812310D01*
X166027569Y-103024510D01*
X165976560Y-103276400D01*
X165976560Y-105003600D01*
X166020838Y-105238917D01*
X166159910Y-105455041D01*
X166372110Y-105600031D01*
X166413439Y-105608400D01*
X166395585Y-105620330D01*
X166070729Y-106106511D01*
X165956655Y-106680000D01*
X165735000Y-106680000D01*
X165735000Y-101491052D01*
X166896051Y-100330000D01*
X176290927Y-100330000D01*
X176319910Y-100375041D01*
X176532110Y-100520031D01*
X176784000Y-100571040D01*
X178816000Y-100571040D01*
X179051317Y-100526762D01*
X179267441Y-100387690D01*
X179412431Y-100175490D01*
X179463440Y-99923600D01*
X179463440Y-98196400D01*
X179419162Y-97961083D01*
X179280090Y-97744959D01*
X179067890Y-97599969D01*
X179026561Y-97591600D01*
X179044415Y-97579670D01*
X179369271Y-97093489D01*
X179483345Y-96520000D01*
X179369271Y-95946511D01*
X179044415Y-95460330D01*
X178729634Y-95250000D01*
X179044415Y-95039670D01*
X179369271Y-94553489D01*
X179483345Y-93980000D01*
X179369271Y-93406511D01*
X179044415Y-92920330D01*
X178729634Y-92710000D01*
X179044415Y-92499670D01*
X179369271Y-92013489D01*
X179483345Y-91440000D01*
X179369271Y-90866511D01*
X179044415Y-90380330D01*
X178558234Y-90055474D01*
X177984745Y-89941400D01*
X177615255Y-89941400D01*
X177041766Y-90055474D01*
X176555585Y-90380330D01*
X176230729Y-90866511D01*
X176116655Y-91440000D01*
X176230729Y-92013489D01*
X176555585Y-92499670D01*
X176870366Y-92710000D01*
X176555585Y-92920330D01*
X176230729Y-93406511D01*
X176116655Y-93980000D01*
X176230729Y-94553489D01*
X176555585Y-95039670D01*
X176870366Y-95250000D01*
X176555585Y-95460330D01*
X176230729Y-95946511D01*
X176116655Y-96520000D01*
X176230729Y-97093489D01*
X176555585Y-97579670D01*
X176569913Y-97589243D01*
X176548683Y-97593238D01*
X176332559Y-97732310D01*
X176293141Y-97790000D01*
X173782338Y-97790000D01*
X173887433Y-97719778D01*
X174245325Y-97184155D01*
X174371000Y-96552345D01*
X174371000Y-96487655D01*
X174245325Y-95855845D01*
X173887433Y-95320222D01*
X173351810Y-94962330D01*
X172720000Y-94836655D01*
X172088190Y-94962330D01*
X171748208Y-95189499D01*
X171660090Y-95052559D01*
X171447890Y-94907569D01*
X171196000Y-94856560D01*
X169164000Y-94856560D01*
X168928683Y-94900838D01*
X168712559Y-95039910D01*
X168569011Y-95250000D01*
X166370005Y-95250000D01*
X166370000Y-95249999D01*
X165883992Y-95346673D01*
X165471974Y-95621974D01*
X165471972Y-95621977D01*
X164223440Y-96870509D01*
X164223440Y-95504000D01*
X164179162Y-95268683D01*
X164040090Y-95052559D01*
X163891163Y-94950802D01*
X164117670Y-94611810D01*
X164243345Y-93980000D01*
X164117670Y-93348190D01*
X163861284Y-92964481D01*
X167704777Y-92964481D01*
X167899995Y-93436943D01*
X168261155Y-93798735D01*
X168733276Y-93994777D01*
X169244481Y-93995223D01*
X169716943Y-93800005D01*
X170078735Y-93438845D01*
X170274777Y-92966724D01*
X170275223Y-92455519D01*
X170111798Y-92060000D01*
X172692560Y-92060000D01*
X172692560Y-93360000D01*
X172736838Y-93595317D01*
X172875910Y-93811441D01*
X173088110Y-93956431D01*
X173340000Y-94007440D01*
X174640000Y-94007440D01*
X174875317Y-93963162D01*
X175091441Y-93824090D01*
X175236431Y-93611890D01*
X175287440Y-93360000D01*
X175287440Y-92060000D01*
X175243162Y-91824683D01*
X175104090Y-91608559D01*
X174891890Y-91463569D01*
X174640000Y-91412560D01*
X173340000Y-91412560D01*
X173104683Y-91456838D01*
X172888559Y-91595910D01*
X172743569Y-91808110D01*
X172692560Y-92060000D01*
X170111798Y-92060000D01*
X170080005Y-91983057D01*
X169718845Y-91621265D01*
X169246724Y-91425223D01*
X168735519Y-91424777D01*
X168263057Y-91619995D01*
X167901265Y-91981155D01*
X167705223Y-92453276D01*
X167704777Y-92964481D01*
X163861284Y-92964481D01*
X163759778Y-92812567D01*
X163224155Y-92454675D01*
X162592345Y-92329000D01*
X162527655Y-92329000D01*
X161895845Y-92454675D01*
X161360222Y-92812567D01*
X161002330Y-93348190D01*
X160876655Y-93980000D01*
X161002330Y-94611810D01*
X161229499Y-94951792D01*
X161092559Y-95039910D01*
X160947569Y-95252110D01*
X160896560Y-95504000D01*
X160896560Y-97536000D01*
X160940838Y-97771317D01*
X161079910Y-97987441D01*
X161292110Y-98132431D01*
X161544000Y-98183440D01*
X162910508Y-98183440D01*
X161661974Y-99431974D01*
X161386673Y-99843992D01*
X161289999Y-100330000D01*
X161290000Y-100330005D01*
X161290000Y-122028949D01*
X160128948Y-123190000D01*
X158497582Y-123190000D01*
X158879668Y-122934698D01*
X159190737Y-122469151D01*
X159299970Y-121920000D01*
X159190737Y-121370849D01*
X158879668Y-120905302D01*
X158497582Y-120650000D01*
X158879668Y-120394698D01*
X159190737Y-119929151D01*
X159299970Y-119380000D01*
X159190737Y-118830849D01*
X158879668Y-118365302D01*
X158497582Y-118110000D01*
X158879668Y-117854698D01*
X159190737Y-117389151D01*
X159299970Y-116840000D01*
X159190737Y-116290849D01*
X158879668Y-115825302D01*
X158497582Y-115570000D01*
X158879668Y-115314698D01*
X159190737Y-114849151D01*
X159299970Y-114300000D01*
X159190737Y-113750849D01*
X158879668Y-113285302D01*
X158497582Y-113030000D01*
X158879668Y-112774698D01*
X159190737Y-112309151D01*
X159299970Y-111760000D01*
X159190737Y-111210849D01*
X158879668Y-110745302D01*
X158497582Y-110490000D01*
X158879668Y-110234698D01*
X159190737Y-109769151D01*
X159299970Y-109220000D01*
X159190737Y-108670849D01*
X158879668Y-108205302D01*
X158497582Y-107950000D01*
X158879668Y-107694698D01*
X159190737Y-107229151D01*
X159299970Y-106680000D01*
X159190737Y-106130849D01*
X158879668Y-105665302D01*
X158414121Y-105354233D01*
X157864970Y-105245000D01*
X157095030Y-105245000D01*
X156545879Y-105354233D01*
X156080332Y-105665302D01*
X155769263Y-106130849D01*
X155660030Y-106680000D01*
X151679970Y-106680000D01*
X151570737Y-106130849D01*
X151259668Y-105665302D01*
X150794121Y-105354233D01*
X150749000Y-105345258D01*
X150749000Y-94983236D01*
X150863236Y-94869000D01*
X151206675Y-94869000D01*
X151340330Y-95069029D01*
X151611172Y-95250000D01*
X151340330Y-95430971D01*
X151015474Y-95917152D01*
X150901400Y-96490641D01*
X150901400Y-96549359D01*
X151015474Y-97122848D01*
X151340330Y-97609029D01*
X151826511Y-97933885D01*
X152400000Y-98047959D01*
X152973489Y-97933885D01*
X153459670Y-97609029D01*
X153670000Y-97294248D01*
X153880330Y-97609029D01*
X154366511Y-97933885D01*
X154940000Y-98047959D01*
X155513489Y-97933885D01*
X155999670Y-97609029D01*
X156324526Y-97122848D01*
X156438600Y-96549359D01*
X156438600Y-96490641D01*
X156324526Y-95917152D01*
X155999670Y-95430971D01*
X155728828Y-95250000D01*
X155999670Y-95069029D01*
X156324526Y-94582848D01*
X156438600Y-94009359D01*
X156438600Y-93950641D01*
X156324526Y-93377152D01*
X155999670Y-92890971D01*
X155728828Y-92710000D01*
X155999670Y-92529029D01*
X156324526Y-92042848D01*
X156438600Y-91469359D01*
X156438600Y-91410641D01*
X156324526Y-90837152D01*
X156224307Y-90687163D01*
X162857443Y-90687163D01*
X162956042Y-90953965D01*
X163565582Y-91180401D01*
X164215377Y-91156341D01*
X164703958Y-90953965D01*
X164802557Y-90687163D01*
X163830000Y-89714605D01*
X162857443Y-90687163D01*
X156224307Y-90687163D01*
X155999670Y-90350971D01*
X155728828Y-90170000D01*
X155999670Y-89989029D01*
X156324526Y-89502848D01*
X156370726Y-89270582D01*
X162184599Y-89270582D01*
X162208659Y-89920377D01*
X162411035Y-90408958D01*
X162677837Y-90507557D01*
X163650395Y-89535000D01*
X164009605Y-89535000D01*
X164982163Y-90507557D01*
X165248965Y-90408958D01*
X165453380Y-89858694D01*
X172355226Y-89858694D01*
X172603538Y-90459655D01*
X173062927Y-90919846D01*
X173663453Y-91169206D01*
X174313694Y-91169774D01*
X174914655Y-90921462D01*
X175374846Y-90462073D01*
X175624206Y-89861547D01*
X175624774Y-89211306D01*
X175376462Y-88610345D01*
X174917073Y-88150154D01*
X174316547Y-87900794D01*
X173666306Y-87900226D01*
X173065345Y-88148538D01*
X172605154Y-88607927D01*
X172355794Y-89208453D01*
X172355226Y-89858694D01*
X165453380Y-89858694D01*
X165475401Y-89799418D01*
X165451341Y-89149623D01*
X165248965Y-88661042D01*
X164982163Y-88562443D01*
X164009605Y-89535000D01*
X163650395Y-89535000D01*
X162677837Y-88562443D01*
X162411035Y-88661042D01*
X162184599Y-89270582D01*
X156370726Y-89270582D01*
X156438600Y-88929359D01*
X156438600Y-88870641D01*
X156341570Y-88382837D01*
X162857443Y-88382837D01*
X163830000Y-89355395D01*
X164802557Y-88382837D01*
X164703958Y-88116035D01*
X164094418Y-87889599D01*
X163444623Y-87913659D01*
X162956042Y-88116035D01*
X162857443Y-88382837D01*
X156341570Y-88382837D01*
X156324526Y-88297152D01*
X155999670Y-87810971D01*
X155728839Y-87630008D01*
X156146821Y-87248490D01*
X156394968Y-86719027D01*
X156274469Y-86487000D01*
X155067000Y-86487000D01*
X155067000Y-86507000D01*
X154813000Y-86507000D01*
X154813000Y-86487000D01*
X152527000Y-86487000D01*
X152527000Y-86507000D01*
X152273000Y-86507000D01*
X152273000Y-86487000D01*
X151065531Y-86487000D01*
X150945032Y-86719027D01*
X151193179Y-87248490D01*
X151611161Y-87630008D01*
X151340330Y-87810971D01*
X151015474Y-88297152D01*
X150901400Y-88870641D01*
X150901400Y-88929359D01*
X151015474Y-89502848D01*
X151340330Y-89989029D01*
X151611172Y-90170000D01*
X151340330Y-90350971D01*
X151015474Y-90837152D01*
X150901400Y-91410641D01*
X150901400Y-91469359D01*
X151015474Y-92042848D01*
X151340330Y-92529029D01*
X151611172Y-92710000D01*
X151340330Y-92890971D01*
X151206675Y-93091000D01*
X150495000Y-93091000D01*
X150154795Y-93158670D01*
X149866382Y-93351382D01*
X149231382Y-93986382D01*
X149038671Y-94274794D01*
X148971000Y-94615000D01*
X148971000Y-105345258D01*
X148925879Y-105354233D01*
X148460332Y-105665302D01*
X148149263Y-106130849D01*
X148040030Y-106680000D01*
X134473000Y-106680000D01*
X134473000Y-106553000D01*
X134493000Y-106553000D01*
X134493000Y-104267000D01*
X134747000Y-104267000D01*
X134747000Y-106553000D01*
X136106217Y-106553000D01*
X136227358Y-106320974D01*
X136224709Y-106305209D01*
X135970732Y-105777964D01*
X135798139Y-105623759D01*
X135995698Y-105541927D01*
X136174327Y-105363299D01*
X136271000Y-105129910D01*
X136271000Y-104425750D01*
X136112250Y-104267000D01*
X134747000Y-104267000D01*
X134493000Y-104267000D01*
X134473000Y-104267000D01*
X134473000Y-104013000D01*
X134493000Y-104013000D01*
X134493000Y-102800150D01*
X134747000Y-102800150D01*
X134747000Y-104013000D01*
X136112250Y-104013000D01*
X136271000Y-103854250D01*
X136271000Y-103150090D01*
X136174327Y-102916701D01*
X135995698Y-102738073D01*
X135762309Y-102641400D01*
X134905750Y-102641400D01*
X134747000Y-102800150D01*
X134493000Y-102800150D01*
X134334250Y-102641400D01*
X133477691Y-102641400D01*
X133361737Y-102689430D01*
X133347890Y-102679969D01*
X133096000Y-102628960D01*
X131064000Y-102628960D01*
X130828683Y-102673238D01*
X130612559Y-102812310D01*
X130467569Y-103024510D01*
X130416560Y-103276400D01*
X130416560Y-105003600D01*
X130460838Y-105238917D01*
X130599910Y-105455041D01*
X130812110Y-105600031D01*
X130853439Y-105608400D01*
X130835585Y-105620330D01*
X130510729Y-106106511D01*
X130396655Y-106680000D01*
X130302000Y-106680000D01*
X130302000Y-91154481D01*
X139684777Y-91154481D01*
X139879995Y-91626943D01*
X140241155Y-91988735D01*
X140713276Y-92184777D01*
X141224481Y-92185223D01*
X141696943Y-91990005D01*
X142058735Y-91628845D01*
X142254777Y-91156724D01*
X142255223Y-90645519D01*
X142060005Y-90173057D01*
X141976674Y-90089580D01*
X141979699Y-90088327D01*
X142158327Y-89909698D01*
X142255000Y-89676309D01*
X142255000Y-89185750D01*
X142096250Y-89027000D01*
X141097000Y-89027000D01*
X141097000Y-89047000D01*
X140843000Y-89047000D01*
X140843000Y-89027000D01*
X139843750Y-89027000D01*
X139685000Y-89185750D01*
X139685000Y-89676309D01*
X139781673Y-89909698D01*
X139960301Y-90088327D01*
X139963083Y-90089480D01*
X139881265Y-90171155D01*
X139685223Y-90643276D01*
X139684777Y-91154481D01*
X130302000Y-91154481D01*
X130302000Y-88123691D01*
X139685000Y-88123691D01*
X139685000Y-88614250D01*
X139843750Y-88773000D01*
X140843000Y-88773000D01*
X140843000Y-87773750D01*
X141097000Y-87773750D01*
X141097000Y-88773000D01*
X142096250Y-88773000D01*
X142255000Y-88614250D01*
X142255000Y-88123691D01*
X142158327Y-87890302D01*
X141979699Y-87711673D01*
X141746310Y-87615000D01*
X141255750Y-87615000D01*
X141097000Y-87773750D01*
X140843000Y-87773750D01*
X140684250Y-87615000D01*
X140193690Y-87615000D01*
X139960301Y-87711673D01*
X139781673Y-87890302D01*
X139685000Y-88123691D01*
X130302000Y-88123691D01*
X130302000Y-84292325D01*
X132234587Y-84292325D01*
X132596916Y-85169229D01*
X133267242Y-85840726D01*
X134143513Y-86204585D01*
X135092325Y-86205413D01*
X135969229Y-85843084D01*
X136640726Y-85172758D01*
X137004585Y-84296487D01*
X137004751Y-84105750D01*
X150901400Y-84105750D01*
X150901400Y-84809909D01*
X150998073Y-85043298D01*
X151176701Y-85221927D01*
X151376119Y-85304529D01*
X151193179Y-85471510D01*
X150945032Y-86000973D01*
X151065531Y-86233000D01*
X152273000Y-86233000D01*
X152273000Y-83947000D01*
X152527000Y-83947000D01*
X152527000Y-86233000D01*
X154813000Y-86233000D01*
X154813000Y-83947000D01*
X155067000Y-83947000D01*
X155067000Y-86233000D01*
X156274469Y-86233000D01*
X156394968Y-86000973D01*
X156146821Y-85471510D01*
X155728848Y-85090000D01*
X156146821Y-84708490D01*
X156394968Y-84179027D01*
X156356913Y-84105750D01*
X160655000Y-84105750D01*
X160655000Y-85216310D01*
X160751673Y-85449699D01*
X160930302Y-85628327D01*
X161163691Y-85725000D01*
X162274250Y-85725000D01*
X162433000Y-85566250D01*
X162433000Y-83947000D01*
X162687000Y-83947000D01*
X162687000Y-85566250D01*
X162845750Y-85725000D01*
X163956309Y-85725000D01*
X164189698Y-85628327D01*
X164368327Y-85449699D01*
X164465000Y-85216310D01*
X164465000Y-84197265D01*
X165734670Y-84197265D01*
X166024078Y-84897686D01*
X166559495Y-85434039D01*
X167259410Y-85724668D01*
X168017265Y-85725330D01*
X168717686Y-85435922D01*
X169254039Y-84900505D01*
X169506576Y-84292325D01*
X172874587Y-84292325D01*
X173236916Y-85169229D01*
X173907242Y-85840726D01*
X174783513Y-86204585D01*
X175732325Y-86205413D01*
X176609229Y-85843084D01*
X177280726Y-85172758D01*
X177644585Y-84296487D01*
X177645413Y-83347675D01*
X177283084Y-82470771D01*
X176612758Y-81799274D01*
X175736487Y-81435415D01*
X174787675Y-81434587D01*
X173910771Y-81796916D01*
X173239274Y-82467242D01*
X172875415Y-83343513D01*
X172874587Y-84292325D01*
X169506576Y-84292325D01*
X169544668Y-84200590D01*
X169545330Y-83442735D01*
X169255922Y-82742314D01*
X168720505Y-82205961D01*
X168020590Y-81915332D01*
X167262735Y-81914670D01*
X166562314Y-82204078D01*
X166025961Y-82739495D01*
X165735332Y-83439410D01*
X165734670Y-84197265D01*
X164465000Y-84197265D01*
X164465000Y-84105750D01*
X164306250Y-83947000D01*
X162687000Y-83947000D01*
X162433000Y-83947000D01*
X160813750Y-83947000D01*
X160655000Y-84105750D01*
X156356913Y-84105750D01*
X156274469Y-83947000D01*
X155067000Y-83947000D01*
X154813000Y-83947000D01*
X152527000Y-83947000D01*
X152273000Y-83947000D01*
X151060150Y-83947000D01*
X150901400Y-84105750D01*
X137004751Y-84105750D01*
X137005413Y-83347675D01*
X136791552Y-82830091D01*
X150901400Y-82830091D01*
X150901400Y-83534250D01*
X151060150Y-83693000D01*
X152273000Y-83693000D01*
X152273000Y-82480150D01*
X152527000Y-82480150D01*
X152527000Y-83693000D01*
X154813000Y-83693000D01*
X154813000Y-82486183D01*
X155067000Y-82486183D01*
X155067000Y-83693000D01*
X156274469Y-83693000D01*
X156394968Y-83460973D01*
X156146821Y-82931510D01*
X155714947Y-82537312D01*
X155440624Y-82423690D01*
X160655000Y-82423690D01*
X160655000Y-83534250D01*
X160813750Y-83693000D01*
X162433000Y-83693000D01*
X162433000Y-82073750D01*
X162687000Y-82073750D01*
X162687000Y-83693000D01*
X164306250Y-83693000D01*
X164465000Y-83534250D01*
X164465000Y-82423690D01*
X164368327Y-82190301D01*
X164189698Y-82011673D01*
X163956309Y-81915000D01*
X162845750Y-81915000D01*
X162687000Y-82073750D01*
X162433000Y-82073750D01*
X162274250Y-81915000D01*
X161163691Y-81915000D01*
X160930302Y-82011673D01*
X160751673Y-82190301D01*
X160655000Y-82423690D01*
X155440624Y-82423690D01*
X155299026Y-82365042D01*
X155067000Y-82486183D01*
X154813000Y-82486183D01*
X154580974Y-82365042D01*
X154165053Y-82537312D01*
X153883700Y-82794120D01*
X153801927Y-82596702D01*
X153623299Y-82418073D01*
X153389910Y-82321400D01*
X152685750Y-82321400D01*
X152527000Y-82480150D01*
X152273000Y-82480150D01*
X152114250Y-82321400D01*
X151410090Y-82321400D01*
X151176701Y-82418073D01*
X150998073Y-82596702D01*
X150901400Y-82830091D01*
X136791552Y-82830091D01*
X136643084Y-82470771D01*
X135972758Y-81799274D01*
X135096487Y-81435415D01*
X134147675Y-81434587D01*
X133270771Y-81796916D01*
X132599274Y-82467242D01*
X132235415Y-83343513D01*
X132234587Y-84292325D01*
X130302000Y-84292325D01*
X130302000Y-78867000D01*
X179578000Y-78867000D01*
X179578000Y-142748000D01*
M02*
