G04 #@! TF.FileFunction,Legend,Top*
%FSLAX46Y46*%
G04 Gerber Fmt 4.6, Leading zero omitted, Abs format (unit mm)*
G04 Created by KiCad (PCBNEW 4.0.2-stable) date 9/03/2016 9:38:59 PM*
%MOMM*%
G01*
G04 APERTURE LIST*
%ADD10C,0.100000*%
%ADD11C,0.300000*%
%ADD12C,0.150000*%
G04 APERTURE END LIST*
D10*
D11*
X160698571Y-96607143D02*
X159198571Y-96607143D01*
X160698571Y-95892857D02*
X159198571Y-95892857D01*
X160698571Y-95035714D01*
X159198571Y-95035714D01*
X159198571Y-94535714D02*
X159198571Y-93678571D01*
X160698571Y-94107142D02*
X159198571Y-94107142D01*
X168727857Y-99310000D02*
X169442143Y-99310000D01*
X168585000Y-99738571D02*
X169085000Y-98238571D01*
X169585000Y-99738571D01*
X170942143Y-99738571D02*
X170442143Y-99024286D01*
X170085000Y-99738571D02*
X170085000Y-98238571D01*
X170656428Y-98238571D01*
X170799286Y-98310000D01*
X170870714Y-98381429D01*
X170942143Y-98524286D01*
X170942143Y-98738571D01*
X170870714Y-98881429D01*
X170799286Y-98952857D01*
X170656428Y-99024286D01*
X170085000Y-99024286D01*
X171585000Y-98952857D02*
X172085000Y-98952857D01*
X172299286Y-99738571D02*
X171585000Y-99738571D01*
X171585000Y-98238571D01*
X172299286Y-98238571D01*
X173442143Y-98952857D02*
X172942143Y-98952857D01*
X172942143Y-99738571D02*
X172942143Y-98238571D01*
X173656429Y-98238571D01*
X174227857Y-98952857D02*
X175370714Y-98952857D01*
X175370714Y-99381429D02*
X174227857Y-99381429D01*
X176145000Y-96480000D02*
X176145000Y-95765714D01*
X176573571Y-96622857D02*
X175073571Y-96122857D01*
X176573571Y-95622857D01*
X175073571Y-95337143D02*
X176573571Y-94837143D01*
X175073571Y-94337143D01*
X176430714Y-92980000D02*
X176502143Y-93051429D01*
X176573571Y-93265715D01*
X176573571Y-93408572D01*
X176502143Y-93622857D01*
X176359286Y-93765715D01*
X176216429Y-93837143D01*
X175930714Y-93908572D01*
X175716429Y-93908572D01*
X175430714Y-93837143D01*
X175287857Y-93765715D01*
X175145000Y-93622857D01*
X175073571Y-93408572D01*
X175073571Y-93265715D01*
X175145000Y-93051429D01*
X175216429Y-92980000D01*
X176430714Y-91480000D02*
X176502143Y-91551429D01*
X176573571Y-91765715D01*
X176573571Y-91908572D01*
X176502143Y-92122857D01*
X176359286Y-92265715D01*
X176216429Y-92337143D01*
X175930714Y-92408572D01*
X175716429Y-92408572D01*
X175430714Y-92337143D01*
X175287857Y-92265715D01*
X175145000Y-92122857D01*
X175073571Y-91908572D01*
X175073571Y-91765715D01*
X175145000Y-91551429D01*
X175216429Y-91480000D01*
X169950000Y-101492857D02*
X171092857Y-101492857D01*
X171092857Y-101921429D02*
X169950000Y-101921429D01*
X171807143Y-101492857D02*
X172950000Y-101492857D01*
X172950000Y-101921429D02*
X171807143Y-101921429D01*
X175617144Y-100778571D02*
X174902858Y-100778571D01*
X174831429Y-101492857D01*
X174902858Y-101421429D01*
X175045715Y-101350000D01*
X175402858Y-101350000D01*
X175545715Y-101421429D01*
X175617144Y-101492857D01*
X175688572Y-101635714D01*
X175688572Y-101992857D01*
X175617144Y-102135714D01*
X175545715Y-102207143D01*
X175402858Y-102278571D01*
X175045715Y-102278571D01*
X174902858Y-102207143D01*
X174831429Y-102135714D01*
X178192857Y-100850000D02*
X178050000Y-100778571D01*
X177835714Y-100778571D01*
X177621429Y-100850000D01*
X177478571Y-100992857D01*
X177407143Y-101135714D01*
X177335714Y-101421429D01*
X177335714Y-101635714D01*
X177407143Y-101921429D01*
X177478571Y-102064286D01*
X177621429Y-102207143D01*
X177835714Y-102278571D01*
X177978571Y-102278571D01*
X178192857Y-102207143D01*
X178264286Y-102135714D01*
X178264286Y-101635714D01*
X177978571Y-101635714D01*
X136930000Y-111652857D02*
X138072857Y-111652857D01*
X138072857Y-112081429D02*
X136930000Y-112081429D01*
X138787143Y-111652857D02*
X139930000Y-111652857D01*
X139930000Y-112081429D02*
X138787143Y-112081429D01*
X134977144Y-100143571D02*
X134262858Y-100143571D01*
X134191429Y-100857857D01*
X134262858Y-100786429D01*
X134405715Y-100715000D01*
X134762858Y-100715000D01*
X134905715Y-100786429D01*
X134977144Y-100857857D01*
X135048572Y-101000714D01*
X135048572Y-101357857D01*
X134977144Y-101500714D01*
X134905715Y-101572143D01*
X134762858Y-101643571D01*
X134405715Y-101643571D01*
X134262858Y-101572143D01*
X134191429Y-101500714D01*
X132472857Y-100215000D02*
X132330000Y-100143571D01*
X132115714Y-100143571D01*
X131901429Y-100215000D01*
X131758571Y-100357857D01*
X131687143Y-100500714D01*
X131615714Y-100786429D01*
X131615714Y-101000714D01*
X131687143Y-101286429D01*
X131758571Y-101429286D01*
X131901429Y-101572143D01*
X132115714Y-101643571D01*
X132258571Y-101643571D01*
X132472857Y-101572143D01*
X132544286Y-101500714D01*
X132544286Y-101000714D01*
X132258571Y-101000714D01*
X144502144Y-126178571D02*
X143787858Y-126178571D01*
X143716429Y-126892857D01*
X143787858Y-126821429D01*
X143930715Y-126750000D01*
X144287858Y-126750000D01*
X144430715Y-126821429D01*
X144502144Y-126892857D01*
X144573572Y-127035714D01*
X144573572Y-127392857D01*
X144502144Y-127535714D01*
X144430715Y-127607143D01*
X144287858Y-127678571D01*
X143930715Y-127678571D01*
X143787858Y-127607143D01*
X143716429Y-127535714D01*
X144430715Y-124138571D02*
X144430715Y-125138571D01*
X144073572Y-123567143D02*
X143716429Y-124638571D01*
X144645001Y-124638571D01*
X143645001Y-121098571D02*
X144573572Y-121098571D01*
X144073572Y-121670000D01*
X144287858Y-121670000D01*
X144430715Y-121741429D01*
X144502144Y-121812857D01*
X144573572Y-121955714D01*
X144573572Y-122312857D01*
X144502144Y-122455714D01*
X144430715Y-122527143D01*
X144287858Y-122598571D01*
X143859286Y-122598571D01*
X143716429Y-122527143D01*
X143645001Y-122455714D01*
X144192858Y-120058571D02*
X144192858Y-118558571D01*
X144764286Y-118558571D01*
X144907144Y-118630000D01*
X144978572Y-118701429D01*
X145050001Y-118844286D01*
X145050001Y-119058571D01*
X144978572Y-119201429D01*
X144907144Y-119272857D01*
X144764286Y-119344286D01*
X144192858Y-119344286D01*
X145692858Y-120058571D02*
X145692858Y-118558571D01*
X146050001Y-118558571D01*
X146264286Y-118630000D01*
X146407144Y-118772857D01*
X146478572Y-118915714D01*
X146550001Y-119201429D01*
X146550001Y-119415714D01*
X146478572Y-119701429D01*
X146407144Y-119844286D01*
X146264286Y-119987143D01*
X146050001Y-120058571D01*
X145692858Y-120058571D01*
X147121429Y-118701429D02*
X147192858Y-118630000D01*
X147335715Y-118558571D01*
X147692858Y-118558571D01*
X147835715Y-118630000D01*
X147907144Y-118701429D01*
X147978572Y-118844286D01*
X147978572Y-118987143D01*
X147907144Y-119201429D01*
X147050001Y-120058571D01*
X147978572Y-120058571D01*
X144192858Y-130218571D02*
X144192858Y-128718571D01*
X144764286Y-128718571D01*
X144907144Y-128790000D01*
X144978572Y-128861429D01*
X145050001Y-129004286D01*
X145050001Y-129218571D01*
X144978572Y-129361429D01*
X144907144Y-129432857D01*
X144764286Y-129504286D01*
X144192858Y-129504286D01*
X145692858Y-130218571D02*
X145692858Y-128718571D01*
X146050001Y-128718571D01*
X146264286Y-128790000D01*
X146407144Y-128932857D01*
X146478572Y-129075714D01*
X146550001Y-129361429D01*
X146550001Y-129575714D01*
X146478572Y-129861429D01*
X146407144Y-130004286D01*
X146264286Y-130147143D01*
X146050001Y-130218571D01*
X145692858Y-130218571D01*
X147835715Y-128718571D02*
X147550001Y-128718571D01*
X147407144Y-128790000D01*
X147335715Y-128861429D01*
X147192858Y-129075714D01*
X147121429Y-129361429D01*
X147121429Y-129932857D01*
X147192858Y-130075714D01*
X147264286Y-130147143D01*
X147407144Y-130218571D01*
X147692858Y-130218571D01*
X147835715Y-130147143D01*
X147907144Y-130075714D01*
X147978572Y-129932857D01*
X147978572Y-129575714D01*
X147907144Y-129432857D01*
X147835715Y-129361429D01*
X147692858Y-129290000D01*
X147407144Y-129290000D01*
X147264286Y-129361429D01*
X147192858Y-129432857D01*
X147121429Y-129575714D01*
X144192858Y-132758571D02*
X144192858Y-131258571D01*
X144764286Y-131258571D01*
X144907144Y-131330000D01*
X144978572Y-131401429D01*
X145050001Y-131544286D01*
X145050001Y-131758571D01*
X144978572Y-131901429D01*
X144907144Y-131972857D01*
X144764286Y-132044286D01*
X144192858Y-132044286D01*
X145692858Y-132758571D02*
X145692858Y-131258571D01*
X146050001Y-131258571D01*
X146264286Y-131330000D01*
X146407144Y-131472857D01*
X146478572Y-131615714D01*
X146550001Y-131901429D01*
X146550001Y-132115714D01*
X146478572Y-132401429D01*
X146407144Y-132544286D01*
X146264286Y-132687143D01*
X146050001Y-132758571D01*
X145692858Y-132758571D01*
X147050001Y-131258571D02*
X148050001Y-131258571D01*
X147407144Y-132758571D01*
X144192858Y-117518571D02*
X144192858Y-116018571D01*
X144764286Y-116018571D01*
X144907144Y-116090000D01*
X144978572Y-116161429D01*
X145050001Y-116304286D01*
X145050001Y-116518571D01*
X144978572Y-116661429D01*
X144907144Y-116732857D01*
X144764286Y-116804286D01*
X144192858Y-116804286D01*
X145692858Y-117518571D02*
X145692858Y-116018571D01*
X146050001Y-116018571D01*
X146264286Y-116090000D01*
X146407144Y-116232857D01*
X146478572Y-116375714D01*
X146550001Y-116661429D01*
X146550001Y-116875714D01*
X146478572Y-117161429D01*
X146407144Y-117304286D01*
X146264286Y-117447143D01*
X146050001Y-117518571D01*
X145692858Y-117518571D01*
X147978572Y-117518571D02*
X147121429Y-117518571D01*
X147550001Y-117518571D02*
X147550001Y-116018571D01*
X147407144Y-116232857D01*
X147264286Y-116375714D01*
X147121429Y-116447143D01*
X144192858Y-114978571D02*
X144192858Y-113478571D01*
X144764286Y-113478571D01*
X144907144Y-113550000D01*
X144978572Y-113621429D01*
X145050001Y-113764286D01*
X145050001Y-113978571D01*
X144978572Y-114121429D01*
X144907144Y-114192857D01*
X144764286Y-114264286D01*
X144192858Y-114264286D01*
X145692858Y-114978571D02*
X145692858Y-113478571D01*
X146050001Y-113478571D01*
X146264286Y-113550000D01*
X146407144Y-113692857D01*
X146478572Y-113835714D01*
X146550001Y-114121429D01*
X146550001Y-114335714D01*
X146478572Y-114621429D01*
X146407144Y-114764286D01*
X146264286Y-114907143D01*
X146050001Y-114978571D01*
X145692858Y-114978571D01*
X147478572Y-113478571D02*
X147621429Y-113478571D01*
X147764286Y-113550000D01*
X147835715Y-113621429D01*
X147907144Y-113764286D01*
X147978572Y-114050000D01*
X147978572Y-114407143D01*
X147907144Y-114692857D01*
X147835715Y-114835714D01*
X147764286Y-114907143D01*
X147621429Y-114978571D01*
X147478572Y-114978571D01*
X147335715Y-114907143D01*
X147264286Y-114835714D01*
X147192858Y-114692857D01*
X147121429Y-114407143D01*
X147121429Y-114050000D01*
X147192858Y-113764286D01*
X147264286Y-113621429D01*
X147335715Y-113550000D01*
X147478572Y-113478571D01*
X161337858Y-104818571D02*
X161337858Y-103318571D01*
X161909286Y-103318571D01*
X162052144Y-103390000D01*
X162123572Y-103461429D01*
X162195001Y-103604286D01*
X162195001Y-103818571D01*
X162123572Y-103961429D01*
X162052144Y-104032857D01*
X161909286Y-104104286D01*
X161337858Y-104104286D01*
X163695001Y-104675714D02*
X163623572Y-104747143D01*
X163409286Y-104818571D01*
X163266429Y-104818571D01*
X163052144Y-104747143D01*
X162909286Y-104604286D01*
X162837858Y-104461429D01*
X162766429Y-104175714D01*
X162766429Y-103961429D01*
X162837858Y-103675714D01*
X162909286Y-103532857D01*
X163052144Y-103390000D01*
X163266429Y-103318571D01*
X163409286Y-103318571D01*
X163623572Y-103390000D01*
X163695001Y-103461429D01*
X164195001Y-103318571D02*
X165123572Y-103318571D01*
X164623572Y-103890000D01*
X164837858Y-103890000D01*
X164980715Y-103961429D01*
X165052144Y-104032857D01*
X165123572Y-104175714D01*
X165123572Y-104532857D01*
X165052144Y-104675714D01*
X164980715Y-104747143D01*
X164837858Y-104818571D01*
X164409286Y-104818571D01*
X164266429Y-104747143D01*
X164195001Y-104675714D01*
X161337858Y-107358571D02*
X161337858Y-105858571D01*
X161909286Y-105858571D01*
X162052144Y-105930000D01*
X162123572Y-106001429D01*
X162195001Y-106144286D01*
X162195001Y-106358571D01*
X162123572Y-106501429D01*
X162052144Y-106572857D01*
X161909286Y-106644286D01*
X161337858Y-106644286D01*
X163695001Y-107215714D02*
X163623572Y-107287143D01*
X163409286Y-107358571D01*
X163266429Y-107358571D01*
X163052144Y-107287143D01*
X162909286Y-107144286D01*
X162837858Y-107001429D01*
X162766429Y-106715714D01*
X162766429Y-106501429D01*
X162837858Y-106215714D01*
X162909286Y-106072857D01*
X163052144Y-105930000D01*
X163266429Y-105858571D01*
X163409286Y-105858571D01*
X163623572Y-105930000D01*
X163695001Y-106001429D01*
X164266429Y-106001429D02*
X164337858Y-105930000D01*
X164480715Y-105858571D01*
X164837858Y-105858571D01*
X164980715Y-105930000D01*
X165052144Y-106001429D01*
X165123572Y-106144286D01*
X165123572Y-106287143D01*
X165052144Y-106501429D01*
X164195001Y-107358571D01*
X165123572Y-107358571D01*
X161337858Y-109898571D02*
X161337858Y-108398571D01*
X161909286Y-108398571D01*
X162052144Y-108470000D01*
X162123572Y-108541429D01*
X162195001Y-108684286D01*
X162195001Y-108898571D01*
X162123572Y-109041429D01*
X162052144Y-109112857D01*
X161909286Y-109184286D01*
X161337858Y-109184286D01*
X163695001Y-109755714D02*
X163623572Y-109827143D01*
X163409286Y-109898571D01*
X163266429Y-109898571D01*
X163052144Y-109827143D01*
X162909286Y-109684286D01*
X162837858Y-109541429D01*
X162766429Y-109255714D01*
X162766429Y-109041429D01*
X162837858Y-108755714D01*
X162909286Y-108612857D01*
X163052144Y-108470000D01*
X163266429Y-108398571D01*
X163409286Y-108398571D01*
X163623572Y-108470000D01*
X163695001Y-108541429D01*
X165123572Y-109898571D02*
X164266429Y-109898571D01*
X164695001Y-109898571D02*
X164695001Y-108398571D01*
X164552144Y-108612857D01*
X164409286Y-108755714D01*
X164266429Y-108827143D01*
X161337858Y-112438571D02*
X161337858Y-110938571D01*
X161909286Y-110938571D01*
X162052144Y-111010000D01*
X162123572Y-111081429D01*
X162195001Y-111224286D01*
X162195001Y-111438571D01*
X162123572Y-111581429D01*
X162052144Y-111652857D01*
X161909286Y-111724286D01*
X161337858Y-111724286D01*
X163695001Y-112295714D02*
X163623572Y-112367143D01*
X163409286Y-112438571D01*
X163266429Y-112438571D01*
X163052144Y-112367143D01*
X162909286Y-112224286D01*
X162837858Y-112081429D01*
X162766429Y-111795714D01*
X162766429Y-111581429D01*
X162837858Y-111295714D01*
X162909286Y-111152857D01*
X163052144Y-111010000D01*
X163266429Y-110938571D01*
X163409286Y-110938571D01*
X163623572Y-111010000D01*
X163695001Y-111081429D01*
X164623572Y-110938571D02*
X164766429Y-110938571D01*
X164909286Y-111010000D01*
X164980715Y-111081429D01*
X165052144Y-111224286D01*
X165123572Y-111510000D01*
X165123572Y-111867143D01*
X165052144Y-112152857D01*
X164980715Y-112295714D01*
X164909286Y-112367143D01*
X164766429Y-112438571D01*
X164623572Y-112438571D01*
X164480715Y-112367143D01*
X164409286Y-112295714D01*
X164337858Y-112152857D01*
X164266429Y-111867143D01*
X164266429Y-111510000D01*
X164337858Y-111224286D01*
X164409286Y-111081429D01*
X164480715Y-111010000D01*
X164623572Y-110938571D01*
X161337858Y-114978571D02*
X161337858Y-113478571D01*
X161909286Y-113478571D01*
X162052144Y-113550000D01*
X162123572Y-113621429D01*
X162195001Y-113764286D01*
X162195001Y-113978571D01*
X162123572Y-114121429D01*
X162052144Y-114192857D01*
X161909286Y-114264286D01*
X161337858Y-114264286D01*
X163337858Y-114192857D02*
X163552144Y-114264286D01*
X163623572Y-114335714D01*
X163695001Y-114478571D01*
X163695001Y-114692857D01*
X163623572Y-114835714D01*
X163552144Y-114907143D01*
X163409286Y-114978571D01*
X162837858Y-114978571D01*
X162837858Y-113478571D01*
X163337858Y-113478571D01*
X163480715Y-113550000D01*
X163552144Y-113621429D01*
X163623572Y-113764286D01*
X163623572Y-113907143D01*
X163552144Y-114050000D01*
X163480715Y-114121429D01*
X163337858Y-114192857D01*
X162837858Y-114192857D01*
X164195001Y-113478571D02*
X165195001Y-113478571D01*
X164552144Y-114978571D01*
X161337858Y-117518571D02*
X161337858Y-116018571D01*
X161909286Y-116018571D01*
X162052144Y-116090000D01*
X162123572Y-116161429D01*
X162195001Y-116304286D01*
X162195001Y-116518571D01*
X162123572Y-116661429D01*
X162052144Y-116732857D01*
X161909286Y-116804286D01*
X161337858Y-116804286D01*
X163337858Y-116732857D02*
X163552144Y-116804286D01*
X163623572Y-116875714D01*
X163695001Y-117018571D01*
X163695001Y-117232857D01*
X163623572Y-117375714D01*
X163552144Y-117447143D01*
X163409286Y-117518571D01*
X162837858Y-117518571D01*
X162837858Y-116018571D01*
X163337858Y-116018571D01*
X163480715Y-116090000D01*
X163552144Y-116161429D01*
X163623572Y-116304286D01*
X163623572Y-116447143D01*
X163552144Y-116590000D01*
X163480715Y-116661429D01*
X163337858Y-116732857D01*
X162837858Y-116732857D01*
X164980715Y-116018571D02*
X164695001Y-116018571D01*
X164552144Y-116090000D01*
X164480715Y-116161429D01*
X164337858Y-116375714D01*
X164266429Y-116661429D01*
X164266429Y-117232857D01*
X164337858Y-117375714D01*
X164409286Y-117447143D01*
X164552144Y-117518571D01*
X164837858Y-117518571D01*
X164980715Y-117447143D01*
X165052144Y-117375714D01*
X165123572Y-117232857D01*
X165123572Y-116875714D01*
X165052144Y-116732857D01*
X164980715Y-116661429D01*
X164837858Y-116590000D01*
X164552144Y-116590000D01*
X164409286Y-116661429D01*
X164337858Y-116732857D01*
X164266429Y-116875714D01*
X161337858Y-120058571D02*
X161337858Y-118558571D01*
X161909286Y-118558571D01*
X162052144Y-118630000D01*
X162123572Y-118701429D01*
X162195001Y-118844286D01*
X162195001Y-119058571D01*
X162123572Y-119201429D01*
X162052144Y-119272857D01*
X161909286Y-119344286D01*
X161337858Y-119344286D01*
X163337858Y-119272857D02*
X163552144Y-119344286D01*
X163623572Y-119415714D01*
X163695001Y-119558571D01*
X163695001Y-119772857D01*
X163623572Y-119915714D01*
X163552144Y-119987143D01*
X163409286Y-120058571D01*
X162837858Y-120058571D01*
X162837858Y-118558571D01*
X163337858Y-118558571D01*
X163480715Y-118630000D01*
X163552144Y-118701429D01*
X163623572Y-118844286D01*
X163623572Y-118987143D01*
X163552144Y-119130000D01*
X163480715Y-119201429D01*
X163337858Y-119272857D01*
X162837858Y-119272857D01*
X165052144Y-118558571D02*
X164337858Y-118558571D01*
X164266429Y-119272857D01*
X164337858Y-119201429D01*
X164480715Y-119130000D01*
X164837858Y-119130000D01*
X164980715Y-119201429D01*
X165052144Y-119272857D01*
X165123572Y-119415714D01*
X165123572Y-119772857D01*
X165052144Y-119915714D01*
X164980715Y-119987143D01*
X164837858Y-120058571D01*
X164480715Y-120058571D01*
X164337858Y-119987143D01*
X164266429Y-119915714D01*
X161337858Y-122598571D02*
X161337858Y-121098571D01*
X161909286Y-121098571D01*
X162052144Y-121170000D01*
X162123572Y-121241429D01*
X162195001Y-121384286D01*
X162195001Y-121598571D01*
X162123572Y-121741429D01*
X162052144Y-121812857D01*
X161909286Y-121884286D01*
X161337858Y-121884286D01*
X163337858Y-121812857D02*
X163552144Y-121884286D01*
X163623572Y-121955714D01*
X163695001Y-122098571D01*
X163695001Y-122312857D01*
X163623572Y-122455714D01*
X163552144Y-122527143D01*
X163409286Y-122598571D01*
X162837858Y-122598571D01*
X162837858Y-121098571D01*
X163337858Y-121098571D01*
X163480715Y-121170000D01*
X163552144Y-121241429D01*
X163623572Y-121384286D01*
X163623572Y-121527143D01*
X163552144Y-121670000D01*
X163480715Y-121741429D01*
X163337858Y-121812857D01*
X162837858Y-121812857D01*
X164980715Y-121598571D02*
X164980715Y-122598571D01*
X164623572Y-121027143D02*
X164266429Y-122098571D01*
X165195001Y-122098571D01*
X161337858Y-125138571D02*
X161337858Y-123638571D01*
X161909286Y-123638571D01*
X162052144Y-123710000D01*
X162123572Y-123781429D01*
X162195001Y-123924286D01*
X162195001Y-124138571D01*
X162123572Y-124281429D01*
X162052144Y-124352857D01*
X161909286Y-124424286D01*
X161337858Y-124424286D01*
X163337858Y-124352857D02*
X163552144Y-124424286D01*
X163623572Y-124495714D01*
X163695001Y-124638571D01*
X163695001Y-124852857D01*
X163623572Y-124995714D01*
X163552144Y-125067143D01*
X163409286Y-125138571D01*
X162837858Y-125138571D01*
X162837858Y-123638571D01*
X163337858Y-123638571D01*
X163480715Y-123710000D01*
X163552144Y-123781429D01*
X163623572Y-123924286D01*
X163623572Y-124067143D01*
X163552144Y-124210000D01*
X163480715Y-124281429D01*
X163337858Y-124352857D01*
X162837858Y-124352857D01*
X164195001Y-123638571D02*
X165123572Y-123638571D01*
X164623572Y-124210000D01*
X164837858Y-124210000D01*
X164980715Y-124281429D01*
X165052144Y-124352857D01*
X165123572Y-124495714D01*
X165123572Y-124852857D01*
X165052144Y-124995714D01*
X164980715Y-125067143D01*
X164837858Y-125138571D01*
X164409286Y-125138571D01*
X164266429Y-125067143D01*
X164195001Y-124995714D01*
X161337858Y-127678571D02*
X161337858Y-126178571D01*
X161909286Y-126178571D01*
X162052144Y-126250000D01*
X162123572Y-126321429D01*
X162195001Y-126464286D01*
X162195001Y-126678571D01*
X162123572Y-126821429D01*
X162052144Y-126892857D01*
X161909286Y-126964286D01*
X161337858Y-126964286D01*
X163337858Y-126892857D02*
X163552144Y-126964286D01*
X163623572Y-127035714D01*
X163695001Y-127178571D01*
X163695001Y-127392857D01*
X163623572Y-127535714D01*
X163552144Y-127607143D01*
X163409286Y-127678571D01*
X162837858Y-127678571D01*
X162837858Y-126178571D01*
X163337858Y-126178571D01*
X163480715Y-126250000D01*
X163552144Y-126321429D01*
X163623572Y-126464286D01*
X163623572Y-126607143D01*
X163552144Y-126750000D01*
X163480715Y-126821429D01*
X163337858Y-126892857D01*
X162837858Y-126892857D01*
X164266429Y-126321429D02*
X164337858Y-126250000D01*
X164480715Y-126178571D01*
X164837858Y-126178571D01*
X164980715Y-126250000D01*
X165052144Y-126321429D01*
X165123572Y-126464286D01*
X165123572Y-126607143D01*
X165052144Y-126821429D01*
X164195001Y-127678571D01*
X165123572Y-127678571D01*
X161337858Y-130218571D02*
X161337858Y-128718571D01*
X161909286Y-128718571D01*
X162052144Y-128790000D01*
X162123572Y-128861429D01*
X162195001Y-129004286D01*
X162195001Y-129218571D01*
X162123572Y-129361429D01*
X162052144Y-129432857D01*
X161909286Y-129504286D01*
X161337858Y-129504286D01*
X163337858Y-129432857D02*
X163552144Y-129504286D01*
X163623572Y-129575714D01*
X163695001Y-129718571D01*
X163695001Y-129932857D01*
X163623572Y-130075714D01*
X163552144Y-130147143D01*
X163409286Y-130218571D01*
X162837858Y-130218571D01*
X162837858Y-128718571D01*
X163337858Y-128718571D01*
X163480715Y-128790000D01*
X163552144Y-128861429D01*
X163623572Y-129004286D01*
X163623572Y-129147143D01*
X163552144Y-129290000D01*
X163480715Y-129361429D01*
X163337858Y-129432857D01*
X162837858Y-129432857D01*
X165123572Y-130218571D02*
X164266429Y-130218571D01*
X164695001Y-130218571D02*
X164695001Y-128718571D01*
X164552144Y-128932857D01*
X164409286Y-129075714D01*
X164266429Y-129147143D01*
X161337858Y-132758571D02*
X161337858Y-131258571D01*
X161909286Y-131258571D01*
X162052144Y-131330000D01*
X162123572Y-131401429D01*
X162195001Y-131544286D01*
X162195001Y-131758571D01*
X162123572Y-131901429D01*
X162052144Y-131972857D01*
X161909286Y-132044286D01*
X161337858Y-132044286D01*
X163337858Y-131972857D02*
X163552144Y-132044286D01*
X163623572Y-132115714D01*
X163695001Y-132258571D01*
X163695001Y-132472857D01*
X163623572Y-132615714D01*
X163552144Y-132687143D01*
X163409286Y-132758571D01*
X162837858Y-132758571D01*
X162837858Y-131258571D01*
X163337858Y-131258571D01*
X163480715Y-131330000D01*
X163552144Y-131401429D01*
X163623572Y-131544286D01*
X163623572Y-131687143D01*
X163552144Y-131830000D01*
X163480715Y-131901429D01*
X163337858Y-131972857D01*
X162837858Y-131972857D01*
X164623572Y-131258571D02*
X164766429Y-131258571D01*
X164909286Y-131330000D01*
X164980715Y-131401429D01*
X165052144Y-131544286D01*
X165123572Y-131830000D01*
X165123572Y-132187143D01*
X165052144Y-132472857D01*
X164980715Y-132615714D01*
X164909286Y-132687143D01*
X164766429Y-132758571D01*
X164623572Y-132758571D01*
X164480715Y-132687143D01*
X164409286Y-132615714D01*
X164337858Y-132472857D01*
X164266429Y-132187143D01*
X164266429Y-131830000D01*
X164337858Y-131544286D01*
X164409286Y-131401429D01*
X164480715Y-131330000D01*
X164623572Y-131258571D01*
X159742144Y-82998571D02*
X159027858Y-82998571D01*
X158956429Y-83712857D01*
X159027858Y-83641429D01*
X159170715Y-83570000D01*
X159527858Y-83570000D01*
X159670715Y-83641429D01*
X159742144Y-83712857D01*
X159813572Y-83855714D01*
X159813572Y-84212857D01*
X159742144Y-84355714D01*
X159670715Y-84427143D01*
X159527858Y-84498571D01*
X159170715Y-84498571D01*
X159027858Y-84427143D01*
X158956429Y-84355714D01*
X170743572Y-82998571D02*
X170886429Y-82998571D01*
X171029286Y-83070000D01*
X171100715Y-83141429D01*
X171172144Y-83284286D01*
X171243572Y-83570000D01*
X171243572Y-83927143D01*
X171172144Y-84212857D01*
X171100715Y-84355714D01*
X171029286Y-84427143D01*
X170886429Y-84498571D01*
X170743572Y-84498571D01*
X170600715Y-84427143D01*
X170529286Y-84355714D01*
X170457858Y-84212857D01*
X170386429Y-83927143D01*
X170386429Y-83570000D01*
X170457858Y-83284286D01*
X170529286Y-83141429D01*
X170600715Y-83070000D01*
X170743572Y-82998571D01*
X138684286Y-102048571D02*
X139184286Y-103548571D01*
X139684286Y-102048571D01*
X140970000Y-103548571D02*
X140112857Y-103548571D01*
X140541429Y-103548571D02*
X140541429Y-102048571D01*
X140398572Y-102262857D01*
X140255714Y-102405714D01*
X140112857Y-102477143D01*
X141612857Y-103405714D02*
X141684285Y-103477143D01*
X141612857Y-103548571D01*
X141541428Y-103477143D01*
X141612857Y-103405714D01*
X141612857Y-103548571D01*
X142612857Y-102048571D02*
X142755714Y-102048571D01*
X142898571Y-102120000D01*
X142970000Y-102191429D01*
X143041429Y-102334286D01*
X143112857Y-102620000D01*
X143112857Y-102977143D01*
X143041429Y-103262857D01*
X142970000Y-103405714D01*
X142898571Y-103477143D01*
X142755714Y-103548571D01*
X142612857Y-103548571D01*
X142470000Y-103477143D01*
X142398571Y-103405714D01*
X142327143Y-103262857D01*
X142255714Y-102977143D01*
X142255714Y-102620000D01*
X142327143Y-102334286D01*
X142398571Y-102191429D01*
X142470000Y-102120000D01*
X142612857Y-102048571D01*
X135612857Y-98110000D02*
X136327143Y-98110000D01*
X135470000Y-98538571D02*
X135970000Y-97038571D01*
X136470000Y-98538571D01*
X136970000Y-98395714D02*
X137041428Y-98467143D01*
X136970000Y-98538571D01*
X136898571Y-98467143D01*
X136970000Y-98395714D01*
X136970000Y-98538571D01*
X137541429Y-97038571D02*
X137898572Y-98538571D01*
X138184286Y-97467143D01*
X138470000Y-98538571D01*
X138827143Y-97038571D01*
X139398572Y-98538571D02*
X139398572Y-97538571D01*
X139398572Y-97038571D02*
X139327143Y-97110000D01*
X139398572Y-97181429D01*
X139470000Y-97110000D01*
X139398572Y-97038571D01*
X139398572Y-97181429D01*
X140327144Y-98538571D02*
X140184286Y-98467143D01*
X140112858Y-98324286D01*
X140112858Y-97038571D01*
X141112858Y-98538571D02*
X140970000Y-98467143D01*
X140898572Y-98324286D01*
X140898572Y-97038571D01*
X141684286Y-98538571D02*
X141684286Y-97538571D01*
X141684286Y-97038571D02*
X141612857Y-97110000D01*
X141684286Y-97181429D01*
X141755714Y-97110000D01*
X141684286Y-97038571D01*
X141684286Y-97181429D01*
X143041429Y-98538571D02*
X143041429Y-97752857D01*
X142970000Y-97610000D01*
X142827143Y-97538571D01*
X142541429Y-97538571D01*
X142398572Y-97610000D01*
X143041429Y-98467143D02*
X142898572Y-98538571D01*
X142541429Y-98538571D01*
X142398572Y-98467143D01*
X142327143Y-98324286D01*
X142327143Y-98181429D01*
X142398572Y-98038571D01*
X142541429Y-97967143D01*
X142898572Y-97967143D01*
X143041429Y-97895714D01*
X143755715Y-98538571D02*
X143755715Y-97538571D01*
X143755715Y-97681429D02*
X143827143Y-97610000D01*
X143970001Y-97538571D01*
X144184286Y-97538571D01*
X144327143Y-97610000D01*
X144398572Y-97752857D01*
X144398572Y-98538571D01*
X144398572Y-97752857D02*
X144470001Y-97610000D01*
X144612858Y-97538571D01*
X144827143Y-97538571D01*
X144970001Y-97610000D01*
X145041429Y-97752857D01*
X145041429Y-98538571D01*
X145684286Y-98467143D02*
X145827143Y-98538571D01*
X146112858Y-98538571D01*
X146255715Y-98467143D01*
X146327143Y-98324286D01*
X146327143Y-98252857D01*
X146255715Y-98110000D01*
X146112858Y-98038571D01*
X145898572Y-98038571D01*
X145755715Y-97967143D01*
X145684286Y-97824286D01*
X145684286Y-97752857D01*
X145755715Y-97610000D01*
X145898572Y-97538571D01*
X146112858Y-97538571D01*
X146255715Y-97610000D01*
X138398572Y-99581429D02*
X138470001Y-99510000D01*
X138612858Y-99438571D01*
X138970001Y-99438571D01*
X139112858Y-99510000D01*
X139184287Y-99581429D01*
X139255715Y-99724286D01*
X139255715Y-99867143D01*
X139184287Y-100081429D01*
X138327144Y-100938571D01*
X139255715Y-100938571D01*
X140184286Y-99438571D02*
X140327143Y-99438571D01*
X140470000Y-99510000D01*
X140541429Y-99581429D01*
X140612858Y-99724286D01*
X140684286Y-100010000D01*
X140684286Y-100367143D01*
X140612858Y-100652857D01*
X140541429Y-100795714D01*
X140470000Y-100867143D01*
X140327143Y-100938571D01*
X140184286Y-100938571D01*
X140041429Y-100867143D01*
X139970000Y-100795714D01*
X139898572Y-100652857D01*
X139827143Y-100367143D01*
X139827143Y-100010000D01*
X139898572Y-99724286D01*
X139970000Y-99581429D01*
X140041429Y-99510000D01*
X140184286Y-99438571D01*
X142112857Y-100938571D02*
X141255714Y-100938571D01*
X141684286Y-100938571D02*
X141684286Y-99438571D01*
X141541429Y-99652857D01*
X141398571Y-99795714D01*
X141255714Y-99867143D01*
X143398571Y-99438571D02*
X143112857Y-99438571D01*
X142970000Y-99510000D01*
X142898571Y-99581429D01*
X142755714Y-99795714D01*
X142684285Y-100081429D01*
X142684285Y-100652857D01*
X142755714Y-100795714D01*
X142827142Y-100867143D01*
X142970000Y-100938571D01*
X143255714Y-100938571D01*
X143398571Y-100867143D01*
X143470000Y-100795714D01*
X143541428Y-100652857D01*
X143541428Y-100295714D01*
X143470000Y-100152857D01*
X143398571Y-100081429D01*
X143255714Y-100010000D01*
X142970000Y-100010000D01*
X142827142Y-100081429D01*
X142755714Y-100152857D01*
X142684285Y-100295714D01*
X136434286Y-95928571D02*
X136434286Y-94428571D01*
X137434286Y-94428571D02*
X137720000Y-94428571D01*
X137862858Y-94500000D01*
X138005715Y-94642857D01*
X138077143Y-94928571D01*
X138077143Y-95428571D01*
X138005715Y-95714286D01*
X137862858Y-95857143D01*
X137720000Y-95928571D01*
X137434286Y-95928571D01*
X137291429Y-95857143D01*
X137148572Y-95714286D01*
X137077143Y-95428571D01*
X137077143Y-94928571D01*
X137148572Y-94642857D01*
X137291429Y-94500000D01*
X137434286Y-94428571D01*
X139862858Y-95928571D02*
X139862858Y-94428571D01*
X139862858Y-95000000D02*
X140005715Y-94928571D01*
X140291429Y-94928571D01*
X140434286Y-95000000D01*
X140505715Y-95071429D01*
X140577144Y-95214286D01*
X140577144Y-95642857D01*
X140505715Y-95785714D01*
X140434286Y-95857143D01*
X140291429Y-95928571D01*
X140005715Y-95928571D01*
X139862858Y-95857143D01*
X141434287Y-95928571D02*
X141291429Y-95857143D01*
X141220001Y-95785714D01*
X141148572Y-95642857D01*
X141148572Y-95214286D01*
X141220001Y-95071429D01*
X141291429Y-95000000D01*
X141434287Y-94928571D01*
X141648572Y-94928571D01*
X141791429Y-95000000D01*
X141862858Y-95071429D01*
X141934287Y-95214286D01*
X141934287Y-95642857D01*
X141862858Y-95785714D01*
X141791429Y-95857143D01*
X141648572Y-95928571D01*
X141434287Y-95928571D01*
X143220001Y-95928571D02*
X143220001Y-95142857D01*
X143148572Y-95000000D01*
X143005715Y-94928571D01*
X142720001Y-94928571D01*
X142577144Y-95000000D01*
X143220001Y-95857143D02*
X143077144Y-95928571D01*
X142720001Y-95928571D01*
X142577144Y-95857143D01*
X142505715Y-95714286D01*
X142505715Y-95571429D01*
X142577144Y-95428571D01*
X142720001Y-95357143D01*
X143077144Y-95357143D01*
X143220001Y-95285714D01*
X143934287Y-95928571D02*
X143934287Y-94928571D01*
X143934287Y-95214286D02*
X144005715Y-95071429D01*
X144077144Y-95000000D01*
X144220001Y-94928571D01*
X144362858Y-94928571D01*
X145505715Y-95928571D02*
X145505715Y-94428571D01*
X145505715Y-95857143D02*
X145362858Y-95928571D01*
X145077144Y-95928571D01*
X144934286Y-95857143D01*
X144862858Y-95785714D01*
X144791429Y-95642857D01*
X144791429Y-95214286D01*
X144862858Y-95071429D01*
X144934286Y-95000000D01*
X145077144Y-94928571D01*
X145362858Y-94928571D01*
X145505715Y-95000000D01*
X139910715Y-84427143D02*
X139767858Y-84498571D01*
X139482144Y-84498571D01*
X139339286Y-84427143D01*
X139267858Y-84355714D01*
X139196429Y-84212857D01*
X139196429Y-83784286D01*
X139267858Y-83641429D01*
X139339286Y-83570000D01*
X139482144Y-83498571D01*
X139767858Y-83498571D01*
X139910715Y-83570000D01*
X140767858Y-84498571D02*
X140625000Y-84427143D01*
X140553572Y-84355714D01*
X140482143Y-84212857D01*
X140482143Y-83784286D01*
X140553572Y-83641429D01*
X140625000Y-83570000D01*
X140767858Y-83498571D01*
X140982143Y-83498571D01*
X141125000Y-83570000D01*
X141196429Y-83641429D01*
X141267858Y-83784286D01*
X141267858Y-84212857D01*
X141196429Y-84355714D01*
X141125000Y-84427143D01*
X140982143Y-84498571D01*
X140767858Y-84498571D01*
X141910715Y-83498571D02*
X141910715Y-84498571D01*
X141910715Y-83641429D02*
X141982143Y-83570000D01*
X142125001Y-83498571D01*
X142339286Y-83498571D01*
X142482143Y-83570000D01*
X142553572Y-83712857D01*
X142553572Y-84498571D01*
X143053572Y-83498571D02*
X143625001Y-83498571D01*
X143267858Y-82998571D02*
X143267858Y-84284286D01*
X143339286Y-84427143D01*
X143482144Y-84498571D01*
X143625001Y-84498571D01*
X144125001Y-84498571D02*
X144125001Y-83498571D01*
X144125001Y-83784286D02*
X144196429Y-83641429D01*
X144267858Y-83570000D01*
X144410715Y-83498571D01*
X144553572Y-83498571D01*
X145267858Y-84498571D02*
X145125000Y-84427143D01*
X145053572Y-84355714D01*
X144982143Y-84212857D01*
X144982143Y-83784286D01*
X145053572Y-83641429D01*
X145125000Y-83570000D01*
X145267858Y-83498571D01*
X145482143Y-83498571D01*
X145625000Y-83570000D01*
X145696429Y-83641429D01*
X145767858Y-83784286D01*
X145767858Y-84212857D01*
X145696429Y-84355714D01*
X145625000Y-84427143D01*
X145482143Y-84498571D01*
X145267858Y-84498571D01*
X146625001Y-84498571D02*
X146482143Y-84427143D01*
X146410715Y-84284286D01*
X146410715Y-82998571D01*
X139089285Y-82593571D02*
X139089285Y-81093571D01*
X139589285Y-82165000D01*
X140089285Y-81093571D01*
X140089285Y-82593571D01*
X140803571Y-82593571D02*
X140803571Y-81593571D01*
X140803571Y-81093571D02*
X140732142Y-81165000D01*
X140803571Y-81236429D01*
X140874999Y-81165000D01*
X140803571Y-81093571D01*
X140803571Y-81236429D01*
X141446428Y-82522143D02*
X141589285Y-82593571D01*
X141875000Y-82593571D01*
X142017857Y-82522143D01*
X142089285Y-82379286D01*
X142089285Y-82307857D01*
X142017857Y-82165000D01*
X141875000Y-82093571D01*
X141660714Y-82093571D01*
X141517857Y-82022143D01*
X141446428Y-81879286D01*
X141446428Y-81807857D01*
X141517857Y-81665000D01*
X141660714Y-81593571D01*
X141875000Y-81593571D01*
X142017857Y-81665000D01*
X142660714Y-82522143D02*
X142803571Y-82593571D01*
X143089286Y-82593571D01*
X143232143Y-82522143D01*
X143303571Y-82379286D01*
X143303571Y-82307857D01*
X143232143Y-82165000D01*
X143089286Y-82093571D01*
X142875000Y-82093571D01*
X142732143Y-82022143D01*
X142660714Y-81879286D01*
X142660714Y-81807857D01*
X142732143Y-81665000D01*
X142875000Y-81593571D01*
X143089286Y-81593571D01*
X143232143Y-81665000D01*
X143946429Y-82593571D02*
X143946429Y-81593571D01*
X143946429Y-81093571D02*
X143875000Y-81165000D01*
X143946429Y-81236429D01*
X144017857Y-81165000D01*
X143946429Y-81093571D01*
X143946429Y-81236429D01*
X144875001Y-82593571D02*
X144732143Y-82522143D01*
X144660715Y-82450714D01*
X144589286Y-82307857D01*
X144589286Y-81879286D01*
X144660715Y-81736429D01*
X144732143Y-81665000D01*
X144875001Y-81593571D01*
X145089286Y-81593571D01*
X145232143Y-81665000D01*
X145303572Y-81736429D01*
X145375001Y-81879286D01*
X145375001Y-82307857D01*
X145303572Y-82450714D01*
X145232143Y-82522143D01*
X145089286Y-82593571D01*
X144875001Y-82593571D01*
X146017858Y-81593571D02*
X146017858Y-82593571D01*
X146017858Y-81736429D02*
X146089286Y-81665000D01*
X146232144Y-81593571D01*
X146446429Y-81593571D01*
X146589286Y-81665000D01*
X146660715Y-81807857D01*
X146660715Y-82593571D01*
D12*
X143469000Y-89975000D02*
X138471000Y-89975000D01*
X143461000Y-90115000D02*
X141124000Y-90115000D01*
X140816000Y-90115000D02*
X138479000Y-90115000D01*
X143445000Y-90255000D02*
X141443000Y-90255000D01*
X140497000Y-90255000D02*
X138495000Y-90255000D01*
X143421000Y-90395000D02*
X141590000Y-90395000D01*
X140350000Y-90395000D02*
X138519000Y-90395000D01*
X143388000Y-90535000D02*
X141682000Y-90535000D01*
X140258000Y-90535000D02*
X138552000Y-90535000D01*
X143347000Y-90675000D02*
X141738000Y-90675000D01*
X140202000Y-90675000D02*
X138593000Y-90675000D01*
X143297000Y-90815000D02*
X141765000Y-90815000D01*
X140175000Y-90815000D02*
X138643000Y-90815000D01*
X143236000Y-90955000D02*
X141768000Y-90955000D01*
X140172000Y-90955000D02*
X138704000Y-90955000D01*
X143166000Y-91095000D02*
X141746000Y-91095000D01*
X140194000Y-91095000D02*
X138774000Y-91095000D01*
X143084000Y-91235000D02*
X141696000Y-91235000D01*
X140244000Y-91235000D02*
X138856000Y-91235000D01*
X142989000Y-91375000D02*
X141614000Y-91375000D01*
X140326000Y-91375000D02*
X138951000Y-91375000D01*
X142878000Y-91515000D02*
X141482000Y-91515000D01*
X140458000Y-91515000D02*
X139062000Y-91515000D01*
X142750000Y-91655000D02*
X141235000Y-91655000D01*
X140705000Y-91655000D02*
X139190000Y-91655000D01*
X142601000Y-91795000D02*
X139339000Y-91795000D01*
X142422000Y-91935000D02*
X139518000Y-91935000D01*
X142203000Y-92075000D02*
X139737000Y-92075000D01*
X141914000Y-92215000D02*
X140026000Y-92215000D01*
X141442000Y-92355000D02*
X140498000Y-92355000D01*
X141770000Y-90900000D02*
G75*
G03X141770000Y-90900000I-800000J0D01*
G01*
X143507500Y-89900000D02*
G75*
G03X143507500Y-89900000I-2537500J0D01*
G01*
X147050000Y-120920000D02*
X147050000Y-127920000D01*
X147050000Y-127920000D02*
X145050000Y-127920000D01*
X145050000Y-127920000D02*
X145050000Y-120920000D01*
X145050000Y-120920000D02*
X147050000Y-120920000D01*
X174990000Y-93710000D02*
X167990000Y-93710000D01*
X167990000Y-93710000D02*
X167990000Y-91710000D01*
X167990000Y-91710000D02*
X174990000Y-91710000D01*
X174990000Y-91710000D02*
X174990000Y-93710000D01*
X149995000Y-104385000D02*
X149995000Y-105655000D01*
X157345000Y-104385000D02*
X157345000Y-105655000D01*
X157345000Y-141995000D02*
X157345000Y-140725000D01*
X149995000Y-141995000D02*
X149995000Y-140725000D01*
X149995000Y-104385000D02*
X157345000Y-104385000D01*
X149995000Y-141995000D02*
X157345000Y-141995000D01*
X149995000Y-105655000D02*
X148710000Y-105655000D01*
X170180000Y-86360000D02*
X160020000Y-86360000D01*
X170180000Y-87630000D02*
X170180000Y-80010000D01*
X170180000Y-80010000D02*
X160020000Y-80010000D01*
X160020000Y-80010000D02*
X160020000Y-87630000D01*
X160020000Y-87630000D02*
X170180000Y-87630000D01*
X158220000Y-78740000D02*
X158220000Y-101600000D01*
X157670000Y-79280000D02*
X157670000Y-101040000D01*
X149120000Y-78740000D02*
X149120000Y-101600000D01*
X149670000Y-79280000D02*
X149670000Y-87920000D01*
X149670000Y-92420000D02*
X149670000Y-101040000D01*
X149670000Y-87920000D02*
X149120000Y-87920000D01*
X149670000Y-92420000D02*
X149120000Y-92420000D01*
X158220000Y-78740000D02*
X149120000Y-78740000D01*
X157670000Y-79280000D02*
X149670000Y-79280000D01*
X158220000Y-101600000D02*
X149120000Y-101600000D01*
X157670000Y-101040000D02*
X149670000Y-101040000D01*
X158220000Y-78740000D02*
X157670000Y-79280000D01*
X158220000Y-101600000D02*
X157670000Y-101040000D01*
X149120000Y-78740000D02*
X149670000Y-79280000D01*
X149120000Y-101600000D02*
X149670000Y-101040000D01*
X171450000Y-95250000D02*
X173990000Y-95250000D01*
X168630000Y-94970000D02*
X170180000Y-94970000D01*
X171450000Y-95250000D02*
X171450000Y-97790000D01*
X170180000Y-98070000D02*
X168630000Y-98070000D01*
X168630000Y-98070000D02*
X168630000Y-94970000D01*
X171450000Y-97790000D02*
X173990000Y-97790000D01*
X173990000Y-97790000D02*
X173990000Y-95250000D01*
X179070000Y-105410000D02*
X179070000Y-133350000D01*
X179070000Y-133350000D02*
X176530000Y-133350000D01*
X176530000Y-133350000D02*
X176530000Y-105410000D01*
X179350000Y-102590000D02*
X179350000Y-104140000D01*
X179070000Y-105410000D02*
X176530000Y-105410000D01*
X176250000Y-104140000D02*
X176250000Y-102590000D01*
X176250000Y-102590000D02*
X179350000Y-102590000D01*
X176530000Y-105410000D02*
X176530000Y-133350000D01*
X176530000Y-133350000D02*
X173990000Y-133350000D01*
X173990000Y-133350000D02*
X173990000Y-105410000D01*
X176810000Y-102590000D02*
X176810000Y-104140000D01*
X176530000Y-105410000D02*
X173990000Y-105410000D01*
X173710000Y-104140000D02*
X173710000Y-102590000D01*
X173710000Y-102590000D02*
X176810000Y-102590000D01*
X140970000Y-115570000D02*
X140970000Y-133350000D01*
X140970000Y-133350000D02*
X138430000Y-133350000D01*
X138430000Y-133350000D02*
X138430000Y-115570000D01*
X141250000Y-112750000D02*
X141250000Y-114300000D01*
X140970000Y-115570000D02*
X138430000Y-115570000D01*
X138150000Y-114300000D02*
X138150000Y-112750000D01*
X138150000Y-112750000D02*
X141250000Y-112750000D01*
X138430000Y-115570000D02*
X138430000Y-133350000D01*
X138430000Y-133350000D02*
X135890000Y-133350000D01*
X135890000Y-133350000D02*
X135890000Y-115570000D01*
X138710000Y-112750000D02*
X138710000Y-114300000D01*
X138430000Y-115570000D02*
X135890000Y-115570000D01*
X135610000Y-114300000D02*
X135610000Y-112750000D01*
X135610000Y-112750000D02*
X138710000Y-112750000D01*
X143510000Y-115570000D02*
X143510000Y-133350000D01*
X143510000Y-133350000D02*
X140970000Y-133350000D01*
X140970000Y-133350000D02*
X140970000Y-115570000D01*
X143790000Y-112750000D02*
X143790000Y-114300000D01*
X143510000Y-115570000D02*
X140970000Y-115570000D01*
X140690000Y-114300000D02*
X140690000Y-112750000D01*
X140690000Y-112750000D02*
X143790000Y-112750000D01*
X168910000Y-105410000D02*
X168910000Y-133350000D01*
X168910000Y-133350000D02*
X166370000Y-133350000D01*
X166370000Y-133350000D02*
X166370000Y-105410000D01*
X169190000Y-102590000D02*
X169190000Y-104140000D01*
X168910000Y-105410000D02*
X166370000Y-105410000D01*
X166090000Y-104140000D02*
X166090000Y-102590000D01*
X166090000Y-102590000D02*
X169190000Y-102590000D01*
X171450000Y-105410000D02*
X171450000Y-133350000D01*
X171450000Y-133350000D02*
X168910000Y-133350000D01*
X168910000Y-133350000D02*
X168910000Y-105410000D01*
X171730000Y-102590000D02*
X171730000Y-104140000D01*
X171450000Y-105410000D02*
X168910000Y-105410000D01*
X168630000Y-104140000D02*
X168630000Y-102590000D01*
X168630000Y-102590000D02*
X171730000Y-102590000D01*
X173990000Y-105410000D02*
X173990000Y-133350000D01*
X173990000Y-133350000D02*
X171450000Y-133350000D01*
X171450000Y-133350000D02*
X171450000Y-105410000D01*
X174270000Y-102590000D02*
X174270000Y-104140000D01*
X173990000Y-105410000D02*
X171450000Y-105410000D01*
X171170000Y-104140000D02*
X171170000Y-102590000D01*
X171170000Y-102590000D02*
X174270000Y-102590000D01*
X135890000Y-105410000D02*
X135890000Y-133350000D01*
X135890000Y-133350000D02*
X133350000Y-133350000D01*
X133350000Y-133350000D02*
X133350000Y-105410000D01*
X136170000Y-102590000D02*
X136170000Y-104140000D01*
X135890000Y-105410000D02*
X133350000Y-105410000D01*
X133070000Y-104140000D02*
X133070000Y-102590000D01*
X133070000Y-102590000D02*
X136170000Y-102590000D01*
X179070000Y-97790000D02*
X179070000Y-90170000D01*
X176530000Y-97790000D02*
X176530000Y-90170000D01*
X176250000Y-100610000D02*
X176250000Y-99060000D01*
X179070000Y-90170000D02*
X176530000Y-90170000D01*
X176530000Y-97790000D02*
X179070000Y-97790000D01*
X179350000Y-99060000D02*
X179350000Y-100610000D01*
X179350000Y-100610000D02*
X176250000Y-100610000D01*
X133350000Y-105410000D02*
X133350000Y-133350000D01*
X133350000Y-133350000D02*
X130810000Y-133350000D01*
X130810000Y-133350000D02*
X130810000Y-105410000D01*
X133630000Y-102590000D02*
X133630000Y-104140000D01*
X133350000Y-105410000D02*
X130810000Y-105410000D01*
X130530000Y-104140000D02*
X130530000Y-102590000D01*
X130530000Y-102590000D02*
X133630000Y-102590000D01*
X161290000Y-95250000D02*
X161290000Y-92710000D01*
X161010000Y-98070000D02*
X161010000Y-96520000D01*
X161290000Y-95250000D02*
X163830000Y-95250000D01*
X164110000Y-96520000D02*
X164110000Y-98070000D01*
X164110000Y-98070000D02*
X161010000Y-98070000D01*
X163830000Y-95250000D02*
X163830000Y-92710000D01*
X163830000Y-92710000D02*
X161290000Y-92710000D01*
X166370000Y-88265000D02*
X171450000Y-88265000D01*
X171450000Y-88265000D02*
X171450000Y-90805000D01*
X171450000Y-90805000D02*
X166370000Y-90805000D01*
X166370000Y-90805000D02*
X166370000Y-88265000D01*
X166370000Y-89535000D02*
X165100000Y-89535000D01*
X171450000Y-89535000D02*
X172720000Y-89535000D01*
X140803334Y-86717143D02*
X140755715Y-86764762D01*
X140612858Y-86812381D01*
X140517620Y-86812381D01*
X140374762Y-86764762D01*
X140279524Y-86669524D01*
X140231905Y-86574286D01*
X140184286Y-86383810D01*
X140184286Y-86240952D01*
X140231905Y-86050476D01*
X140279524Y-85955238D01*
X140374762Y-85860000D01*
X140517620Y-85812381D01*
X140612858Y-85812381D01*
X140755715Y-85860000D01*
X140803334Y-85907619D01*
X141755715Y-86812381D02*
X141184286Y-86812381D01*
X141470000Y-86812381D02*
X141470000Y-85812381D01*
X141374762Y-85955238D01*
X141279524Y-86050476D01*
X141184286Y-86098095D01*
X148312143Y-125261666D02*
X148359762Y-125309285D01*
X148407381Y-125452142D01*
X148407381Y-125547380D01*
X148359762Y-125690238D01*
X148264524Y-125785476D01*
X148169286Y-125833095D01*
X147978810Y-125880714D01*
X147835952Y-125880714D01*
X147645476Y-125833095D01*
X147550238Y-125785476D01*
X147455000Y-125690238D01*
X147407381Y-125547380D01*
X147407381Y-125452142D01*
X147455000Y-125309285D01*
X147502619Y-125261666D01*
X147502619Y-124880714D02*
X147455000Y-124833095D01*
X147407381Y-124737857D01*
X147407381Y-124499761D01*
X147455000Y-124404523D01*
X147502619Y-124356904D01*
X147597857Y-124309285D01*
X147693095Y-124309285D01*
X147835952Y-124356904D01*
X148407381Y-124928333D01*
X148407381Y-124309285D01*
X166203334Y-93067143D02*
X166155715Y-93114762D01*
X166012858Y-93162381D01*
X165917620Y-93162381D01*
X165774762Y-93114762D01*
X165679524Y-93019524D01*
X165631905Y-92924286D01*
X165584286Y-92733810D01*
X165584286Y-92590952D01*
X165631905Y-92400476D01*
X165679524Y-92305238D01*
X165774762Y-92210000D01*
X165917620Y-92162381D01*
X166012858Y-92162381D01*
X166155715Y-92210000D01*
X166203334Y-92257619D01*
X166536667Y-92162381D02*
X167155715Y-92162381D01*
X166822381Y-92543333D01*
X166965239Y-92543333D01*
X167060477Y-92590952D01*
X167108096Y-92638571D01*
X167155715Y-92733810D01*
X167155715Y-92971905D01*
X167108096Y-93067143D01*
X167060477Y-93114762D01*
X166965239Y-93162381D01*
X166679524Y-93162381D01*
X166584286Y-93114762D01*
X166536667Y-93067143D01*
X152693810Y-103957381D02*
X152693810Y-102957381D01*
X153741429Y-103862143D02*
X153693810Y-103909762D01*
X153550953Y-103957381D01*
X153455715Y-103957381D01*
X153312857Y-103909762D01*
X153217619Y-103814524D01*
X153170000Y-103719286D01*
X153122381Y-103528810D01*
X153122381Y-103385952D01*
X153170000Y-103195476D01*
X153217619Y-103100238D01*
X153312857Y-103005000D01*
X153455715Y-102957381D01*
X153550953Y-102957381D01*
X153693810Y-103005000D01*
X153741429Y-103052619D01*
X154693810Y-103957381D02*
X154122381Y-103957381D01*
X154408095Y-103957381D02*
X154408095Y-102957381D01*
X154312857Y-103100238D01*
X154217619Y-103195476D01*
X154122381Y-103243095D01*
X164361905Y-79827381D02*
X164361905Y-78827381D01*
X164742858Y-78827381D01*
X164838096Y-78875000D01*
X164885715Y-78922619D01*
X164933334Y-79017857D01*
X164933334Y-79160714D01*
X164885715Y-79255952D01*
X164838096Y-79303571D01*
X164742858Y-79351190D01*
X164361905Y-79351190D01*
X165885715Y-79827381D02*
X165314286Y-79827381D01*
X165600000Y-79827381D02*
X165600000Y-78827381D01*
X165504762Y-78970238D01*
X165409524Y-79065476D01*
X165314286Y-79113095D01*
X147216905Y-86177381D02*
X147216905Y-85177381D01*
X147597858Y-85177381D01*
X147693096Y-85225000D01*
X147740715Y-85272619D01*
X147788334Y-85367857D01*
X147788334Y-85510714D01*
X147740715Y-85605952D01*
X147693096Y-85653571D01*
X147597858Y-85701190D01*
X147216905Y-85701190D01*
X148169286Y-85272619D02*
X148216905Y-85225000D01*
X148312143Y-85177381D01*
X148550239Y-85177381D01*
X148645477Y-85225000D01*
X148693096Y-85272619D01*
X148740715Y-85367857D01*
X148740715Y-85463095D01*
X148693096Y-85605952D01*
X148121667Y-86177381D01*
X148740715Y-86177381D01*
X166266905Y-96972381D02*
X166266905Y-95972381D01*
X166647858Y-95972381D01*
X166743096Y-96020000D01*
X166790715Y-96067619D01*
X166838334Y-96162857D01*
X166838334Y-96305714D01*
X166790715Y-96400952D01*
X166743096Y-96448571D01*
X166647858Y-96496190D01*
X166266905Y-96496190D01*
X167171667Y-95972381D02*
X167790715Y-95972381D01*
X167457381Y-96353333D01*
X167600239Y-96353333D01*
X167695477Y-96400952D01*
X167743096Y-96448571D01*
X167790715Y-96543810D01*
X167790715Y-96781905D01*
X167743096Y-96877143D01*
X167695477Y-96924762D01*
X167600239Y-96972381D01*
X167314524Y-96972381D01*
X167219286Y-96924762D01*
X167171667Y-96877143D01*
X178887381Y-135358095D02*
X177887381Y-135358095D01*
X177887381Y-134977142D01*
X177935000Y-134881904D01*
X177982619Y-134834285D01*
X178077857Y-134786666D01*
X178220714Y-134786666D01*
X178315952Y-134834285D01*
X178363571Y-134881904D01*
X178411190Y-134977142D01*
X178411190Y-135358095D01*
X178220714Y-133929523D02*
X178887381Y-133929523D01*
X177839762Y-134167619D02*
X178554048Y-134405714D01*
X178554048Y-133786666D01*
X175712381Y-135358095D02*
X174712381Y-135358095D01*
X174712381Y-134977142D01*
X174760000Y-134881904D01*
X174807619Y-134834285D01*
X174902857Y-134786666D01*
X175045714Y-134786666D01*
X175140952Y-134834285D01*
X175188571Y-134881904D01*
X175236190Y-134977142D01*
X175236190Y-135358095D01*
X174712381Y-133881904D02*
X174712381Y-134358095D01*
X175188571Y-134405714D01*
X175140952Y-134358095D01*
X175093333Y-134262857D01*
X175093333Y-134024761D01*
X175140952Y-133929523D01*
X175188571Y-133881904D01*
X175283810Y-133834285D01*
X175521905Y-133834285D01*
X175617143Y-133881904D01*
X175664762Y-133929523D01*
X175712381Y-134024761D01*
X175712381Y-134262857D01*
X175664762Y-134358095D01*
X175617143Y-134405714D01*
X140152381Y-135358095D02*
X139152381Y-135358095D01*
X139152381Y-134977142D01*
X139200000Y-134881904D01*
X139247619Y-134834285D01*
X139342857Y-134786666D01*
X139485714Y-134786666D01*
X139580952Y-134834285D01*
X139628571Y-134881904D01*
X139676190Y-134977142D01*
X139676190Y-135358095D01*
X139152381Y-133929523D02*
X139152381Y-134120000D01*
X139200000Y-134215238D01*
X139247619Y-134262857D01*
X139390476Y-134358095D01*
X139580952Y-134405714D01*
X139961905Y-134405714D01*
X140057143Y-134358095D01*
X140104762Y-134310476D01*
X140152381Y-134215238D01*
X140152381Y-134024761D01*
X140104762Y-133929523D01*
X140057143Y-133881904D01*
X139961905Y-133834285D01*
X139723810Y-133834285D01*
X139628571Y-133881904D01*
X139580952Y-133929523D01*
X139533333Y-134024761D01*
X139533333Y-134215238D01*
X139580952Y-134310476D01*
X139628571Y-134358095D01*
X139723810Y-134405714D01*
X137612381Y-135358095D02*
X136612381Y-135358095D01*
X136612381Y-134977142D01*
X136660000Y-134881904D01*
X136707619Y-134834285D01*
X136802857Y-134786666D01*
X136945714Y-134786666D01*
X137040952Y-134834285D01*
X137088571Y-134881904D01*
X137136190Y-134977142D01*
X137136190Y-135358095D01*
X136612381Y-134453333D02*
X136612381Y-133786666D01*
X137612381Y-134215238D01*
X142692381Y-135358095D02*
X141692381Y-135358095D01*
X141692381Y-134977142D01*
X141740000Y-134881904D01*
X141787619Y-134834285D01*
X141882857Y-134786666D01*
X142025714Y-134786666D01*
X142120952Y-134834285D01*
X142168571Y-134881904D01*
X142216190Y-134977142D01*
X142216190Y-135358095D01*
X142120952Y-134215238D02*
X142073333Y-134310476D01*
X142025714Y-134358095D01*
X141930476Y-134405714D01*
X141882857Y-134405714D01*
X141787619Y-134358095D01*
X141740000Y-134310476D01*
X141692381Y-134215238D01*
X141692381Y-134024761D01*
X141740000Y-133929523D01*
X141787619Y-133881904D01*
X141882857Y-133834285D01*
X141930476Y-133834285D01*
X142025714Y-133881904D01*
X142073333Y-133929523D01*
X142120952Y-134024761D01*
X142120952Y-134215238D01*
X142168571Y-134310476D01*
X142216190Y-134358095D01*
X142311429Y-134405714D01*
X142501905Y-134405714D01*
X142597143Y-134358095D01*
X142644762Y-134310476D01*
X142692381Y-134215238D01*
X142692381Y-134024761D01*
X142644762Y-133929523D01*
X142597143Y-133881904D01*
X142501905Y-133834285D01*
X142311429Y-133834285D01*
X142216190Y-133881904D01*
X142168571Y-133929523D01*
X142120952Y-134024761D01*
X168092381Y-135993095D02*
X167092381Y-135993095D01*
X167092381Y-135612142D01*
X167140000Y-135516904D01*
X167187619Y-135469285D01*
X167282857Y-135421666D01*
X167425714Y-135421666D01*
X167520952Y-135469285D01*
X167568571Y-135516904D01*
X167616190Y-135612142D01*
X167616190Y-135993095D01*
X168092381Y-134945476D02*
X168092381Y-134755000D01*
X168044762Y-134659761D01*
X167997143Y-134612142D01*
X167854286Y-134516904D01*
X167663810Y-134469285D01*
X167282857Y-134469285D01*
X167187619Y-134516904D01*
X167140000Y-134564523D01*
X167092381Y-134659761D01*
X167092381Y-134850238D01*
X167140000Y-134945476D01*
X167187619Y-134993095D01*
X167282857Y-135040714D01*
X167520952Y-135040714D01*
X167616190Y-134993095D01*
X167663810Y-134945476D01*
X167711429Y-134850238D01*
X167711429Y-134659761D01*
X167663810Y-134564523D01*
X167616190Y-134516904D01*
X167520952Y-134469285D01*
X170632381Y-136469286D02*
X169632381Y-136469286D01*
X169632381Y-136088333D01*
X169680000Y-135993095D01*
X169727619Y-135945476D01*
X169822857Y-135897857D01*
X169965714Y-135897857D01*
X170060952Y-135945476D01*
X170108571Y-135993095D01*
X170156190Y-136088333D01*
X170156190Y-136469286D01*
X170632381Y-134945476D02*
X170632381Y-135516905D01*
X170632381Y-135231191D02*
X169632381Y-135231191D01*
X169775238Y-135326429D01*
X169870476Y-135421667D01*
X169918095Y-135516905D01*
X169632381Y-134326429D02*
X169632381Y-134231190D01*
X169680000Y-134135952D01*
X169727619Y-134088333D01*
X169822857Y-134040714D01*
X170013333Y-133993095D01*
X170251429Y-133993095D01*
X170441905Y-134040714D01*
X170537143Y-134088333D01*
X170584762Y-134135952D01*
X170632381Y-134231190D01*
X170632381Y-134326429D01*
X170584762Y-134421667D01*
X170537143Y-134469286D01*
X170441905Y-134516905D01*
X170251429Y-134564524D01*
X170013333Y-134564524D01*
X169822857Y-134516905D01*
X169727619Y-134469286D01*
X169680000Y-134421667D01*
X169632381Y-134326429D01*
X173172381Y-136469286D02*
X172172381Y-136469286D01*
X172172381Y-136088333D01*
X172220000Y-135993095D01*
X172267619Y-135945476D01*
X172362857Y-135897857D01*
X172505714Y-135897857D01*
X172600952Y-135945476D01*
X172648571Y-135993095D01*
X172696190Y-136088333D01*
X172696190Y-136469286D01*
X173172381Y-134945476D02*
X173172381Y-135516905D01*
X173172381Y-135231191D02*
X172172381Y-135231191D01*
X172315238Y-135326429D01*
X172410476Y-135421667D01*
X172458095Y-135516905D01*
X173172381Y-133993095D02*
X173172381Y-134564524D01*
X173172381Y-134278810D02*
X172172381Y-134278810D01*
X172315238Y-134374048D01*
X172410476Y-134469286D01*
X172458095Y-134564524D01*
X133405714Y-134437381D02*
X133405714Y-133437381D01*
X133786667Y-133437381D01*
X133881905Y-133485000D01*
X133929524Y-133532619D01*
X133977143Y-133627857D01*
X133977143Y-133770714D01*
X133929524Y-133865952D01*
X133881905Y-133913571D01*
X133786667Y-133961190D01*
X133405714Y-133961190D01*
X134929524Y-134437381D02*
X134358095Y-134437381D01*
X134643809Y-134437381D02*
X134643809Y-133437381D01*
X134548571Y-133580238D01*
X134453333Y-133675476D01*
X134358095Y-133723095D01*
X135310476Y-133532619D02*
X135358095Y-133485000D01*
X135453333Y-133437381D01*
X135691429Y-133437381D01*
X135786667Y-133485000D01*
X135834286Y-133532619D01*
X135881905Y-133627857D01*
X135881905Y-133723095D01*
X135834286Y-133865952D01*
X135262857Y-134437381D01*
X135881905Y-134437381D01*
X176585714Y-89352381D02*
X176585714Y-88352381D01*
X176966667Y-88352381D01*
X177061905Y-88400000D01*
X177109524Y-88447619D01*
X177157143Y-88542857D01*
X177157143Y-88685714D01*
X177109524Y-88780952D01*
X177061905Y-88828571D01*
X176966667Y-88876190D01*
X176585714Y-88876190D01*
X178109524Y-89352381D02*
X177538095Y-89352381D01*
X177823809Y-89352381D02*
X177823809Y-88352381D01*
X177728571Y-88495238D01*
X177633333Y-88590476D01*
X177538095Y-88638095D01*
X178442857Y-88352381D02*
X179061905Y-88352381D01*
X178728571Y-88733333D01*
X178871429Y-88733333D01*
X178966667Y-88780952D01*
X179014286Y-88828571D01*
X179061905Y-88923810D01*
X179061905Y-89161905D01*
X179014286Y-89257143D01*
X178966667Y-89304762D01*
X178871429Y-89352381D01*
X178585714Y-89352381D01*
X178490476Y-89304762D01*
X178442857Y-89257143D01*
X130230714Y-135072381D02*
X130230714Y-134072381D01*
X130611667Y-134072381D01*
X130706905Y-134120000D01*
X130754524Y-134167619D01*
X130802143Y-134262857D01*
X130802143Y-134405714D01*
X130754524Y-134500952D01*
X130706905Y-134548571D01*
X130611667Y-134596190D01*
X130230714Y-134596190D01*
X131754524Y-135072381D02*
X131183095Y-135072381D01*
X131468809Y-135072381D02*
X131468809Y-134072381D01*
X131373571Y-134215238D01*
X131278333Y-134310476D01*
X131183095Y-134358095D01*
X132611667Y-134405714D02*
X132611667Y-135072381D01*
X132373571Y-134024762D02*
X132135476Y-134739048D01*
X132754524Y-134739048D01*
X161345714Y-99512381D02*
X161345714Y-98512381D01*
X161726667Y-98512381D01*
X161821905Y-98560000D01*
X161869524Y-98607619D01*
X161917143Y-98702857D01*
X161917143Y-98845714D01*
X161869524Y-98940952D01*
X161821905Y-98988571D01*
X161726667Y-99036190D01*
X161345714Y-99036190D01*
X162869524Y-99512381D02*
X162298095Y-99512381D01*
X162583809Y-99512381D02*
X162583809Y-98512381D01*
X162488571Y-98655238D01*
X162393333Y-98750476D01*
X162298095Y-98798095D01*
X163774286Y-98512381D02*
X163298095Y-98512381D01*
X163250476Y-98988571D01*
X163298095Y-98940952D01*
X163393333Y-98893333D01*
X163631429Y-98893333D01*
X163726667Y-98940952D01*
X163774286Y-98988571D01*
X163821905Y-99083810D01*
X163821905Y-99321905D01*
X163774286Y-99417143D01*
X163726667Y-99464762D01*
X163631429Y-99512381D01*
X163393333Y-99512381D01*
X163298095Y-99464762D01*
X163250476Y-99417143D01*
X133405714Y-83637381D02*
X133405714Y-82637381D01*
X133786667Y-82637381D01*
X133881905Y-82685000D01*
X133929524Y-82732619D01*
X133977143Y-82827857D01*
X133977143Y-82970714D01*
X133929524Y-83065952D01*
X133881905Y-83113571D01*
X133786667Y-83161190D01*
X133405714Y-83161190D01*
X134929524Y-83637381D02*
X134358095Y-83637381D01*
X134643809Y-83637381D02*
X134643809Y-82637381D01*
X134548571Y-82780238D01*
X134453333Y-82875476D01*
X134358095Y-82923095D01*
X135786667Y-82637381D02*
X135596190Y-82637381D01*
X135500952Y-82685000D01*
X135453333Y-82732619D01*
X135358095Y-82875476D01*
X135310476Y-83065952D01*
X135310476Y-83446905D01*
X135358095Y-83542143D01*
X135405714Y-83589762D01*
X135500952Y-83637381D01*
X135691429Y-83637381D01*
X135786667Y-83589762D01*
X135834286Y-83542143D01*
X135881905Y-83446905D01*
X135881905Y-83208810D01*
X135834286Y-83113571D01*
X135786667Y-83065952D01*
X135691429Y-83018333D01*
X135500952Y-83018333D01*
X135405714Y-83065952D01*
X135358095Y-83113571D01*
X135310476Y-83208810D01*
X174045714Y-84272381D02*
X174045714Y-83272381D01*
X174426667Y-83272381D01*
X174521905Y-83320000D01*
X174569524Y-83367619D01*
X174617143Y-83462857D01*
X174617143Y-83605714D01*
X174569524Y-83700952D01*
X174521905Y-83748571D01*
X174426667Y-83796190D01*
X174045714Y-83796190D01*
X175569524Y-84272381D02*
X174998095Y-84272381D01*
X175283809Y-84272381D02*
X175283809Y-83272381D01*
X175188571Y-83415238D01*
X175093333Y-83510476D01*
X174998095Y-83558095D01*
X176140952Y-83700952D02*
X176045714Y-83653333D01*
X175998095Y-83605714D01*
X175950476Y-83510476D01*
X175950476Y-83462857D01*
X175998095Y-83367619D01*
X176045714Y-83320000D01*
X176140952Y-83272381D01*
X176331429Y-83272381D01*
X176426667Y-83320000D01*
X176474286Y-83367619D01*
X176521905Y-83462857D01*
X176521905Y-83510476D01*
X176474286Y-83605714D01*
X176426667Y-83653333D01*
X176331429Y-83700952D01*
X176140952Y-83700952D01*
X176045714Y-83748571D01*
X175998095Y-83796190D01*
X175950476Y-83891429D01*
X175950476Y-84081905D01*
X175998095Y-84177143D01*
X176045714Y-84224762D01*
X176140952Y-84272381D01*
X176331429Y-84272381D01*
X176426667Y-84224762D01*
X176474286Y-84177143D01*
X176521905Y-84081905D01*
X176521905Y-83891429D01*
X176474286Y-83796190D01*
X176426667Y-83748571D01*
X176331429Y-83700952D01*
X133405714Y-138882381D02*
X133405714Y-137882381D01*
X133786667Y-137882381D01*
X133881905Y-137930000D01*
X133929524Y-137977619D01*
X133977143Y-138072857D01*
X133977143Y-138215714D01*
X133929524Y-138310952D01*
X133881905Y-138358571D01*
X133786667Y-138406190D01*
X133405714Y-138406190D01*
X134929524Y-138882381D02*
X134358095Y-138882381D01*
X134643809Y-138882381D02*
X134643809Y-137882381D01*
X134548571Y-138025238D01*
X134453333Y-138120476D01*
X134358095Y-138168095D01*
X135405714Y-138882381D02*
X135596190Y-138882381D01*
X135691429Y-138834762D01*
X135739048Y-138787143D01*
X135834286Y-138644286D01*
X135881905Y-138453810D01*
X135881905Y-138072857D01*
X135834286Y-137977619D01*
X135786667Y-137930000D01*
X135691429Y-137882381D01*
X135500952Y-137882381D01*
X135405714Y-137930000D01*
X135358095Y-137977619D01*
X135310476Y-138072857D01*
X135310476Y-138310952D01*
X135358095Y-138406190D01*
X135405714Y-138453810D01*
X135500952Y-138501429D01*
X135691429Y-138501429D01*
X135786667Y-138453810D01*
X135834286Y-138406190D01*
X135881905Y-138310952D01*
X165568334Y-91892381D02*
X165235000Y-91416190D01*
X164996905Y-91892381D02*
X164996905Y-90892381D01*
X165377858Y-90892381D01*
X165473096Y-90940000D01*
X165520715Y-90987619D01*
X165568334Y-91082857D01*
X165568334Y-91225714D01*
X165520715Y-91320952D01*
X165473096Y-91368571D01*
X165377858Y-91416190D01*
X164996905Y-91416190D01*
X166520715Y-91892381D02*
X165949286Y-91892381D01*
X166235000Y-91892381D02*
X166235000Y-90892381D01*
X166139762Y-91035238D01*
X166044524Y-91130476D01*
X165949286Y-91178095D01*
X174045714Y-138882381D02*
X174045714Y-137882381D01*
X174426667Y-137882381D01*
X174521905Y-137930000D01*
X174569524Y-137977619D01*
X174617143Y-138072857D01*
X174617143Y-138215714D01*
X174569524Y-138310952D01*
X174521905Y-138358571D01*
X174426667Y-138406190D01*
X174045714Y-138406190D01*
X175569524Y-138882381D02*
X174998095Y-138882381D01*
X175283809Y-138882381D02*
X175283809Y-137882381D01*
X175188571Y-138025238D01*
X175093333Y-138120476D01*
X174998095Y-138168095D01*
X175902857Y-137882381D02*
X176569524Y-137882381D01*
X176140952Y-138882381D01*
M02*
