G04 #@! TF.FileFunction,Copper,L2,Bot,Signal*
%FSLAX46Y46*%
G04 Gerber Fmt 4.6, Leading zero omitted, Abs format (unit mm)*
G04 Created by KiCad (PCBNEW 4.0.2-stable) date 9/03/2016 9:38:59 PM*
%MOMM*%
G01*
G04 APERTURE LIST*
%ADD10C,0.100000*%
%ADD11C,0.300000*%
%ADD12R,1.300000X1.300000*%
%ADD13C,1.300000*%
%ADD14O,2.300000X1.600000*%
%ADD15R,2.540000X2.540000*%
%ADD16C,2.540000*%
%ADD17R,1.727200X1.727200*%
%ADD18O,1.727200X1.727200*%
%ADD19R,2.032000X2.032000*%
%ADD20O,2.032000X2.032000*%
%ADD21R,2.032000X1.727200*%
%ADD22O,2.032000X1.727200*%
%ADD23C,1.998980*%
%ADD24C,1.270000*%
%ADD25C,0.508000*%
%ADD26C,0.254000*%
G04 APERTURE END LIST*
D10*
D11*
X145311428Y-140870714D02*
X145382857Y-140942143D01*
X145597143Y-141013571D01*
X145740000Y-141013571D01*
X145954285Y-140942143D01*
X146097143Y-140799286D01*
X146168571Y-140656429D01*
X146240000Y-140370714D01*
X146240000Y-140156429D01*
X146168571Y-139870714D01*
X146097143Y-139727857D01*
X145954285Y-139585000D01*
X145740000Y-139513571D01*
X145597143Y-139513571D01*
X145382857Y-139585000D01*
X145311428Y-139656429D01*
X144025714Y-140013571D02*
X144025714Y-141013571D01*
X144668571Y-140013571D02*
X144668571Y-140799286D01*
X144597143Y-140942143D01*
X144454285Y-141013571D01*
X144240000Y-141013571D01*
X144097143Y-140942143D01*
X144025714Y-140870714D01*
X142240000Y-140942143D02*
X142097143Y-141013571D01*
X141811428Y-141013571D01*
X141668571Y-140942143D01*
X141597143Y-140799286D01*
X141597143Y-140727857D01*
X141668571Y-140585000D01*
X141811428Y-140513571D01*
X142025714Y-140513571D01*
X142168571Y-140442143D01*
X142240000Y-140299286D01*
X142240000Y-140227857D01*
X142168571Y-140085000D01*
X142025714Y-140013571D01*
X141811428Y-140013571D01*
X141668571Y-140085000D01*
X140954285Y-141013571D02*
X140954285Y-140013571D01*
X140954285Y-139513571D02*
X141025714Y-139585000D01*
X140954285Y-139656429D01*
X140882857Y-139585000D01*
X140954285Y-139513571D01*
X140954285Y-139656429D01*
X139597142Y-141013571D02*
X139597142Y-139513571D01*
X139597142Y-140942143D02*
X139739999Y-141013571D01*
X140025713Y-141013571D01*
X140168571Y-140942143D01*
X140239999Y-140870714D01*
X140311428Y-140727857D01*
X140311428Y-140299286D01*
X140239999Y-140156429D01*
X140168571Y-140085000D01*
X140025713Y-140013571D01*
X139739999Y-140013571D01*
X139597142Y-140085000D01*
X138311428Y-140942143D02*
X138454285Y-141013571D01*
X138739999Y-141013571D01*
X138882856Y-140942143D01*
X138954285Y-140799286D01*
X138954285Y-140227857D01*
X138882856Y-140085000D01*
X138739999Y-140013571D01*
X138454285Y-140013571D01*
X138311428Y-140085000D01*
X138239999Y-140227857D01*
X138239999Y-140370714D01*
X138954285Y-140513571D01*
D12*
X140970000Y-88900000D03*
D13*
X140970000Y-90900000D03*
D12*
X146050000Y-121920000D03*
D13*
X146050000Y-126920000D03*
D12*
X173990000Y-92710000D03*
D13*
X168990000Y-92710000D03*
D14*
X149860000Y-106680000D03*
X149860000Y-109220000D03*
X149860000Y-111760000D03*
X149860000Y-114300000D03*
X149860000Y-116840000D03*
X149860000Y-119380000D03*
X149860000Y-121920000D03*
X149860000Y-124460000D03*
X149860000Y-127000000D03*
X149860000Y-129540000D03*
X149860000Y-132080000D03*
X149860000Y-134620000D03*
X149860000Y-137160000D03*
X149860000Y-139700000D03*
X157480000Y-139700000D03*
X157480000Y-137160000D03*
X157480000Y-134620000D03*
X157480000Y-132080000D03*
X157480000Y-129540000D03*
X157480000Y-127000000D03*
X157480000Y-124460000D03*
X157480000Y-121920000D03*
X157480000Y-119380000D03*
X157480000Y-116840000D03*
X157480000Y-114300000D03*
X157480000Y-111760000D03*
X157480000Y-109220000D03*
X157480000Y-106680000D03*
D15*
X162560000Y-83820000D03*
D16*
X167640000Y-83820000D03*
D17*
X152400000Y-83820000D03*
D18*
X154940000Y-83820000D03*
X152400000Y-86360000D03*
X154940000Y-86360000D03*
X152400000Y-88900000D03*
X154940000Y-88900000D03*
X152400000Y-91440000D03*
X154940000Y-91440000D03*
X152400000Y-93980000D03*
X154940000Y-93980000D03*
X152400000Y-96520000D03*
X154940000Y-96520000D03*
D19*
X170180000Y-96520000D03*
D20*
X172720000Y-96520000D03*
D21*
X177800000Y-104140000D03*
D22*
X177800000Y-106680000D03*
X177800000Y-109220000D03*
X177800000Y-111760000D03*
X177800000Y-114300000D03*
X177800000Y-116840000D03*
X177800000Y-119380000D03*
X177800000Y-121920000D03*
X177800000Y-124460000D03*
X177800000Y-127000000D03*
X177800000Y-129540000D03*
X177800000Y-132080000D03*
D21*
X175260000Y-104140000D03*
D22*
X175260000Y-106680000D03*
X175260000Y-109220000D03*
X175260000Y-111760000D03*
X175260000Y-114300000D03*
X175260000Y-116840000D03*
X175260000Y-119380000D03*
X175260000Y-121920000D03*
X175260000Y-124460000D03*
X175260000Y-127000000D03*
X175260000Y-129540000D03*
X175260000Y-132080000D03*
D21*
X139700000Y-114300000D03*
D22*
X139700000Y-116840000D03*
X139700000Y-119380000D03*
X139700000Y-121920000D03*
X139700000Y-124460000D03*
X139700000Y-127000000D03*
X139700000Y-129540000D03*
X139700000Y-132080000D03*
D21*
X137160000Y-114300000D03*
D22*
X137160000Y-116840000D03*
X137160000Y-119380000D03*
X137160000Y-121920000D03*
X137160000Y-124460000D03*
X137160000Y-127000000D03*
X137160000Y-129540000D03*
X137160000Y-132080000D03*
D21*
X142240000Y-114300000D03*
D22*
X142240000Y-116840000D03*
X142240000Y-119380000D03*
X142240000Y-121920000D03*
X142240000Y-124460000D03*
X142240000Y-127000000D03*
X142240000Y-129540000D03*
X142240000Y-132080000D03*
D21*
X167640000Y-104140000D03*
D22*
X167640000Y-106680000D03*
X167640000Y-109220000D03*
X167640000Y-111760000D03*
X167640000Y-114300000D03*
X167640000Y-116840000D03*
X167640000Y-119380000D03*
X167640000Y-121920000D03*
X167640000Y-124460000D03*
X167640000Y-127000000D03*
X167640000Y-129540000D03*
X167640000Y-132080000D03*
D21*
X170180000Y-104140000D03*
D22*
X170180000Y-106680000D03*
X170180000Y-109220000D03*
X170180000Y-111760000D03*
X170180000Y-114300000D03*
X170180000Y-116840000D03*
X170180000Y-119380000D03*
X170180000Y-121920000D03*
X170180000Y-124460000D03*
X170180000Y-127000000D03*
X170180000Y-129540000D03*
X170180000Y-132080000D03*
D21*
X172720000Y-104140000D03*
D22*
X172720000Y-106680000D03*
X172720000Y-109220000D03*
X172720000Y-111760000D03*
X172720000Y-114300000D03*
X172720000Y-116840000D03*
X172720000Y-119380000D03*
X172720000Y-121920000D03*
X172720000Y-124460000D03*
X172720000Y-127000000D03*
X172720000Y-129540000D03*
X172720000Y-132080000D03*
D21*
X134620000Y-104140000D03*
D22*
X134620000Y-106680000D03*
X134620000Y-109220000D03*
X134620000Y-111760000D03*
X134620000Y-114300000D03*
X134620000Y-116840000D03*
X134620000Y-119380000D03*
X134620000Y-121920000D03*
X134620000Y-124460000D03*
X134620000Y-127000000D03*
X134620000Y-129540000D03*
X134620000Y-132080000D03*
D21*
X177800000Y-99060000D03*
D22*
X177800000Y-96520000D03*
X177800000Y-93980000D03*
X177800000Y-91440000D03*
D21*
X132080000Y-104140000D03*
D22*
X132080000Y-106680000D03*
X132080000Y-109220000D03*
X132080000Y-111760000D03*
X132080000Y-114300000D03*
X132080000Y-116840000D03*
X132080000Y-119380000D03*
X132080000Y-121920000D03*
X132080000Y-124460000D03*
X132080000Y-127000000D03*
X132080000Y-129540000D03*
X132080000Y-132080000D03*
D19*
X162560000Y-96520000D03*
D20*
X162560000Y-93980000D03*
D23*
X163830000Y-89535000D03*
X173990000Y-89535000D03*
D24*
X173990000Y-91440000D02*
X177800000Y-91440000D01*
X173990000Y-89535000D02*
X173990000Y-91440000D01*
X173990000Y-91440000D02*
X173990000Y-92710000D01*
X172720000Y-96520000D02*
X177800000Y-96520000D01*
X177800000Y-96520000D02*
X177800000Y-99060000D01*
X177800000Y-93980000D02*
X177800000Y-96520000D01*
X177800000Y-91440000D02*
X177800000Y-93980000D01*
D25*
X142240000Y-114300000D02*
X147320000Y-109220000D01*
X147320000Y-109220000D02*
X149860000Y-109220000D01*
X142240000Y-116840000D02*
X142875000Y-116840000D01*
X142875000Y-116840000D02*
X147955000Y-111760000D01*
X147955000Y-111760000D02*
X149860000Y-111760000D01*
X142240000Y-119380000D02*
X147320000Y-114300000D01*
X147320000Y-114300000D02*
X149860000Y-114300000D01*
X142240000Y-121920000D02*
X147320000Y-116840000D01*
X147320000Y-116840000D02*
X149860000Y-116840000D01*
X142240000Y-124460000D02*
X146685000Y-124460000D01*
X148590000Y-119380000D02*
X149860000Y-119380000D01*
X147955000Y-120015000D02*
X148590000Y-119380000D01*
X147955000Y-123190000D02*
X147955000Y-120015000D01*
X146685000Y-124460000D02*
X147955000Y-123190000D01*
X149860000Y-127000000D02*
X148590000Y-127000000D01*
X165735000Y-116840000D02*
X167640000Y-116840000D01*
X164465000Y-118110000D02*
X165735000Y-116840000D01*
X164465000Y-120015000D02*
X164465000Y-118110000D01*
X158750000Y-125730000D02*
X164465000Y-120015000D01*
X155575000Y-125730000D02*
X158750000Y-125730000D01*
X154940000Y-126365000D02*
X155575000Y-125730000D01*
X154940000Y-130175000D02*
X154940000Y-126365000D01*
X154305000Y-130810000D02*
X154940000Y-130175000D01*
X148590000Y-130810000D02*
X154305000Y-130810000D01*
X147955000Y-130175000D02*
X148590000Y-130810000D01*
X147955000Y-127635000D02*
X147955000Y-130175000D01*
X148590000Y-127000000D02*
X147955000Y-127635000D01*
X149860000Y-129540000D02*
X152400000Y-129540000D01*
X165735000Y-114300000D02*
X167640000Y-114300000D01*
X163195000Y-116840000D02*
X165735000Y-114300000D01*
X163195000Y-119380000D02*
X163195000Y-116840000D01*
X159385000Y-123190000D02*
X163195000Y-119380000D01*
X154305000Y-123190000D02*
X159385000Y-123190000D01*
X153670000Y-123825000D02*
X154305000Y-123190000D01*
X153670000Y-128270000D02*
X153670000Y-123825000D01*
X152400000Y-129540000D02*
X153670000Y-128270000D01*
X142240000Y-127000000D02*
X147320000Y-132080000D01*
X147320000Y-132080000D02*
X149860000Y-132080000D01*
X142240000Y-129540000D02*
X147320000Y-134620000D01*
X147320000Y-134620000D02*
X149860000Y-134620000D01*
X142240000Y-132080000D02*
X147320000Y-137160000D01*
X147320000Y-137160000D02*
X149860000Y-137160000D01*
X149860000Y-139700000D02*
X149860000Y-140970000D01*
X167640000Y-138430000D02*
X167640000Y-132080000D01*
X164465000Y-141605000D02*
X167640000Y-138430000D01*
X150495000Y-141605000D02*
X164465000Y-141605000D01*
X149860000Y-140970000D02*
X150495000Y-141605000D01*
X157480000Y-139700000D02*
X163830000Y-139700000D01*
X166370000Y-129540000D02*
X167640000Y-129540000D01*
X165100000Y-130810000D02*
X166370000Y-129540000D01*
X165100000Y-138430000D02*
X165100000Y-130810000D01*
X163830000Y-139700000D02*
X165100000Y-138430000D01*
X157480000Y-137160000D02*
X162560000Y-137160000D01*
X166370000Y-127000000D02*
X167640000Y-127000000D01*
X163830000Y-129540000D02*
X166370000Y-127000000D01*
X163830000Y-135890000D02*
X163830000Y-129540000D01*
X162560000Y-137160000D02*
X163830000Y-135890000D01*
X157480000Y-134620000D02*
X161290000Y-134620000D01*
X165735000Y-124460000D02*
X167640000Y-124460000D01*
X162560000Y-127635000D02*
X165735000Y-124460000D01*
X162560000Y-133350000D02*
X162560000Y-127635000D01*
X161290000Y-134620000D02*
X162560000Y-133350000D01*
X157480000Y-132080000D02*
X160655000Y-132080000D01*
X165735000Y-121920000D02*
X167640000Y-121920000D01*
X161290000Y-126365000D02*
X165735000Y-121920000D01*
X161290000Y-131445000D02*
X161290000Y-126365000D01*
X160655000Y-132080000D02*
X161290000Y-131445000D01*
X157480000Y-129540000D02*
X159385000Y-129540000D01*
X166370000Y-119380000D02*
X167640000Y-119380000D01*
X160020000Y-125730000D02*
X166370000Y-119380000D01*
X160020000Y-128905000D02*
X160020000Y-125730000D01*
X159385000Y-129540000D02*
X160020000Y-128905000D01*
X157480000Y-119380000D02*
X158115000Y-119380000D01*
X158115000Y-119380000D02*
X165735000Y-111760000D01*
X165735000Y-111760000D02*
X167640000Y-111760000D01*
X157480000Y-116840000D02*
X158750000Y-116840000D01*
X166370000Y-109220000D02*
X167640000Y-109220000D01*
X158750000Y-116840000D02*
X166370000Y-109220000D01*
X157480000Y-114300000D02*
X158750000Y-114300000D01*
X166370000Y-106680000D02*
X167640000Y-106680000D01*
X158750000Y-114300000D02*
X166370000Y-106680000D01*
X157480000Y-111760000D02*
X158115000Y-111760000D01*
X158115000Y-111760000D02*
X163830000Y-106045000D01*
X163830000Y-106045000D02*
X163830000Y-104140000D01*
X162560000Y-96520000D02*
X162560000Y-102870000D01*
X163830000Y-104140000D02*
X167640000Y-104140000D01*
X162560000Y-102870000D02*
X163830000Y-104140000D01*
X167640000Y-104140000D02*
X167005000Y-104140000D01*
X157480000Y-109220000D02*
X158750000Y-109220000D01*
X158750000Y-109220000D02*
X159385000Y-108585000D01*
X159385000Y-108585000D02*
X159385000Y-97790000D01*
X159385000Y-97790000D02*
X158115000Y-96520000D01*
X158115000Y-96520000D02*
X154940000Y-96520000D01*
X152400000Y-96520000D02*
X152400000Y-99060000D01*
X157480000Y-104140000D02*
X157480000Y-106680000D01*
X152400000Y-99060000D02*
X157480000Y-104140000D01*
X154940000Y-93980000D02*
X162560000Y-93980000D01*
D24*
X137160000Y-114300000D02*
X139700000Y-114300000D01*
X137160000Y-116840000D02*
X139700000Y-116840000D01*
X137160000Y-119380000D02*
X139700000Y-119380000D01*
X137160000Y-121920000D02*
X139700000Y-121920000D01*
X137160000Y-124460000D02*
X139700000Y-124460000D01*
X137160000Y-127000000D02*
X139700000Y-127000000D01*
X137160000Y-129540000D02*
X139700000Y-129540000D01*
X137160000Y-132080000D02*
X139700000Y-132080000D01*
X170180000Y-104140000D02*
X172720000Y-104140000D01*
X170180000Y-106680000D02*
X172720000Y-106680000D01*
X170180000Y-109220000D02*
X172720000Y-109220000D01*
X170180000Y-111760000D02*
X172720000Y-111760000D01*
X170180000Y-114300000D02*
X172720000Y-114300000D01*
X170180000Y-116840000D02*
X172720000Y-116840000D01*
X170180000Y-119380000D02*
X172720000Y-119380000D01*
X170180000Y-121920000D02*
X172720000Y-121920000D01*
X170180000Y-124460000D02*
X172720000Y-124460000D01*
X170180000Y-127000000D02*
X172720000Y-127000000D01*
X170180000Y-129540000D02*
X172720000Y-129540000D01*
X170180000Y-132080000D02*
X172720000Y-132080000D01*
D26*
G36*
X179578000Y-142748000D02*
X130302000Y-142748000D01*
X130302000Y-138902325D01*
X132234587Y-138902325D01*
X132596916Y-139779229D01*
X133267242Y-140450726D01*
X134143513Y-140814585D01*
X135092325Y-140815413D01*
X135969229Y-140453084D01*
X136640726Y-139782758D01*
X137004585Y-138906487D01*
X137005201Y-138200000D01*
X137169286Y-138200000D01*
X137169286Y-142170000D01*
X147310715Y-142170000D01*
X147310715Y-138200000D01*
X137169286Y-138200000D01*
X137005201Y-138200000D01*
X137005413Y-137957675D01*
X136643084Y-137080771D01*
X135972758Y-136409274D01*
X135096487Y-136045415D01*
X134147675Y-136044587D01*
X133270771Y-136406916D01*
X132599274Y-137077242D01*
X132235415Y-137953513D01*
X132234587Y-138902325D01*
X130302000Y-138902325D01*
X130302000Y-132439026D01*
X130472642Y-132439026D01*
X130475291Y-132454791D01*
X130729268Y-132982036D01*
X131165680Y-133371954D01*
X131718087Y-133565184D01*
X131953000Y-133420924D01*
X131953000Y-132207000D01*
X130593783Y-132207000D01*
X130472642Y-132439026D01*
X130302000Y-132439026D01*
X130302000Y-129899026D01*
X130472642Y-129899026D01*
X130475291Y-129914791D01*
X130729268Y-130442036D01*
X131141108Y-130810000D01*
X130729268Y-131177964D01*
X130475291Y-131705209D01*
X130472642Y-131720974D01*
X130593783Y-131953000D01*
X131953000Y-131953000D01*
X131953000Y-129667000D01*
X130593783Y-129667000D01*
X130472642Y-129899026D01*
X130302000Y-129899026D01*
X130302000Y-127359026D01*
X130472642Y-127359026D01*
X130475291Y-127374791D01*
X130729268Y-127902036D01*
X131141108Y-128270000D01*
X130729268Y-128637964D01*
X130475291Y-129165209D01*
X130472642Y-129180974D01*
X130593783Y-129413000D01*
X131953000Y-129413000D01*
X131953000Y-127127000D01*
X130593783Y-127127000D01*
X130472642Y-127359026D01*
X130302000Y-127359026D01*
X130302000Y-124819026D01*
X130472642Y-124819026D01*
X130475291Y-124834791D01*
X130729268Y-125362036D01*
X131141108Y-125730000D01*
X130729268Y-126097964D01*
X130475291Y-126625209D01*
X130472642Y-126640974D01*
X130593783Y-126873000D01*
X131953000Y-126873000D01*
X131953000Y-124587000D01*
X130593783Y-124587000D01*
X130472642Y-124819026D01*
X130302000Y-124819026D01*
X130302000Y-122279026D01*
X130472642Y-122279026D01*
X130475291Y-122294791D01*
X130729268Y-122822036D01*
X131141108Y-123190000D01*
X130729268Y-123557964D01*
X130475291Y-124085209D01*
X130472642Y-124100974D01*
X130593783Y-124333000D01*
X131953000Y-124333000D01*
X131953000Y-122047000D01*
X130593783Y-122047000D01*
X130472642Y-122279026D01*
X130302000Y-122279026D01*
X130302000Y-119739026D01*
X130472642Y-119739026D01*
X130475291Y-119754791D01*
X130729268Y-120282036D01*
X131141108Y-120650000D01*
X130729268Y-121017964D01*
X130475291Y-121545209D01*
X130472642Y-121560974D01*
X130593783Y-121793000D01*
X131953000Y-121793000D01*
X131953000Y-119507000D01*
X130593783Y-119507000D01*
X130472642Y-119739026D01*
X130302000Y-119739026D01*
X130302000Y-117199026D01*
X130472642Y-117199026D01*
X130475291Y-117214791D01*
X130729268Y-117742036D01*
X131141108Y-118110000D01*
X130729268Y-118477964D01*
X130475291Y-119005209D01*
X130472642Y-119020974D01*
X130593783Y-119253000D01*
X131953000Y-119253000D01*
X131953000Y-116967000D01*
X130593783Y-116967000D01*
X130472642Y-117199026D01*
X130302000Y-117199026D01*
X130302000Y-114659026D01*
X130472642Y-114659026D01*
X130475291Y-114674791D01*
X130729268Y-115202036D01*
X131141108Y-115570000D01*
X130729268Y-115937964D01*
X130475291Y-116465209D01*
X130472642Y-116480974D01*
X130593783Y-116713000D01*
X131953000Y-116713000D01*
X131953000Y-114427000D01*
X130593783Y-114427000D01*
X130472642Y-114659026D01*
X130302000Y-114659026D01*
X130302000Y-112119026D01*
X130472642Y-112119026D01*
X130475291Y-112134791D01*
X130729268Y-112662036D01*
X131141108Y-113030000D01*
X130729268Y-113397964D01*
X130475291Y-113925209D01*
X130472642Y-113940974D01*
X130593783Y-114173000D01*
X131953000Y-114173000D01*
X131953000Y-111887000D01*
X130593783Y-111887000D01*
X130472642Y-112119026D01*
X130302000Y-112119026D01*
X130302000Y-109579026D01*
X130472642Y-109579026D01*
X130475291Y-109594791D01*
X130729268Y-110122036D01*
X131141108Y-110490000D01*
X130729268Y-110857964D01*
X130475291Y-111385209D01*
X130472642Y-111400974D01*
X130593783Y-111633000D01*
X131953000Y-111633000D01*
X131953000Y-109347000D01*
X130593783Y-109347000D01*
X130472642Y-109579026D01*
X130302000Y-109579026D01*
X130302000Y-107039026D01*
X130472642Y-107039026D01*
X130475291Y-107054791D01*
X130729268Y-107582036D01*
X131141108Y-107950000D01*
X130729268Y-108317964D01*
X130475291Y-108845209D01*
X130472642Y-108860974D01*
X130593783Y-109093000D01*
X131953000Y-109093000D01*
X131953000Y-106807000D01*
X130593783Y-106807000D01*
X130472642Y-107039026D01*
X130302000Y-107039026D01*
X130302000Y-104425750D01*
X130429000Y-104425750D01*
X130429000Y-105129910D01*
X130525673Y-105363299D01*
X130704302Y-105541927D01*
X130901861Y-105623759D01*
X130729268Y-105777964D01*
X130475291Y-106305209D01*
X130472642Y-106320974D01*
X130593783Y-106553000D01*
X131953000Y-106553000D01*
X131953000Y-104267000D01*
X130587750Y-104267000D01*
X130429000Y-104425750D01*
X130302000Y-104425750D01*
X130302000Y-103150090D01*
X130429000Y-103150090D01*
X130429000Y-103854250D01*
X130587750Y-104013000D01*
X131953000Y-104013000D01*
X131953000Y-102800150D01*
X132207000Y-102800150D01*
X132207000Y-104013000D01*
X132227000Y-104013000D01*
X132227000Y-104267000D01*
X132207000Y-104267000D01*
X132207000Y-106553000D01*
X132227000Y-106553000D01*
X132227000Y-106807000D01*
X132207000Y-106807000D01*
X132207000Y-109093000D01*
X132227000Y-109093000D01*
X132227000Y-109347000D01*
X132207000Y-109347000D01*
X132207000Y-111633000D01*
X132227000Y-111633000D01*
X132227000Y-111887000D01*
X132207000Y-111887000D01*
X132207000Y-114173000D01*
X132227000Y-114173000D01*
X132227000Y-114427000D01*
X132207000Y-114427000D01*
X132207000Y-116713000D01*
X132227000Y-116713000D01*
X132227000Y-116967000D01*
X132207000Y-116967000D01*
X132207000Y-119253000D01*
X132227000Y-119253000D01*
X132227000Y-119507000D01*
X132207000Y-119507000D01*
X132207000Y-121793000D01*
X132227000Y-121793000D01*
X132227000Y-122047000D01*
X132207000Y-122047000D01*
X132207000Y-124333000D01*
X132227000Y-124333000D01*
X132227000Y-124587000D01*
X132207000Y-124587000D01*
X132207000Y-126873000D01*
X132227000Y-126873000D01*
X132227000Y-127127000D01*
X132207000Y-127127000D01*
X132207000Y-129413000D01*
X132227000Y-129413000D01*
X132227000Y-129667000D01*
X132207000Y-129667000D01*
X132207000Y-131953000D01*
X132227000Y-131953000D01*
X132227000Y-132207000D01*
X132207000Y-132207000D01*
X132207000Y-133420924D01*
X132441913Y-133565184D01*
X132994320Y-133371954D01*
X133330246Y-133071816D01*
X133375585Y-133139670D01*
X133861766Y-133464526D01*
X134435255Y-133578600D01*
X134804745Y-133578600D01*
X135378234Y-133464526D01*
X135864415Y-133139670D01*
X135890000Y-133101379D01*
X135915585Y-133139670D01*
X136401766Y-133464526D01*
X136975255Y-133578600D01*
X137344745Y-133578600D01*
X137918234Y-133464526D01*
X138089634Y-133350000D01*
X138770366Y-133350000D01*
X138941766Y-133464526D01*
X139515255Y-133578600D01*
X139884745Y-133578600D01*
X140458234Y-133464526D01*
X140944415Y-133139670D01*
X140970000Y-133101379D01*
X140995585Y-133139670D01*
X141481766Y-133464526D01*
X142055255Y-133578600D01*
X142424745Y-133578600D01*
X142471970Y-133569206D01*
X146691382Y-137788618D01*
X146979794Y-137981329D01*
X147320000Y-138049000D01*
X148376343Y-138049000D01*
X148460332Y-138174698D01*
X148842418Y-138430000D01*
X148460332Y-138685302D01*
X148149263Y-139150849D01*
X148040030Y-139700000D01*
X148149263Y-140249151D01*
X148460332Y-140714698D01*
X148925879Y-141025767D01*
X148984408Y-141037409D01*
X149038671Y-141310206D01*
X149231382Y-141598618D01*
X149866382Y-142233618D01*
X150154795Y-142426330D01*
X150495000Y-142494000D01*
X164465000Y-142494000D01*
X164805206Y-142426329D01*
X165093618Y-142233618D01*
X168268618Y-139058618D01*
X168373049Y-138902325D01*
X172874587Y-138902325D01*
X173236916Y-139779229D01*
X173907242Y-140450726D01*
X174783513Y-140814585D01*
X175732325Y-140815413D01*
X176609229Y-140453084D01*
X177280726Y-139782758D01*
X177644585Y-138906487D01*
X177645413Y-137957675D01*
X177283084Y-137080771D01*
X176612758Y-136409274D01*
X175736487Y-136045415D01*
X174787675Y-136044587D01*
X173910771Y-136406916D01*
X173239274Y-137077242D01*
X172875415Y-137953513D01*
X172874587Y-138902325D01*
X168373049Y-138902325D01*
X168461329Y-138770206D01*
X168529000Y-138430000D01*
X168529000Y-133377151D01*
X168884415Y-133139670D01*
X168910000Y-133101379D01*
X168935585Y-133139670D01*
X169421766Y-133464526D01*
X169995255Y-133578600D01*
X170364745Y-133578600D01*
X170938234Y-133464526D01*
X171109634Y-133350000D01*
X171790366Y-133350000D01*
X171961766Y-133464526D01*
X172535255Y-133578600D01*
X172904745Y-133578600D01*
X173478234Y-133464526D01*
X173964415Y-133139670D01*
X173990000Y-133101379D01*
X174015585Y-133139670D01*
X174501766Y-133464526D01*
X175075255Y-133578600D01*
X175444745Y-133578600D01*
X176018234Y-133464526D01*
X176504415Y-133139670D01*
X176549754Y-133071816D01*
X176885680Y-133371954D01*
X177438087Y-133565184D01*
X177673000Y-133420924D01*
X177673000Y-132207000D01*
X177927000Y-132207000D01*
X177927000Y-133420924D01*
X178161913Y-133565184D01*
X178714320Y-133371954D01*
X179150732Y-132982036D01*
X179404709Y-132454791D01*
X179407358Y-132439026D01*
X179286217Y-132207000D01*
X177927000Y-132207000D01*
X177673000Y-132207000D01*
X177653000Y-132207000D01*
X177653000Y-131953000D01*
X177673000Y-131953000D01*
X177673000Y-129667000D01*
X177927000Y-129667000D01*
X177927000Y-131953000D01*
X179286217Y-131953000D01*
X179407358Y-131720974D01*
X179404709Y-131705209D01*
X179150732Y-131177964D01*
X178738892Y-130810000D01*
X179150732Y-130442036D01*
X179404709Y-129914791D01*
X179407358Y-129899026D01*
X179286217Y-129667000D01*
X177927000Y-129667000D01*
X177673000Y-129667000D01*
X177653000Y-129667000D01*
X177653000Y-129413000D01*
X177673000Y-129413000D01*
X177673000Y-127127000D01*
X177927000Y-127127000D01*
X177927000Y-129413000D01*
X179286217Y-129413000D01*
X179407358Y-129180974D01*
X179404709Y-129165209D01*
X179150732Y-128637964D01*
X178738892Y-128270000D01*
X179150732Y-127902036D01*
X179404709Y-127374791D01*
X179407358Y-127359026D01*
X179286217Y-127127000D01*
X177927000Y-127127000D01*
X177673000Y-127127000D01*
X177653000Y-127127000D01*
X177653000Y-126873000D01*
X177673000Y-126873000D01*
X177673000Y-124587000D01*
X177927000Y-124587000D01*
X177927000Y-126873000D01*
X179286217Y-126873000D01*
X179407358Y-126640974D01*
X179404709Y-126625209D01*
X179150732Y-126097964D01*
X178738892Y-125730000D01*
X179150732Y-125362036D01*
X179404709Y-124834791D01*
X179407358Y-124819026D01*
X179286217Y-124587000D01*
X177927000Y-124587000D01*
X177673000Y-124587000D01*
X177653000Y-124587000D01*
X177653000Y-124333000D01*
X177673000Y-124333000D01*
X177673000Y-122047000D01*
X177927000Y-122047000D01*
X177927000Y-124333000D01*
X179286217Y-124333000D01*
X179407358Y-124100974D01*
X179404709Y-124085209D01*
X179150732Y-123557964D01*
X178738892Y-123190000D01*
X179150732Y-122822036D01*
X179404709Y-122294791D01*
X179407358Y-122279026D01*
X179286217Y-122047000D01*
X177927000Y-122047000D01*
X177673000Y-122047000D01*
X177653000Y-122047000D01*
X177653000Y-121793000D01*
X177673000Y-121793000D01*
X177673000Y-119507000D01*
X177927000Y-119507000D01*
X177927000Y-121793000D01*
X179286217Y-121793000D01*
X179407358Y-121560974D01*
X179404709Y-121545209D01*
X179150732Y-121017964D01*
X178738892Y-120650000D01*
X179150732Y-120282036D01*
X179404709Y-119754791D01*
X179407358Y-119739026D01*
X179286217Y-119507000D01*
X177927000Y-119507000D01*
X177673000Y-119507000D01*
X177653000Y-119507000D01*
X177653000Y-119253000D01*
X177673000Y-119253000D01*
X177673000Y-116967000D01*
X177927000Y-116967000D01*
X177927000Y-119253000D01*
X179286217Y-119253000D01*
X179407358Y-119020974D01*
X179404709Y-119005209D01*
X179150732Y-118477964D01*
X178738892Y-118110000D01*
X179150732Y-117742036D01*
X179404709Y-117214791D01*
X179407358Y-117199026D01*
X179286217Y-116967000D01*
X177927000Y-116967000D01*
X177673000Y-116967000D01*
X177653000Y-116967000D01*
X177653000Y-116713000D01*
X177673000Y-116713000D01*
X177673000Y-114427000D01*
X177927000Y-114427000D01*
X177927000Y-116713000D01*
X179286217Y-116713000D01*
X179407358Y-116480974D01*
X179404709Y-116465209D01*
X179150732Y-115937964D01*
X178738892Y-115570000D01*
X179150732Y-115202036D01*
X179404709Y-114674791D01*
X179407358Y-114659026D01*
X179286217Y-114427000D01*
X177927000Y-114427000D01*
X177673000Y-114427000D01*
X177653000Y-114427000D01*
X177653000Y-114173000D01*
X177673000Y-114173000D01*
X177673000Y-111887000D01*
X177927000Y-111887000D01*
X177927000Y-114173000D01*
X179286217Y-114173000D01*
X179407358Y-113940974D01*
X179404709Y-113925209D01*
X179150732Y-113397964D01*
X178738892Y-113030000D01*
X179150732Y-112662036D01*
X179404709Y-112134791D01*
X179407358Y-112119026D01*
X179286217Y-111887000D01*
X177927000Y-111887000D01*
X177673000Y-111887000D01*
X177653000Y-111887000D01*
X177653000Y-111633000D01*
X177673000Y-111633000D01*
X177673000Y-109347000D01*
X177927000Y-109347000D01*
X177927000Y-111633000D01*
X179286217Y-111633000D01*
X179407358Y-111400974D01*
X179404709Y-111385209D01*
X179150732Y-110857964D01*
X178738892Y-110490000D01*
X179150732Y-110122036D01*
X179404709Y-109594791D01*
X179407358Y-109579026D01*
X179286217Y-109347000D01*
X177927000Y-109347000D01*
X177673000Y-109347000D01*
X177653000Y-109347000D01*
X177653000Y-109093000D01*
X177673000Y-109093000D01*
X177673000Y-106807000D01*
X177927000Y-106807000D01*
X177927000Y-109093000D01*
X179286217Y-109093000D01*
X179407358Y-108860974D01*
X179404709Y-108845209D01*
X179150732Y-108317964D01*
X178738892Y-107950000D01*
X179150732Y-107582036D01*
X179404709Y-107054791D01*
X179407358Y-107039026D01*
X179286217Y-106807000D01*
X177927000Y-106807000D01*
X177673000Y-106807000D01*
X177653000Y-106807000D01*
X177653000Y-106553000D01*
X177673000Y-106553000D01*
X177673000Y-104267000D01*
X177927000Y-104267000D01*
X177927000Y-106553000D01*
X179286217Y-106553000D01*
X179407358Y-106320974D01*
X179404709Y-106305209D01*
X179150732Y-105777964D01*
X178978139Y-105623759D01*
X179175698Y-105541927D01*
X179354327Y-105363299D01*
X179451000Y-105129910D01*
X179451000Y-104425750D01*
X179292250Y-104267000D01*
X177927000Y-104267000D01*
X177673000Y-104267000D01*
X177653000Y-104267000D01*
X177653000Y-104013000D01*
X177673000Y-104013000D01*
X177673000Y-102800150D01*
X177927000Y-102800150D01*
X177927000Y-104013000D01*
X179292250Y-104013000D01*
X179451000Y-103854250D01*
X179451000Y-103150090D01*
X179354327Y-102916701D01*
X179175698Y-102738073D01*
X178942309Y-102641400D01*
X178085750Y-102641400D01*
X177927000Y-102800150D01*
X177673000Y-102800150D01*
X177514250Y-102641400D01*
X176657691Y-102641400D01*
X176541737Y-102689430D01*
X176527890Y-102679969D01*
X176276000Y-102628960D01*
X174244000Y-102628960D01*
X174008683Y-102673238D01*
X173992901Y-102683393D01*
X173987890Y-102679969D01*
X173736000Y-102628960D01*
X171704000Y-102628960D01*
X171468683Y-102673238D01*
X171452901Y-102683393D01*
X171447890Y-102679969D01*
X171196000Y-102628960D01*
X169164000Y-102628960D01*
X168928683Y-102673238D01*
X168912901Y-102683393D01*
X168907890Y-102679969D01*
X168656000Y-102628960D01*
X166624000Y-102628960D01*
X166388683Y-102673238D01*
X166172559Y-102812310D01*
X166027569Y-103024510D01*
X165981704Y-103251000D01*
X164198236Y-103251000D01*
X163449000Y-102501764D01*
X163449000Y-98183440D01*
X163576000Y-98183440D01*
X163811317Y-98139162D01*
X164027441Y-98000090D01*
X164172431Y-97787890D01*
X164223440Y-97536000D01*
X164223440Y-95504000D01*
X168516560Y-95504000D01*
X168516560Y-97536000D01*
X168560838Y-97771317D01*
X168699910Y-97987441D01*
X168912110Y-98132431D01*
X169164000Y-98183440D01*
X171196000Y-98183440D01*
X171431317Y-98139162D01*
X171647441Y-98000090D01*
X171749198Y-97851163D01*
X172088190Y-98077670D01*
X172720000Y-98203345D01*
X173351810Y-98077670D01*
X173782338Y-97790000D01*
X176293141Y-97790000D01*
X176187569Y-97944510D01*
X176136560Y-98196400D01*
X176136560Y-99923600D01*
X176180838Y-100158917D01*
X176319910Y-100375041D01*
X176532110Y-100520031D01*
X176784000Y-100571040D01*
X178816000Y-100571040D01*
X179051317Y-100526762D01*
X179267441Y-100387690D01*
X179412431Y-100175490D01*
X179463440Y-99923600D01*
X179463440Y-98196400D01*
X179419162Y-97961083D01*
X179280090Y-97744959D01*
X179070000Y-97601411D01*
X179070000Y-97541379D01*
X179369271Y-97093489D01*
X179483345Y-96520000D01*
X179369271Y-95946511D01*
X179070000Y-95498621D01*
X179070000Y-95001379D01*
X179369271Y-94553489D01*
X179483345Y-93980000D01*
X179369271Y-93406511D01*
X179070000Y-92958621D01*
X179070000Y-92461379D01*
X179369271Y-92013489D01*
X179483345Y-91440000D01*
X179369271Y-90866511D01*
X179044415Y-90380330D01*
X178558234Y-90055474D01*
X177984745Y-89941400D01*
X177615255Y-89941400D01*
X177041766Y-90055474D01*
X176870366Y-90170000D01*
X175496125Y-90170000D01*
X175624206Y-89861547D01*
X175624774Y-89211306D01*
X175376462Y-88610345D01*
X174917073Y-88150154D01*
X174316547Y-87900794D01*
X173666306Y-87900226D01*
X173065345Y-88148538D01*
X172605154Y-88607927D01*
X172355794Y-89208453D01*
X172355226Y-89858694D01*
X172603538Y-90459655D01*
X172720000Y-90576320D01*
X172720000Y-91924497D01*
X172692560Y-92060000D01*
X172692560Y-93360000D01*
X172736838Y-93595317D01*
X172875910Y-93811441D01*
X173088110Y-93956431D01*
X173340000Y-94007440D01*
X174640000Y-94007440D01*
X174875317Y-93963162D01*
X175091441Y-93824090D01*
X175236431Y-93611890D01*
X175287440Y-93360000D01*
X175287440Y-92710000D01*
X176530000Y-92710000D01*
X176530000Y-92958621D01*
X176230729Y-93406511D01*
X176116655Y-93980000D01*
X176230729Y-94553489D01*
X176530000Y-95001379D01*
X176530000Y-95250000D01*
X173782338Y-95250000D01*
X173351810Y-94962330D01*
X172720000Y-94836655D01*
X172088190Y-94962330D01*
X171748208Y-95189499D01*
X171660090Y-95052559D01*
X171447890Y-94907569D01*
X171196000Y-94856560D01*
X169164000Y-94856560D01*
X168928683Y-94900838D01*
X168712559Y-95039910D01*
X168567569Y-95252110D01*
X168516560Y-95504000D01*
X164223440Y-95504000D01*
X164179162Y-95268683D01*
X164040090Y-95052559D01*
X163891163Y-94950802D01*
X164117670Y-94611810D01*
X164243345Y-93980000D01*
X164169552Y-93609016D01*
X168270590Y-93609016D01*
X168326271Y-93839611D01*
X168809078Y-94007622D01*
X169319428Y-93978083D01*
X169653729Y-93839611D01*
X169709410Y-93609016D01*
X168990000Y-92889605D01*
X168270590Y-93609016D01*
X164169552Y-93609016D01*
X164117670Y-93348190D01*
X163759778Y-92812567D01*
X163335507Y-92529078D01*
X167692378Y-92529078D01*
X167721917Y-93039428D01*
X167860389Y-93373729D01*
X168090984Y-93429410D01*
X168810395Y-92710000D01*
X169169605Y-92710000D01*
X169889016Y-93429410D01*
X170119611Y-93373729D01*
X170287622Y-92890922D01*
X170258083Y-92380572D01*
X170119611Y-92046271D01*
X169889016Y-91990590D01*
X169169605Y-92710000D01*
X168810395Y-92710000D01*
X168090984Y-91990590D01*
X167860389Y-92046271D01*
X167692378Y-92529078D01*
X163335507Y-92529078D01*
X163224155Y-92454675D01*
X162592345Y-92329000D01*
X162527655Y-92329000D01*
X161895845Y-92454675D01*
X161360222Y-92812567D01*
X161174179Y-93091000D01*
X156133325Y-93091000D01*
X155999670Y-92890971D01*
X155728839Y-92710008D01*
X156146821Y-92328490D01*
X156389364Y-91810984D01*
X168270590Y-91810984D01*
X168990000Y-92530395D01*
X169709410Y-91810984D01*
X169653729Y-91580389D01*
X169170922Y-91412378D01*
X168660572Y-91441917D01*
X168326271Y-91580389D01*
X168270590Y-91810984D01*
X156389364Y-91810984D01*
X156394968Y-91799027D01*
X156274469Y-91567000D01*
X155067000Y-91567000D01*
X155067000Y-91587000D01*
X154813000Y-91587000D01*
X154813000Y-91567000D01*
X152527000Y-91567000D01*
X152527000Y-91587000D01*
X152273000Y-91587000D01*
X152273000Y-91567000D01*
X151065531Y-91567000D01*
X150945032Y-91799027D01*
X151193179Y-92328490D01*
X151611161Y-92710008D01*
X151340330Y-92890971D01*
X151015474Y-93377152D01*
X150901400Y-93950641D01*
X150901400Y-94009359D01*
X151015474Y-94582848D01*
X151340330Y-95069029D01*
X151611172Y-95250000D01*
X151340330Y-95430971D01*
X151015474Y-95917152D01*
X150901400Y-96490641D01*
X150901400Y-96549359D01*
X151015474Y-97122848D01*
X151340330Y-97609029D01*
X151511000Y-97723067D01*
X151511000Y-99060000D01*
X151578671Y-99400206D01*
X151676093Y-99546008D01*
X151771382Y-99688618D01*
X156591000Y-104508236D01*
X156591000Y-105345258D01*
X156545879Y-105354233D01*
X156080332Y-105665302D01*
X155769263Y-106130849D01*
X155660030Y-106680000D01*
X155769263Y-107229151D01*
X156080332Y-107694698D01*
X156462418Y-107950000D01*
X156080332Y-108205302D01*
X155769263Y-108670849D01*
X155660030Y-109220000D01*
X155769263Y-109769151D01*
X156080332Y-110234698D01*
X156462418Y-110490000D01*
X156080332Y-110745302D01*
X155769263Y-111210849D01*
X155660030Y-111760000D01*
X155769263Y-112309151D01*
X156080332Y-112774698D01*
X156462418Y-113030000D01*
X156080332Y-113285302D01*
X155769263Y-113750849D01*
X155660030Y-114300000D01*
X155769263Y-114849151D01*
X156080332Y-115314698D01*
X156462418Y-115570000D01*
X156080332Y-115825302D01*
X155769263Y-116290849D01*
X155660030Y-116840000D01*
X155769263Y-117389151D01*
X156080332Y-117854698D01*
X156462418Y-118110000D01*
X156080332Y-118365302D01*
X155769263Y-118830849D01*
X155660030Y-119380000D01*
X155769263Y-119929151D01*
X156080332Y-120394698D01*
X156458151Y-120647149D01*
X156025500Y-120995104D01*
X155755633Y-121488181D01*
X155738096Y-121570961D01*
X155860085Y-121793000D01*
X157353000Y-121793000D01*
X157353000Y-121773000D01*
X157607000Y-121773000D01*
X157607000Y-121793000D01*
X159099915Y-121793000D01*
X159221904Y-121570961D01*
X159204367Y-121488181D01*
X158934500Y-120995104D01*
X158501849Y-120647149D01*
X158879668Y-120394698D01*
X159190737Y-119929151D01*
X159282026Y-119470210D01*
X166103236Y-112649000D01*
X166281547Y-112649000D01*
X166395585Y-112819670D01*
X166710366Y-113030000D01*
X166395585Y-113240330D01*
X166281547Y-113411000D01*
X165735000Y-113411000D01*
X165394794Y-113478671D01*
X165106382Y-113671382D01*
X162566382Y-116211382D01*
X162373671Y-116499794D01*
X162306000Y-116840000D01*
X162306000Y-119011764D01*
X159160496Y-122157268D01*
X159099915Y-122047000D01*
X157607000Y-122047000D01*
X157607000Y-122067000D01*
X157353000Y-122067000D01*
X157353000Y-122047000D01*
X155860085Y-122047000D01*
X155738096Y-122269039D01*
X155744867Y-122301000D01*
X154305000Y-122301000D01*
X153964795Y-122368670D01*
X153676382Y-122561382D01*
X153041382Y-123196382D01*
X152848671Y-123484794D01*
X152781000Y-123825000D01*
X152781000Y-127901764D01*
X152031764Y-128651000D01*
X151343657Y-128651000D01*
X151259668Y-128525302D01*
X150877582Y-128270000D01*
X151259668Y-128014698D01*
X151570737Y-127549151D01*
X151679970Y-127000000D01*
X151570737Y-126450849D01*
X151259668Y-125985302D01*
X150881849Y-125732851D01*
X151314500Y-125384896D01*
X151584367Y-124891819D01*
X151601904Y-124809039D01*
X151479915Y-124587000D01*
X149987000Y-124587000D01*
X149987000Y-124607000D01*
X149733000Y-124607000D01*
X149733000Y-124587000D01*
X148240085Y-124587000D01*
X148118096Y-124809039D01*
X148135633Y-124891819D01*
X148405500Y-125384896D01*
X148838151Y-125732851D01*
X148460332Y-125985302D01*
X148343594Y-126160012D01*
X148249795Y-126178670D01*
X147961382Y-126371382D01*
X147341287Y-126991477D01*
X147318083Y-126590572D01*
X147179611Y-126256271D01*
X146949016Y-126200590D01*
X146229605Y-126920000D01*
X146949016Y-127639410D01*
X147070981Y-127609960D01*
X147066000Y-127635000D01*
X147066000Y-130175000D01*
X147133671Y-130515206D01*
X147293384Y-130754233D01*
X147326382Y-130803618D01*
X147713764Y-131191000D01*
X147688236Y-131191000D01*
X144316252Y-127819016D01*
X145330590Y-127819016D01*
X145386271Y-128049611D01*
X145869078Y-128217622D01*
X146379428Y-128188083D01*
X146713729Y-128049611D01*
X146769410Y-127819016D01*
X146050000Y-127099605D01*
X145330590Y-127819016D01*
X144316252Y-127819016D01*
X143852649Y-127355413D01*
X143923345Y-127000000D01*
X143871445Y-126739078D01*
X144752378Y-126739078D01*
X144781917Y-127249428D01*
X144920389Y-127583729D01*
X145150984Y-127639410D01*
X145870395Y-126920000D01*
X145150984Y-126200590D01*
X144920389Y-126256271D01*
X144752378Y-126739078D01*
X143871445Y-126739078D01*
X143809271Y-126426511D01*
X143538307Y-126020984D01*
X145330590Y-126020984D01*
X146050000Y-126740395D01*
X146769410Y-126020984D01*
X146713729Y-125790389D01*
X146230922Y-125622378D01*
X145720572Y-125651917D01*
X145386271Y-125790389D01*
X145330590Y-126020984D01*
X143538307Y-126020984D01*
X143484415Y-125940330D01*
X143169634Y-125730000D01*
X143484415Y-125519670D01*
X143598453Y-125349000D01*
X146685000Y-125349000D01*
X147025206Y-125281329D01*
X147313618Y-125088618D01*
X148179504Y-124222732D01*
X148240085Y-124333000D01*
X149733000Y-124333000D01*
X149733000Y-124313000D01*
X149987000Y-124313000D01*
X149987000Y-124333000D01*
X151479915Y-124333000D01*
X151601904Y-124110961D01*
X151584367Y-124028181D01*
X151314500Y-123535104D01*
X150881849Y-123187149D01*
X151259668Y-122934698D01*
X151570737Y-122469151D01*
X151679970Y-121920000D01*
X151570737Y-121370849D01*
X151259668Y-120905302D01*
X150877582Y-120650000D01*
X151259668Y-120394698D01*
X151570737Y-119929151D01*
X151679970Y-119380000D01*
X151570737Y-118830849D01*
X151259668Y-118365302D01*
X150877582Y-118110000D01*
X151259668Y-117854698D01*
X151570737Y-117389151D01*
X151679970Y-116840000D01*
X151570737Y-116290849D01*
X151259668Y-115825302D01*
X150877582Y-115570000D01*
X151259668Y-115314698D01*
X151570737Y-114849151D01*
X151679970Y-114300000D01*
X151570737Y-113750849D01*
X151259668Y-113285302D01*
X150877582Y-113030000D01*
X151259668Y-112774698D01*
X151570737Y-112309151D01*
X151679970Y-111760000D01*
X151570737Y-111210849D01*
X151259668Y-110745302D01*
X150877582Y-110490000D01*
X151259668Y-110234698D01*
X151570737Y-109769151D01*
X151679970Y-109220000D01*
X151570737Y-108670849D01*
X151259668Y-108205302D01*
X150877582Y-107950000D01*
X151259668Y-107694698D01*
X151570737Y-107229151D01*
X151679970Y-106680000D01*
X151570737Y-106130849D01*
X151259668Y-105665302D01*
X150794121Y-105354233D01*
X150244970Y-105245000D01*
X149475030Y-105245000D01*
X148925879Y-105354233D01*
X148460332Y-105665302D01*
X148149263Y-106130849D01*
X148040030Y-106680000D01*
X148149263Y-107229151D01*
X148460332Y-107694698D01*
X148842418Y-107950000D01*
X148460332Y-108205302D01*
X148376343Y-108331000D01*
X147320000Y-108331000D01*
X146979794Y-108398671D01*
X146700933Y-108585000D01*
X146691382Y-108591382D01*
X142493804Y-112788960D01*
X141224000Y-112788960D01*
X140988683Y-112833238D01*
X140972901Y-112843393D01*
X140967890Y-112839969D01*
X140716000Y-112788960D01*
X138684000Y-112788960D01*
X138448683Y-112833238D01*
X138432901Y-112843393D01*
X138427890Y-112839969D01*
X138176000Y-112788960D01*
X136144000Y-112788960D01*
X135908683Y-112833238D01*
X135692559Y-112972310D01*
X135620697Y-113077483D01*
X135549634Y-113030000D01*
X135864415Y-112819670D01*
X136189271Y-112333489D01*
X136303345Y-111760000D01*
X136189271Y-111186511D01*
X135864415Y-110700330D01*
X135549634Y-110490000D01*
X135864415Y-110279670D01*
X136189271Y-109793489D01*
X136303345Y-109220000D01*
X136189271Y-108646511D01*
X135864415Y-108160330D01*
X135549634Y-107950000D01*
X135864415Y-107739670D01*
X136189271Y-107253489D01*
X136303345Y-106680000D01*
X136189271Y-106106511D01*
X135864415Y-105620330D01*
X135850087Y-105610757D01*
X135871317Y-105606762D01*
X136087441Y-105467690D01*
X136232431Y-105255490D01*
X136283440Y-105003600D01*
X136283440Y-103276400D01*
X136239162Y-103041083D01*
X136100090Y-102824959D01*
X135887890Y-102679969D01*
X135636000Y-102628960D01*
X133604000Y-102628960D01*
X133368683Y-102673238D01*
X133341461Y-102690755D01*
X133222309Y-102641400D01*
X132365750Y-102641400D01*
X132207000Y-102800150D01*
X131953000Y-102800150D01*
X131794250Y-102641400D01*
X130937691Y-102641400D01*
X130704302Y-102738073D01*
X130525673Y-102916701D01*
X130429000Y-103150090D01*
X130302000Y-103150090D01*
X130302000Y-91799016D01*
X140250590Y-91799016D01*
X140306271Y-92029611D01*
X140789078Y-92197622D01*
X141299428Y-92168083D01*
X141633729Y-92029611D01*
X141689410Y-91799016D01*
X140970000Y-91079605D01*
X140250590Y-91799016D01*
X130302000Y-91799016D01*
X130302000Y-90719078D01*
X139672378Y-90719078D01*
X139701917Y-91229428D01*
X139840389Y-91563729D01*
X140070984Y-91619410D01*
X140790395Y-90900000D01*
X140776252Y-90885858D01*
X140955858Y-90706252D01*
X140970000Y-90720395D01*
X140984142Y-90706252D01*
X141163748Y-90885858D01*
X141149605Y-90900000D01*
X141869016Y-91619410D01*
X142099611Y-91563729D01*
X142267622Y-91080922D01*
X142238083Y-90570572D01*
X142099611Y-90236271D01*
X141869018Y-90180590D01*
X141970680Y-90078928D01*
X142071441Y-90014090D01*
X142216431Y-89801890D01*
X142267440Y-89550000D01*
X142267440Y-89259027D01*
X150945032Y-89259027D01*
X151193179Y-89788490D01*
X151611152Y-90170000D01*
X151193179Y-90551510D01*
X150945032Y-91080973D01*
X151065531Y-91313000D01*
X152273000Y-91313000D01*
X152273000Y-89027000D01*
X152527000Y-89027000D01*
X152527000Y-91313000D01*
X154813000Y-91313000D01*
X154813000Y-89027000D01*
X155067000Y-89027000D01*
X155067000Y-91313000D01*
X156274469Y-91313000D01*
X156394968Y-91080973D01*
X156146821Y-90551510D01*
X155728848Y-90170000D01*
X156069907Y-89858694D01*
X162195226Y-89858694D01*
X162443538Y-90459655D01*
X162902927Y-90919846D01*
X163503453Y-91169206D01*
X164153694Y-91169774D01*
X164754655Y-90921462D01*
X165214846Y-90462073D01*
X165464206Y-89861547D01*
X165464774Y-89211306D01*
X165216462Y-88610345D01*
X164757073Y-88150154D01*
X164156547Y-87900794D01*
X163506306Y-87900226D01*
X162905345Y-88148538D01*
X162445154Y-88607927D01*
X162195794Y-89208453D01*
X162195226Y-89858694D01*
X156069907Y-89858694D01*
X156146821Y-89788490D01*
X156394968Y-89259027D01*
X156274469Y-89027000D01*
X155067000Y-89027000D01*
X154813000Y-89027000D01*
X152527000Y-89027000D01*
X152273000Y-89027000D01*
X151065531Y-89027000D01*
X150945032Y-89259027D01*
X142267440Y-89259027D01*
X142267440Y-88250000D01*
X142223162Y-88014683D01*
X142084090Y-87798559D01*
X141871890Y-87653569D01*
X141620000Y-87602560D01*
X140320000Y-87602560D01*
X140084683Y-87646838D01*
X139868559Y-87785910D01*
X139723569Y-87998110D01*
X139672560Y-88250000D01*
X139672560Y-89550000D01*
X139716838Y-89785317D01*
X139855910Y-90001441D01*
X139969329Y-90078937D01*
X140070982Y-90180590D01*
X139840389Y-90236271D01*
X139672378Y-90719078D01*
X130302000Y-90719078D01*
X130302000Y-84292325D01*
X132234587Y-84292325D01*
X132596916Y-85169229D01*
X133267242Y-85840726D01*
X134143513Y-86204585D01*
X135092325Y-86205413D01*
X135969229Y-85843084D01*
X136640726Y-85172758D01*
X137004585Y-84296487D01*
X137005413Y-83347675D01*
X136843742Y-82956400D01*
X150888960Y-82956400D01*
X150888960Y-84683600D01*
X150933238Y-84918917D01*
X151072310Y-85135041D01*
X151284510Y-85280031D01*
X151328345Y-85288908D01*
X151015474Y-85757152D01*
X150901400Y-86330641D01*
X150901400Y-86389359D01*
X151015474Y-86962848D01*
X151340330Y-87449029D01*
X151611161Y-87629992D01*
X151193179Y-88011510D01*
X150945032Y-88540973D01*
X151065531Y-88773000D01*
X152273000Y-88773000D01*
X152273000Y-88753000D01*
X152527000Y-88753000D01*
X152527000Y-88773000D01*
X154813000Y-88773000D01*
X154813000Y-88753000D01*
X155067000Y-88753000D01*
X155067000Y-88773000D01*
X156274469Y-88773000D01*
X156394968Y-88540973D01*
X156146821Y-88011510D01*
X155728839Y-87629992D01*
X155999670Y-87449029D01*
X156324526Y-86962848D01*
X156438600Y-86389359D01*
X156438600Y-86330641D01*
X156324526Y-85757152D01*
X155999670Y-85270971D01*
X155728828Y-85090000D01*
X155999670Y-84909029D01*
X156324526Y-84422848D01*
X156438600Y-83849359D01*
X156438600Y-83790641D01*
X156324526Y-83217152D01*
X155999670Y-82730971D01*
X155728828Y-82550000D01*
X160642560Y-82550000D01*
X160642560Y-85090000D01*
X160686838Y-85325317D01*
X160825910Y-85541441D01*
X161038110Y-85686431D01*
X161290000Y-85737440D01*
X163830000Y-85737440D01*
X164065317Y-85693162D01*
X164281441Y-85554090D01*
X164426431Y-85341890D01*
X164461689Y-85167777D01*
X166471828Y-85167777D01*
X166603520Y-85462657D01*
X167311036Y-85734261D01*
X168068632Y-85714436D01*
X168676480Y-85462657D01*
X168808172Y-85167777D01*
X167640000Y-83999605D01*
X166471828Y-85167777D01*
X164461689Y-85167777D01*
X164477440Y-85090000D01*
X164477440Y-83491036D01*
X165725739Y-83491036D01*
X165745564Y-84248632D01*
X165997343Y-84856480D01*
X166292223Y-84988172D01*
X167460395Y-83820000D01*
X167819605Y-83820000D01*
X168987777Y-84988172D01*
X169282657Y-84856480D01*
X169499227Y-84292325D01*
X172874587Y-84292325D01*
X173236916Y-85169229D01*
X173907242Y-85840726D01*
X174783513Y-86204585D01*
X175732325Y-86205413D01*
X176609229Y-85843084D01*
X177280726Y-85172758D01*
X177644585Y-84296487D01*
X177645413Y-83347675D01*
X177283084Y-82470771D01*
X176612758Y-81799274D01*
X175736487Y-81435415D01*
X174787675Y-81434587D01*
X173910771Y-81796916D01*
X173239274Y-82467242D01*
X172875415Y-83343513D01*
X172874587Y-84292325D01*
X169499227Y-84292325D01*
X169554261Y-84148964D01*
X169534436Y-83391368D01*
X169282657Y-82783520D01*
X168987777Y-82651828D01*
X167819605Y-83820000D01*
X167460395Y-83820000D01*
X166292223Y-82651828D01*
X165997343Y-82783520D01*
X165725739Y-83491036D01*
X164477440Y-83491036D01*
X164477440Y-82550000D01*
X164462806Y-82472223D01*
X166471828Y-82472223D01*
X167640000Y-83640395D01*
X168808172Y-82472223D01*
X168676480Y-82177343D01*
X167968964Y-81905739D01*
X167211368Y-81925564D01*
X166603520Y-82177343D01*
X166471828Y-82472223D01*
X164462806Y-82472223D01*
X164433162Y-82314683D01*
X164294090Y-82098559D01*
X164081890Y-81953569D01*
X163830000Y-81902560D01*
X161290000Y-81902560D01*
X161054683Y-81946838D01*
X160838559Y-82085910D01*
X160693569Y-82298110D01*
X160642560Y-82550000D01*
X155728828Y-82550000D01*
X155513489Y-82406115D01*
X154940000Y-82292041D01*
X154366511Y-82406115D01*
X153880330Y-82730971D01*
X153871195Y-82744642D01*
X153866762Y-82721083D01*
X153727690Y-82504959D01*
X153515490Y-82359969D01*
X153263600Y-82308960D01*
X151536400Y-82308960D01*
X151301083Y-82353238D01*
X151084959Y-82492310D01*
X150939969Y-82704510D01*
X150888960Y-82956400D01*
X136843742Y-82956400D01*
X136643084Y-82470771D01*
X135972758Y-81799274D01*
X135096487Y-81435415D01*
X134147675Y-81434587D01*
X133270771Y-81796916D01*
X132599274Y-82467242D01*
X132235415Y-83343513D01*
X132234587Y-84292325D01*
X130302000Y-84292325D01*
X130302000Y-78867000D01*
X179578000Y-78867000D01*
X179578000Y-142748000D01*
X179578000Y-142748000D01*
G37*
X179578000Y-142748000D02*
X130302000Y-142748000D01*
X130302000Y-138902325D01*
X132234587Y-138902325D01*
X132596916Y-139779229D01*
X133267242Y-140450726D01*
X134143513Y-140814585D01*
X135092325Y-140815413D01*
X135969229Y-140453084D01*
X136640726Y-139782758D01*
X137004585Y-138906487D01*
X137005201Y-138200000D01*
X137169286Y-138200000D01*
X137169286Y-142170000D01*
X147310715Y-142170000D01*
X147310715Y-138200000D01*
X137169286Y-138200000D01*
X137005201Y-138200000D01*
X137005413Y-137957675D01*
X136643084Y-137080771D01*
X135972758Y-136409274D01*
X135096487Y-136045415D01*
X134147675Y-136044587D01*
X133270771Y-136406916D01*
X132599274Y-137077242D01*
X132235415Y-137953513D01*
X132234587Y-138902325D01*
X130302000Y-138902325D01*
X130302000Y-132439026D01*
X130472642Y-132439026D01*
X130475291Y-132454791D01*
X130729268Y-132982036D01*
X131165680Y-133371954D01*
X131718087Y-133565184D01*
X131953000Y-133420924D01*
X131953000Y-132207000D01*
X130593783Y-132207000D01*
X130472642Y-132439026D01*
X130302000Y-132439026D01*
X130302000Y-129899026D01*
X130472642Y-129899026D01*
X130475291Y-129914791D01*
X130729268Y-130442036D01*
X131141108Y-130810000D01*
X130729268Y-131177964D01*
X130475291Y-131705209D01*
X130472642Y-131720974D01*
X130593783Y-131953000D01*
X131953000Y-131953000D01*
X131953000Y-129667000D01*
X130593783Y-129667000D01*
X130472642Y-129899026D01*
X130302000Y-129899026D01*
X130302000Y-127359026D01*
X130472642Y-127359026D01*
X130475291Y-127374791D01*
X130729268Y-127902036D01*
X131141108Y-128270000D01*
X130729268Y-128637964D01*
X130475291Y-129165209D01*
X130472642Y-129180974D01*
X130593783Y-129413000D01*
X131953000Y-129413000D01*
X131953000Y-127127000D01*
X130593783Y-127127000D01*
X130472642Y-127359026D01*
X130302000Y-127359026D01*
X130302000Y-124819026D01*
X130472642Y-124819026D01*
X130475291Y-124834791D01*
X130729268Y-125362036D01*
X131141108Y-125730000D01*
X130729268Y-126097964D01*
X130475291Y-126625209D01*
X130472642Y-126640974D01*
X130593783Y-126873000D01*
X131953000Y-126873000D01*
X131953000Y-124587000D01*
X130593783Y-124587000D01*
X130472642Y-124819026D01*
X130302000Y-124819026D01*
X130302000Y-122279026D01*
X130472642Y-122279026D01*
X130475291Y-122294791D01*
X130729268Y-122822036D01*
X131141108Y-123190000D01*
X130729268Y-123557964D01*
X130475291Y-124085209D01*
X130472642Y-124100974D01*
X130593783Y-124333000D01*
X131953000Y-124333000D01*
X131953000Y-122047000D01*
X130593783Y-122047000D01*
X130472642Y-122279026D01*
X130302000Y-122279026D01*
X130302000Y-119739026D01*
X130472642Y-119739026D01*
X130475291Y-119754791D01*
X130729268Y-120282036D01*
X131141108Y-120650000D01*
X130729268Y-121017964D01*
X130475291Y-121545209D01*
X130472642Y-121560974D01*
X130593783Y-121793000D01*
X131953000Y-121793000D01*
X131953000Y-119507000D01*
X130593783Y-119507000D01*
X130472642Y-119739026D01*
X130302000Y-119739026D01*
X130302000Y-117199026D01*
X130472642Y-117199026D01*
X130475291Y-117214791D01*
X130729268Y-117742036D01*
X131141108Y-118110000D01*
X130729268Y-118477964D01*
X130475291Y-119005209D01*
X130472642Y-119020974D01*
X130593783Y-119253000D01*
X131953000Y-119253000D01*
X131953000Y-116967000D01*
X130593783Y-116967000D01*
X130472642Y-117199026D01*
X130302000Y-117199026D01*
X130302000Y-114659026D01*
X130472642Y-114659026D01*
X130475291Y-114674791D01*
X130729268Y-115202036D01*
X131141108Y-115570000D01*
X130729268Y-115937964D01*
X130475291Y-116465209D01*
X130472642Y-116480974D01*
X130593783Y-116713000D01*
X131953000Y-116713000D01*
X131953000Y-114427000D01*
X130593783Y-114427000D01*
X130472642Y-114659026D01*
X130302000Y-114659026D01*
X130302000Y-112119026D01*
X130472642Y-112119026D01*
X130475291Y-112134791D01*
X130729268Y-112662036D01*
X131141108Y-113030000D01*
X130729268Y-113397964D01*
X130475291Y-113925209D01*
X130472642Y-113940974D01*
X130593783Y-114173000D01*
X131953000Y-114173000D01*
X131953000Y-111887000D01*
X130593783Y-111887000D01*
X130472642Y-112119026D01*
X130302000Y-112119026D01*
X130302000Y-109579026D01*
X130472642Y-109579026D01*
X130475291Y-109594791D01*
X130729268Y-110122036D01*
X131141108Y-110490000D01*
X130729268Y-110857964D01*
X130475291Y-111385209D01*
X130472642Y-111400974D01*
X130593783Y-111633000D01*
X131953000Y-111633000D01*
X131953000Y-109347000D01*
X130593783Y-109347000D01*
X130472642Y-109579026D01*
X130302000Y-109579026D01*
X130302000Y-107039026D01*
X130472642Y-107039026D01*
X130475291Y-107054791D01*
X130729268Y-107582036D01*
X131141108Y-107950000D01*
X130729268Y-108317964D01*
X130475291Y-108845209D01*
X130472642Y-108860974D01*
X130593783Y-109093000D01*
X131953000Y-109093000D01*
X131953000Y-106807000D01*
X130593783Y-106807000D01*
X130472642Y-107039026D01*
X130302000Y-107039026D01*
X130302000Y-104425750D01*
X130429000Y-104425750D01*
X130429000Y-105129910D01*
X130525673Y-105363299D01*
X130704302Y-105541927D01*
X130901861Y-105623759D01*
X130729268Y-105777964D01*
X130475291Y-106305209D01*
X130472642Y-106320974D01*
X130593783Y-106553000D01*
X131953000Y-106553000D01*
X131953000Y-104267000D01*
X130587750Y-104267000D01*
X130429000Y-104425750D01*
X130302000Y-104425750D01*
X130302000Y-103150090D01*
X130429000Y-103150090D01*
X130429000Y-103854250D01*
X130587750Y-104013000D01*
X131953000Y-104013000D01*
X131953000Y-102800150D01*
X132207000Y-102800150D01*
X132207000Y-104013000D01*
X132227000Y-104013000D01*
X132227000Y-104267000D01*
X132207000Y-104267000D01*
X132207000Y-106553000D01*
X132227000Y-106553000D01*
X132227000Y-106807000D01*
X132207000Y-106807000D01*
X132207000Y-109093000D01*
X132227000Y-109093000D01*
X132227000Y-109347000D01*
X132207000Y-109347000D01*
X132207000Y-111633000D01*
X132227000Y-111633000D01*
X132227000Y-111887000D01*
X132207000Y-111887000D01*
X132207000Y-114173000D01*
X132227000Y-114173000D01*
X132227000Y-114427000D01*
X132207000Y-114427000D01*
X132207000Y-116713000D01*
X132227000Y-116713000D01*
X132227000Y-116967000D01*
X132207000Y-116967000D01*
X132207000Y-119253000D01*
X132227000Y-119253000D01*
X132227000Y-119507000D01*
X132207000Y-119507000D01*
X132207000Y-121793000D01*
X132227000Y-121793000D01*
X132227000Y-122047000D01*
X132207000Y-122047000D01*
X132207000Y-124333000D01*
X132227000Y-124333000D01*
X132227000Y-124587000D01*
X132207000Y-124587000D01*
X132207000Y-126873000D01*
X132227000Y-126873000D01*
X132227000Y-127127000D01*
X132207000Y-127127000D01*
X132207000Y-129413000D01*
X132227000Y-129413000D01*
X132227000Y-129667000D01*
X132207000Y-129667000D01*
X132207000Y-131953000D01*
X132227000Y-131953000D01*
X132227000Y-132207000D01*
X132207000Y-132207000D01*
X132207000Y-133420924D01*
X132441913Y-133565184D01*
X132994320Y-133371954D01*
X133330246Y-133071816D01*
X133375585Y-133139670D01*
X133861766Y-133464526D01*
X134435255Y-133578600D01*
X134804745Y-133578600D01*
X135378234Y-133464526D01*
X135864415Y-133139670D01*
X135890000Y-133101379D01*
X135915585Y-133139670D01*
X136401766Y-133464526D01*
X136975255Y-133578600D01*
X137344745Y-133578600D01*
X137918234Y-133464526D01*
X138089634Y-133350000D01*
X138770366Y-133350000D01*
X138941766Y-133464526D01*
X139515255Y-133578600D01*
X139884745Y-133578600D01*
X140458234Y-133464526D01*
X140944415Y-133139670D01*
X140970000Y-133101379D01*
X140995585Y-133139670D01*
X141481766Y-133464526D01*
X142055255Y-133578600D01*
X142424745Y-133578600D01*
X142471970Y-133569206D01*
X146691382Y-137788618D01*
X146979794Y-137981329D01*
X147320000Y-138049000D01*
X148376343Y-138049000D01*
X148460332Y-138174698D01*
X148842418Y-138430000D01*
X148460332Y-138685302D01*
X148149263Y-139150849D01*
X148040030Y-139700000D01*
X148149263Y-140249151D01*
X148460332Y-140714698D01*
X148925879Y-141025767D01*
X148984408Y-141037409D01*
X149038671Y-141310206D01*
X149231382Y-141598618D01*
X149866382Y-142233618D01*
X150154795Y-142426330D01*
X150495000Y-142494000D01*
X164465000Y-142494000D01*
X164805206Y-142426329D01*
X165093618Y-142233618D01*
X168268618Y-139058618D01*
X168373049Y-138902325D01*
X172874587Y-138902325D01*
X173236916Y-139779229D01*
X173907242Y-140450726D01*
X174783513Y-140814585D01*
X175732325Y-140815413D01*
X176609229Y-140453084D01*
X177280726Y-139782758D01*
X177644585Y-138906487D01*
X177645413Y-137957675D01*
X177283084Y-137080771D01*
X176612758Y-136409274D01*
X175736487Y-136045415D01*
X174787675Y-136044587D01*
X173910771Y-136406916D01*
X173239274Y-137077242D01*
X172875415Y-137953513D01*
X172874587Y-138902325D01*
X168373049Y-138902325D01*
X168461329Y-138770206D01*
X168529000Y-138430000D01*
X168529000Y-133377151D01*
X168884415Y-133139670D01*
X168910000Y-133101379D01*
X168935585Y-133139670D01*
X169421766Y-133464526D01*
X169995255Y-133578600D01*
X170364745Y-133578600D01*
X170938234Y-133464526D01*
X171109634Y-133350000D01*
X171790366Y-133350000D01*
X171961766Y-133464526D01*
X172535255Y-133578600D01*
X172904745Y-133578600D01*
X173478234Y-133464526D01*
X173964415Y-133139670D01*
X173990000Y-133101379D01*
X174015585Y-133139670D01*
X174501766Y-133464526D01*
X175075255Y-133578600D01*
X175444745Y-133578600D01*
X176018234Y-133464526D01*
X176504415Y-133139670D01*
X176549754Y-133071816D01*
X176885680Y-133371954D01*
X177438087Y-133565184D01*
X177673000Y-133420924D01*
X177673000Y-132207000D01*
X177927000Y-132207000D01*
X177927000Y-133420924D01*
X178161913Y-133565184D01*
X178714320Y-133371954D01*
X179150732Y-132982036D01*
X179404709Y-132454791D01*
X179407358Y-132439026D01*
X179286217Y-132207000D01*
X177927000Y-132207000D01*
X177673000Y-132207000D01*
X177653000Y-132207000D01*
X177653000Y-131953000D01*
X177673000Y-131953000D01*
X177673000Y-129667000D01*
X177927000Y-129667000D01*
X177927000Y-131953000D01*
X179286217Y-131953000D01*
X179407358Y-131720974D01*
X179404709Y-131705209D01*
X179150732Y-131177964D01*
X178738892Y-130810000D01*
X179150732Y-130442036D01*
X179404709Y-129914791D01*
X179407358Y-129899026D01*
X179286217Y-129667000D01*
X177927000Y-129667000D01*
X177673000Y-129667000D01*
X177653000Y-129667000D01*
X177653000Y-129413000D01*
X177673000Y-129413000D01*
X177673000Y-127127000D01*
X177927000Y-127127000D01*
X177927000Y-129413000D01*
X179286217Y-129413000D01*
X179407358Y-129180974D01*
X179404709Y-129165209D01*
X179150732Y-128637964D01*
X178738892Y-128270000D01*
X179150732Y-127902036D01*
X179404709Y-127374791D01*
X179407358Y-127359026D01*
X179286217Y-127127000D01*
X177927000Y-127127000D01*
X177673000Y-127127000D01*
X177653000Y-127127000D01*
X177653000Y-126873000D01*
X177673000Y-126873000D01*
X177673000Y-124587000D01*
X177927000Y-124587000D01*
X177927000Y-126873000D01*
X179286217Y-126873000D01*
X179407358Y-126640974D01*
X179404709Y-126625209D01*
X179150732Y-126097964D01*
X178738892Y-125730000D01*
X179150732Y-125362036D01*
X179404709Y-124834791D01*
X179407358Y-124819026D01*
X179286217Y-124587000D01*
X177927000Y-124587000D01*
X177673000Y-124587000D01*
X177653000Y-124587000D01*
X177653000Y-124333000D01*
X177673000Y-124333000D01*
X177673000Y-122047000D01*
X177927000Y-122047000D01*
X177927000Y-124333000D01*
X179286217Y-124333000D01*
X179407358Y-124100974D01*
X179404709Y-124085209D01*
X179150732Y-123557964D01*
X178738892Y-123190000D01*
X179150732Y-122822036D01*
X179404709Y-122294791D01*
X179407358Y-122279026D01*
X179286217Y-122047000D01*
X177927000Y-122047000D01*
X177673000Y-122047000D01*
X177653000Y-122047000D01*
X177653000Y-121793000D01*
X177673000Y-121793000D01*
X177673000Y-119507000D01*
X177927000Y-119507000D01*
X177927000Y-121793000D01*
X179286217Y-121793000D01*
X179407358Y-121560974D01*
X179404709Y-121545209D01*
X179150732Y-121017964D01*
X178738892Y-120650000D01*
X179150732Y-120282036D01*
X179404709Y-119754791D01*
X179407358Y-119739026D01*
X179286217Y-119507000D01*
X177927000Y-119507000D01*
X177673000Y-119507000D01*
X177653000Y-119507000D01*
X177653000Y-119253000D01*
X177673000Y-119253000D01*
X177673000Y-116967000D01*
X177927000Y-116967000D01*
X177927000Y-119253000D01*
X179286217Y-119253000D01*
X179407358Y-119020974D01*
X179404709Y-119005209D01*
X179150732Y-118477964D01*
X178738892Y-118110000D01*
X179150732Y-117742036D01*
X179404709Y-117214791D01*
X179407358Y-117199026D01*
X179286217Y-116967000D01*
X177927000Y-116967000D01*
X177673000Y-116967000D01*
X177653000Y-116967000D01*
X177653000Y-116713000D01*
X177673000Y-116713000D01*
X177673000Y-114427000D01*
X177927000Y-114427000D01*
X177927000Y-116713000D01*
X179286217Y-116713000D01*
X179407358Y-116480974D01*
X179404709Y-116465209D01*
X179150732Y-115937964D01*
X178738892Y-115570000D01*
X179150732Y-115202036D01*
X179404709Y-114674791D01*
X179407358Y-114659026D01*
X179286217Y-114427000D01*
X177927000Y-114427000D01*
X177673000Y-114427000D01*
X177653000Y-114427000D01*
X177653000Y-114173000D01*
X177673000Y-114173000D01*
X177673000Y-111887000D01*
X177927000Y-111887000D01*
X177927000Y-114173000D01*
X179286217Y-114173000D01*
X179407358Y-113940974D01*
X179404709Y-113925209D01*
X179150732Y-113397964D01*
X178738892Y-113030000D01*
X179150732Y-112662036D01*
X179404709Y-112134791D01*
X179407358Y-112119026D01*
X179286217Y-111887000D01*
X177927000Y-111887000D01*
X177673000Y-111887000D01*
X177653000Y-111887000D01*
X177653000Y-111633000D01*
X177673000Y-111633000D01*
X177673000Y-109347000D01*
X177927000Y-109347000D01*
X177927000Y-111633000D01*
X179286217Y-111633000D01*
X179407358Y-111400974D01*
X179404709Y-111385209D01*
X179150732Y-110857964D01*
X178738892Y-110490000D01*
X179150732Y-110122036D01*
X179404709Y-109594791D01*
X179407358Y-109579026D01*
X179286217Y-109347000D01*
X177927000Y-109347000D01*
X177673000Y-109347000D01*
X177653000Y-109347000D01*
X177653000Y-109093000D01*
X177673000Y-109093000D01*
X177673000Y-106807000D01*
X177927000Y-106807000D01*
X177927000Y-109093000D01*
X179286217Y-109093000D01*
X179407358Y-108860974D01*
X179404709Y-108845209D01*
X179150732Y-108317964D01*
X178738892Y-107950000D01*
X179150732Y-107582036D01*
X179404709Y-107054791D01*
X179407358Y-107039026D01*
X179286217Y-106807000D01*
X177927000Y-106807000D01*
X177673000Y-106807000D01*
X177653000Y-106807000D01*
X177653000Y-106553000D01*
X177673000Y-106553000D01*
X177673000Y-104267000D01*
X177927000Y-104267000D01*
X177927000Y-106553000D01*
X179286217Y-106553000D01*
X179407358Y-106320974D01*
X179404709Y-106305209D01*
X179150732Y-105777964D01*
X178978139Y-105623759D01*
X179175698Y-105541927D01*
X179354327Y-105363299D01*
X179451000Y-105129910D01*
X179451000Y-104425750D01*
X179292250Y-104267000D01*
X177927000Y-104267000D01*
X177673000Y-104267000D01*
X177653000Y-104267000D01*
X177653000Y-104013000D01*
X177673000Y-104013000D01*
X177673000Y-102800150D01*
X177927000Y-102800150D01*
X177927000Y-104013000D01*
X179292250Y-104013000D01*
X179451000Y-103854250D01*
X179451000Y-103150090D01*
X179354327Y-102916701D01*
X179175698Y-102738073D01*
X178942309Y-102641400D01*
X178085750Y-102641400D01*
X177927000Y-102800150D01*
X177673000Y-102800150D01*
X177514250Y-102641400D01*
X176657691Y-102641400D01*
X176541737Y-102689430D01*
X176527890Y-102679969D01*
X176276000Y-102628960D01*
X174244000Y-102628960D01*
X174008683Y-102673238D01*
X173992901Y-102683393D01*
X173987890Y-102679969D01*
X173736000Y-102628960D01*
X171704000Y-102628960D01*
X171468683Y-102673238D01*
X171452901Y-102683393D01*
X171447890Y-102679969D01*
X171196000Y-102628960D01*
X169164000Y-102628960D01*
X168928683Y-102673238D01*
X168912901Y-102683393D01*
X168907890Y-102679969D01*
X168656000Y-102628960D01*
X166624000Y-102628960D01*
X166388683Y-102673238D01*
X166172559Y-102812310D01*
X166027569Y-103024510D01*
X165981704Y-103251000D01*
X164198236Y-103251000D01*
X163449000Y-102501764D01*
X163449000Y-98183440D01*
X163576000Y-98183440D01*
X163811317Y-98139162D01*
X164027441Y-98000090D01*
X164172431Y-97787890D01*
X164223440Y-97536000D01*
X164223440Y-95504000D01*
X168516560Y-95504000D01*
X168516560Y-97536000D01*
X168560838Y-97771317D01*
X168699910Y-97987441D01*
X168912110Y-98132431D01*
X169164000Y-98183440D01*
X171196000Y-98183440D01*
X171431317Y-98139162D01*
X171647441Y-98000090D01*
X171749198Y-97851163D01*
X172088190Y-98077670D01*
X172720000Y-98203345D01*
X173351810Y-98077670D01*
X173782338Y-97790000D01*
X176293141Y-97790000D01*
X176187569Y-97944510D01*
X176136560Y-98196400D01*
X176136560Y-99923600D01*
X176180838Y-100158917D01*
X176319910Y-100375041D01*
X176532110Y-100520031D01*
X176784000Y-100571040D01*
X178816000Y-100571040D01*
X179051317Y-100526762D01*
X179267441Y-100387690D01*
X179412431Y-100175490D01*
X179463440Y-99923600D01*
X179463440Y-98196400D01*
X179419162Y-97961083D01*
X179280090Y-97744959D01*
X179070000Y-97601411D01*
X179070000Y-97541379D01*
X179369271Y-97093489D01*
X179483345Y-96520000D01*
X179369271Y-95946511D01*
X179070000Y-95498621D01*
X179070000Y-95001379D01*
X179369271Y-94553489D01*
X179483345Y-93980000D01*
X179369271Y-93406511D01*
X179070000Y-92958621D01*
X179070000Y-92461379D01*
X179369271Y-92013489D01*
X179483345Y-91440000D01*
X179369271Y-90866511D01*
X179044415Y-90380330D01*
X178558234Y-90055474D01*
X177984745Y-89941400D01*
X177615255Y-89941400D01*
X177041766Y-90055474D01*
X176870366Y-90170000D01*
X175496125Y-90170000D01*
X175624206Y-89861547D01*
X175624774Y-89211306D01*
X175376462Y-88610345D01*
X174917073Y-88150154D01*
X174316547Y-87900794D01*
X173666306Y-87900226D01*
X173065345Y-88148538D01*
X172605154Y-88607927D01*
X172355794Y-89208453D01*
X172355226Y-89858694D01*
X172603538Y-90459655D01*
X172720000Y-90576320D01*
X172720000Y-91924497D01*
X172692560Y-92060000D01*
X172692560Y-93360000D01*
X172736838Y-93595317D01*
X172875910Y-93811441D01*
X173088110Y-93956431D01*
X173340000Y-94007440D01*
X174640000Y-94007440D01*
X174875317Y-93963162D01*
X175091441Y-93824090D01*
X175236431Y-93611890D01*
X175287440Y-93360000D01*
X175287440Y-92710000D01*
X176530000Y-92710000D01*
X176530000Y-92958621D01*
X176230729Y-93406511D01*
X176116655Y-93980000D01*
X176230729Y-94553489D01*
X176530000Y-95001379D01*
X176530000Y-95250000D01*
X173782338Y-95250000D01*
X173351810Y-94962330D01*
X172720000Y-94836655D01*
X172088190Y-94962330D01*
X171748208Y-95189499D01*
X171660090Y-95052559D01*
X171447890Y-94907569D01*
X171196000Y-94856560D01*
X169164000Y-94856560D01*
X168928683Y-94900838D01*
X168712559Y-95039910D01*
X168567569Y-95252110D01*
X168516560Y-95504000D01*
X164223440Y-95504000D01*
X164179162Y-95268683D01*
X164040090Y-95052559D01*
X163891163Y-94950802D01*
X164117670Y-94611810D01*
X164243345Y-93980000D01*
X164169552Y-93609016D01*
X168270590Y-93609016D01*
X168326271Y-93839611D01*
X168809078Y-94007622D01*
X169319428Y-93978083D01*
X169653729Y-93839611D01*
X169709410Y-93609016D01*
X168990000Y-92889605D01*
X168270590Y-93609016D01*
X164169552Y-93609016D01*
X164117670Y-93348190D01*
X163759778Y-92812567D01*
X163335507Y-92529078D01*
X167692378Y-92529078D01*
X167721917Y-93039428D01*
X167860389Y-93373729D01*
X168090984Y-93429410D01*
X168810395Y-92710000D01*
X169169605Y-92710000D01*
X169889016Y-93429410D01*
X170119611Y-93373729D01*
X170287622Y-92890922D01*
X170258083Y-92380572D01*
X170119611Y-92046271D01*
X169889016Y-91990590D01*
X169169605Y-92710000D01*
X168810395Y-92710000D01*
X168090984Y-91990590D01*
X167860389Y-92046271D01*
X167692378Y-92529078D01*
X163335507Y-92529078D01*
X163224155Y-92454675D01*
X162592345Y-92329000D01*
X162527655Y-92329000D01*
X161895845Y-92454675D01*
X161360222Y-92812567D01*
X161174179Y-93091000D01*
X156133325Y-93091000D01*
X155999670Y-92890971D01*
X155728839Y-92710008D01*
X156146821Y-92328490D01*
X156389364Y-91810984D01*
X168270590Y-91810984D01*
X168990000Y-92530395D01*
X169709410Y-91810984D01*
X169653729Y-91580389D01*
X169170922Y-91412378D01*
X168660572Y-91441917D01*
X168326271Y-91580389D01*
X168270590Y-91810984D01*
X156389364Y-91810984D01*
X156394968Y-91799027D01*
X156274469Y-91567000D01*
X155067000Y-91567000D01*
X155067000Y-91587000D01*
X154813000Y-91587000D01*
X154813000Y-91567000D01*
X152527000Y-91567000D01*
X152527000Y-91587000D01*
X152273000Y-91587000D01*
X152273000Y-91567000D01*
X151065531Y-91567000D01*
X150945032Y-91799027D01*
X151193179Y-92328490D01*
X151611161Y-92710008D01*
X151340330Y-92890971D01*
X151015474Y-93377152D01*
X150901400Y-93950641D01*
X150901400Y-94009359D01*
X151015474Y-94582848D01*
X151340330Y-95069029D01*
X151611172Y-95250000D01*
X151340330Y-95430971D01*
X151015474Y-95917152D01*
X150901400Y-96490641D01*
X150901400Y-96549359D01*
X151015474Y-97122848D01*
X151340330Y-97609029D01*
X151511000Y-97723067D01*
X151511000Y-99060000D01*
X151578671Y-99400206D01*
X151676093Y-99546008D01*
X151771382Y-99688618D01*
X156591000Y-104508236D01*
X156591000Y-105345258D01*
X156545879Y-105354233D01*
X156080332Y-105665302D01*
X155769263Y-106130849D01*
X155660030Y-106680000D01*
X155769263Y-107229151D01*
X156080332Y-107694698D01*
X156462418Y-107950000D01*
X156080332Y-108205302D01*
X155769263Y-108670849D01*
X155660030Y-109220000D01*
X155769263Y-109769151D01*
X156080332Y-110234698D01*
X156462418Y-110490000D01*
X156080332Y-110745302D01*
X155769263Y-111210849D01*
X155660030Y-111760000D01*
X155769263Y-112309151D01*
X156080332Y-112774698D01*
X156462418Y-113030000D01*
X156080332Y-113285302D01*
X155769263Y-113750849D01*
X155660030Y-114300000D01*
X155769263Y-114849151D01*
X156080332Y-115314698D01*
X156462418Y-115570000D01*
X156080332Y-115825302D01*
X155769263Y-116290849D01*
X155660030Y-116840000D01*
X155769263Y-117389151D01*
X156080332Y-117854698D01*
X156462418Y-118110000D01*
X156080332Y-118365302D01*
X155769263Y-118830849D01*
X155660030Y-119380000D01*
X155769263Y-119929151D01*
X156080332Y-120394698D01*
X156458151Y-120647149D01*
X156025500Y-120995104D01*
X155755633Y-121488181D01*
X155738096Y-121570961D01*
X155860085Y-121793000D01*
X157353000Y-121793000D01*
X157353000Y-121773000D01*
X157607000Y-121773000D01*
X157607000Y-121793000D01*
X159099915Y-121793000D01*
X159221904Y-121570961D01*
X159204367Y-121488181D01*
X158934500Y-120995104D01*
X158501849Y-120647149D01*
X158879668Y-120394698D01*
X159190737Y-119929151D01*
X159282026Y-119470210D01*
X166103236Y-112649000D01*
X166281547Y-112649000D01*
X166395585Y-112819670D01*
X166710366Y-113030000D01*
X166395585Y-113240330D01*
X166281547Y-113411000D01*
X165735000Y-113411000D01*
X165394794Y-113478671D01*
X165106382Y-113671382D01*
X162566382Y-116211382D01*
X162373671Y-116499794D01*
X162306000Y-116840000D01*
X162306000Y-119011764D01*
X159160496Y-122157268D01*
X159099915Y-122047000D01*
X157607000Y-122047000D01*
X157607000Y-122067000D01*
X157353000Y-122067000D01*
X157353000Y-122047000D01*
X155860085Y-122047000D01*
X155738096Y-122269039D01*
X155744867Y-122301000D01*
X154305000Y-122301000D01*
X153964795Y-122368670D01*
X153676382Y-122561382D01*
X153041382Y-123196382D01*
X152848671Y-123484794D01*
X152781000Y-123825000D01*
X152781000Y-127901764D01*
X152031764Y-128651000D01*
X151343657Y-128651000D01*
X151259668Y-128525302D01*
X150877582Y-128270000D01*
X151259668Y-128014698D01*
X151570737Y-127549151D01*
X151679970Y-127000000D01*
X151570737Y-126450849D01*
X151259668Y-125985302D01*
X150881849Y-125732851D01*
X151314500Y-125384896D01*
X151584367Y-124891819D01*
X151601904Y-124809039D01*
X151479915Y-124587000D01*
X149987000Y-124587000D01*
X149987000Y-124607000D01*
X149733000Y-124607000D01*
X149733000Y-124587000D01*
X148240085Y-124587000D01*
X148118096Y-124809039D01*
X148135633Y-124891819D01*
X148405500Y-125384896D01*
X148838151Y-125732851D01*
X148460332Y-125985302D01*
X148343594Y-126160012D01*
X148249795Y-126178670D01*
X147961382Y-126371382D01*
X147341287Y-126991477D01*
X147318083Y-126590572D01*
X147179611Y-126256271D01*
X146949016Y-126200590D01*
X146229605Y-126920000D01*
X146949016Y-127639410D01*
X147070981Y-127609960D01*
X147066000Y-127635000D01*
X147066000Y-130175000D01*
X147133671Y-130515206D01*
X147293384Y-130754233D01*
X147326382Y-130803618D01*
X147713764Y-131191000D01*
X147688236Y-131191000D01*
X144316252Y-127819016D01*
X145330590Y-127819016D01*
X145386271Y-128049611D01*
X145869078Y-128217622D01*
X146379428Y-128188083D01*
X146713729Y-128049611D01*
X146769410Y-127819016D01*
X146050000Y-127099605D01*
X145330590Y-127819016D01*
X144316252Y-127819016D01*
X143852649Y-127355413D01*
X143923345Y-127000000D01*
X143871445Y-126739078D01*
X144752378Y-126739078D01*
X144781917Y-127249428D01*
X144920389Y-127583729D01*
X145150984Y-127639410D01*
X145870395Y-126920000D01*
X145150984Y-126200590D01*
X144920389Y-126256271D01*
X144752378Y-126739078D01*
X143871445Y-126739078D01*
X143809271Y-126426511D01*
X143538307Y-126020984D01*
X145330590Y-126020984D01*
X146050000Y-126740395D01*
X146769410Y-126020984D01*
X146713729Y-125790389D01*
X146230922Y-125622378D01*
X145720572Y-125651917D01*
X145386271Y-125790389D01*
X145330590Y-126020984D01*
X143538307Y-126020984D01*
X143484415Y-125940330D01*
X143169634Y-125730000D01*
X143484415Y-125519670D01*
X143598453Y-125349000D01*
X146685000Y-125349000D01*
X147025206Y-125281329D01*
X147313618Y-125088618D01*
X148179504Y-124222732D01*
X148240085Y-124333000D01*
X149733000Y-124333000D01*
X149733000Y-124313000D01*
X149987000Y-124313000D01*
X149987000Y-124333000D01*
X151479915Y-124333000D01*
X151601904Y-124110961D01*
X151584367Y-124028181D01*
X151314500Y-123535104D01*
X150881849Y-123187149D01*
X151259668Y-122934698D01*
X151570737Y-122469151D01*
X151679970Y-121920000D01*
X151570737Y-121370849D01*
X151259668Y-120905302D01*
X150877582Y-120650000D01*
X151259668Y-120394698D01*
X151570737Y-119929151D01*
X151679970Y-119380000D01*
X151570737Y-118830849D01*
X151259668Y-118365302D01*
X150877582Y-118110000D01*
X151259668Y-117854698D01*
X151570737Y-117389151D01*
X151679970Y-116840000D01*
X151570737Y-116290849D01*
X151259668Y-115825302D01*
X150877582Y-115570000D01*
X151259668Y-115314698D01*
X151570737Y-114849151D01*
X151679970Y-114300000D01*
X151570737Y-113750849D01*
X151259668Y-113285302D01*
X150877582Y-113030000D01*
X151259668Y-112774698D01*
X151570737Y-112309151D01*
X151679970Y-111760000D01*
X151570737Y-111210849D01*
X151259668Y-110745302D01*
X150877582Y-110490000D01*
X151259668Y-110234698D01*
X151570737Y-109769151D01*
X151679970Y-109220000D01*
X151570737Y-108670849D01*
X151259668Y-108205302D01*
X150877582Y-107950000D01*
X151259668Y-107694698D01*
X151570737Y-107229151D01*
X151679970Y-106680000D01*
X151570737Y-106130849D01*
X151259668Y-105665302D01*
X150794121Y-105354233D01*
X150244970Y-105245000D01*
X149475030Y-105245000D01*
X148925879Y-105354233D01*
X148460332Y-105665302D01*
X148149263Y-106130849D01*
X148040030Y-106680000D01*
X148149263Y-107229151D01*
X148460332Y-107694698D01*
X148842418Y-107950000D01*
X148460332Y-108205302D01*
X148376343Y-108331000D01*
X147320000Y-108331000D01*
X146979794Y-108398671D01*
X146700933Y-108585000D01*
X146691382Y-108591382D01*
X142493804Y-112788960D01*
X141224000Y-112788960D01*
X140988683Y-112833238D01*
X140972901Y-112843393D01*
X140967890Y-112839969D01*
X140716000Y-112788960D01*
X138684000Y-112788960D01*
X138448683Y-112833238D01*
X138432901Y-112843393D01*
X138427890Y-112839969D01*
X138176000Y-112788960D01*
X136144000Y-112788960D01*
X135908683Y-112833238D01*
X135692559Y-112972310D01*
X135620697Y-113077483D01*
X135549634Y-113030000D01*
X135864415Y-112819670D01*
X136189271Y-112333489D01*
X136303345Y-111760000D01*
X136189271Y-111186511D01*
X135864415Y-110700330D01*
X135549634Y-110490000D01*
X135864415Y-110279670D01*
X136189271Y-109793489D01*
X136303345Y-109220000D01*
X136189271Y-108646511D01*
X135864415Y-108160330D01*
X135549634Y-107950000D01*
X135864415Y-107739670D01*
X136189271Y-107253489D01*
X136303345Y-106680000D01*
X136189271Y-106106511D01*
X135864415Y-105620330D01*
X135850087Y-105610757D01*
X135871317Y-105606762D01*
X136087441Y-105467690D01*
X136232431Y-105255490D01*
X136283440Y-105003600D01*
X136283440Y-103276400D01*
X136239162Y-103041083D01*
X136100090Y-102824959D01*
X135887890Y-102679969D01*
X135636000Y-102628960D01*
X133604000Y-102628960D01*
X133368683Y-102673238D01*
X133341461Y-102690755D01*
X133222309Y-102641400D01*
X132365750Y-102641400D01*
X132207000Y-102800150D01*
X131953000Y-102800150D01*
X131794250Y-102641400D01*
X130937691Y-102641400D01*
X130704302Y-102738073D01*
X130525673Y-102916701D01*
X130429000Y-103150090D01*
X130302000Y-103150090D01*
X130302000Y-91799016D01*
X140250590Y-91799016D01*
X140306271Y-92029611D01*
X140789078Y-92197622D01*
X141299428Y-92168083D01*
X141633729Y-92029611D01*
X141689410Y-91799016D01*
X140970000Y-91079605D01*
X140250590Y-91799016D01*
X130302000Y-91799016D01*
X130302000Y-90719078D01*
X139672378Y-90719078D01*
X139701917Y-91229428D01*
X139840389Y-91563729D01*
X140070984Y-91619410D01*
X140790395Y-90900000D01*
X140776252Y-90885858D01*
X140955858Y-90706252D01*
X140970000Y-90720395D01*
X140984142Y-90706252D01*
X141163748Y-90885858D01*
X141149605Y-90900000D01*
X141869016Y-91619410D01*
X142099611Y-91563729D01*
X142267622Y-91080922D01*
X142238083Y-90570572D01*
X142099611Y-90236271D01*
X141869018Y-90180590D01*
X141970680Y-90078928D01*
X142071441Y-90014090D01*
X142216431Y-89801890D01*
X142267440Y-89550000D01*
X142267440Y-89259027D01*
X150945032Y-89259027D01*
X151193179Y-89788490D01*
X151611152Y-90170000D01*
X151193179Y-90551510D01*
X150945032Y-91080973D01*
X151065531Y-91313000D01*
X152273000Y-91313000D01*
X152273000Y-89027000D01*
X152527000Y-89027000D01*
X152527000Y-91313000D01*
X154813000Y-91313000D01*
X154813000Y-89027000D01*
X155067000Y-89027000D01*
X155067000Y-91313000D01*
X156274469Y-91313000D01*
X156394968Y-91080973D01*
X156146821Y-90551510D01*
X155728848Y-90170000D01*
X156069907Y-89858694D01*
X162195226Y-89858694D01*
X162443538Y-90459655D01*
X162902927Y-90919846D01*
X163503453Y-91169206D01*
X164153694Y-91169774D01*
X164754655Y-90921462D01*
X165214846Y-90462073D01*
X165464206Y-89861547D01*
X165464774Y-89211306D01*
X165216462Y-88610345D01*
X164757073Y-88150154D01*
X164156547Y-87900794D01*
X163506306Y-87900226D01*
X162905345Y-88148538D01*
X162445154Y-88607927D01*
X162195794Y-89208453D01*
X162195226Y-89858694D01*
X156069907Y-89858694D01*
X156146821Y-89788490D01*
X156394968Y-89259027D01*
X156274469Y-89027000D01*
X155067000Y-89027000D01*
X154813000Y-89027000D01*
X152527000Y-89027000D01*
X152273000Y-89027000D01*
X151065531Y-89027000D01*
X150945032Y-89259027D01*
X142267440Y-89259027D01*
X142267440Y-88250000D01*
X142223162Y-88014683D01*
X142084090Y-87798559D01*
X141871890Y-87653569D01*
X141620000Y-87602560D01*
X140320000Y-87602560D01*
X140084683Y-87646838D01*
X139868559Y-87785910D01*
X139723569Y-87998110D01*
X139672560Y-88250000D01*
X139672560Y-89550000D01*
X139716838Y-89785317D01*
X139855910Y-90001441D01*
X139969329Y-90078937D01*
X140070982Y-90180590D01*
X139840389Y-90236271D01*
X139672378Y-90719078D01*
X130302000Y-90719078D01*
X130302000Y-84292325D01*
X132234587Y-84292325D01*
X132596916Y-85169229D01*
X133267242Y-85840726D01*
X134143513Y-86204585D01*
X135092325Y-86205413D01*
X135969229Y-85843084D01*
X136640726Y-85172758D01*
X137004585Y-84296487D01*
X137005413Y-83347675D01*
X136843742Y-82956400D01*
X150888960Y-82956400D01*
X150888960Y-84683600D01*
X150933238Y-84918917D01*
X151072310Y-85135041D01*
X151284510Y-85280031D01*
X151328345Y-85288908D01*
X151015474Y-85757152D01*
X150901400Y-86330641D01*
X150901400Y-86389359D01*
X151015474Y-86962848D01*
X151340330Y-87449029D01*
X151611161Y-87629992D01*
X151193179Y-88011510D01*
X150945032Y-88540973D01*
X151065531Y-88773000D01*
X152273000Y-88773000D01*
X152273000Y-88753000D01*
X152527000Y-88753000D01*
X152527000Y-88773000D01*
X154813000Y-88773000D01*
X154813000Y-88753000D01*
X155067000Y-88753000D01*
X155067000Y-88773000D01*
X156274469Y-88773000D01*
X156394968Y-88540973D01*
X156146821Y-88011510D01*
X155728839Y-87629992D01*
X155999670Y-87449029D01*
X156324526Y-86962848D01*
X156438600Y-86389359D01*
X156438600Y-86330641D01*
X156324526Y-85757152D01*
X155999670Y-85270971D01*
X155728828Y-85090000D01*
X155999670Y-84909029D01*
X156324526Y-84422848D01*
X156438600Y-83849359D01*
X156438600Y-83790641D01*
X156324526Y-83217152D01*
X155999670Y-82730971D01*
X155728828Y-82550000D01*
X160642560Y-82550000D01*
X160642560Y-85090000D01*
X160686838Y-85325317D01*
X160825910Y-85541441D01*
X161038110Y-85686431D01*
X161290000Y-85737440D01*
X163830000Y-85737440D01*
X164065317Y-85693162D01*
X164281441Y-85554090D01*
X164426431Y-85341890D01*
X164461689Y-85167777D01*
X166471828Y-85167777D01*
X166603520Y-85462657D01*
X167311036Y-85734261D01*
X168068632Y-85714436D01*
X168676480Y-85462657D01*
X168808172Y-85167777D01*
X167640000Y-83999605D01*
X166471828Y-85167777D01*
X164461689Y-85167777D01*
X164477440Y-85090000D01*
X164477440Y-83491036D01*
X165725739Y-83491036D01*
X165745564Y-84248632D01*
X165997343Y-84856480D01*
X166292223Y-84988172D01*
X167460395Y-83820000D01*
X167819605Y-83820000D01*
X168987777Y-84988172D01*
X169282657Y-84856480D01*
X169499227Y-84292325D01*
X172874587Y-84292325D01*
X173236916Y-85169229D01*
X173907242Y-85840726D01*
X174783513Y-86204585D01*
X175732325Y-86205413D01*
X176609229Y-85843084D01*
X177280726Y-85172758D01*
X177644585Y-84296487D01*
X177645413Y-83347675D01*
X177283084Y-82470771D01*
X176612758Y-81799274D01*
X175736487Y-81435415D01*
X174787675Y-81434587D01*
X173910771Y-81796916D01*
X173239274Y-82467242D01*
X172875415Y-83343513D01*
X172874587Y-84292325D01*
X169499227Y-84292325D01*
X169554261Y-84148964D01*
X169534436Y-83391368D01*
X169282657Y-82783520D01*
X168987777Y-82651828D01*
X167819605Y-83820000D01*
X167460395Y-83820000D01*
X166292223Y-82651828D01*
X165997343Y-82783520D01*
X165725739Y-83491036D01*
X164477440Y-83491036D01*
X164477440Y-82550000D01*
X164462806Y-82472223D01*
X166471828Y-82472223D01*
X167640000Y-83640395D01*
X168808172Y-82472223D01*
X168676480Y-82177343D01*
X167968964Y-81905739D01*
X167211368Y-81925564D01*
X166603520Y-82177343D01*
X166471828Y-82472223D01*
X164462806Y-82472223D01*
X164433162Y-82314683D01*
X164294090Y-82098559D01*
X164081890Y-81953569D01*
X163830000Y-81902560D01*
X161290000Y-81902560D01*
X161054683Y-81946838D01*
X160838559Y-82085910D01*
X160693569Y-82298110D01*
X160642560Y-82550000D01*
X155728828Y-82550000D01*
X155513489Y-82406115D01*
X154940000Y-82292041D01*
X154366511Y-82406115D01*
X153880330Y-82730971D01*
X153871195Y-82744642D01*
X153866762Y-82721083D01*
X153727690Y-82504959D01*
X153515490Y-82359969D01*
X153263600Y-82308960D01*
X151536400Y-82308960D01*
X151301083Y-82353238D01*
X151084959Y-82492310D01*
X150939969Y-82704510D01*
X150888960Y-82956400D01*
X136843742Y-82956400D01*
X136643084Y-82470771D01*
X135972758Y-81799274D01*
X135096487Y-81435415D01*
X134147675Y-81434587D01*
X133270771Y-81796916D01*
X132599274Y-82467242D01*
X132235415Y-83343513D01*
X132234587Y-84292325D01*
X130302000Y-84292325D01*
X130302000Y-78867000D01*
X179578000Y-78867000D01*
X179578000Y-142748000D01*
M02*
