G04 #@! TF.FileFunction,Soldermask,Bot*
%FSLAX46Y46*%
G04 Gerber Fmt 4.6, Leading zero omitted, Abs format (unit mm)*
G04 Created by KiCad (PCBNEW 4.0.2-stable) date 9/03/2016 9:38:59 PM*
%MOMM*%
G01*
G04 APERTURE LIST*
%ADD10C,0.100000*%
%ADD11R,1.700000X1.700000*%
%ADD12C,1.700000*%
%ADD13O,2.700000X2.000000*%
%ADD14R,2.940000X2.940000*%
%ADD15C,2.940000*%
%ADD16R,2.127200X2.127200*%
%ADD17O,2.127200X2.127200*%
%ADD18R,2.432000X2.432000*%
%ADD19O,2.432000X2.432000*%
%ADD20R,2.432000X2.127200*%
%ADD21O,2.432000X2.127200*%
%ADD22C,2.398980*%
G04 APERTURE END LIST*
D10*
D11*
X140970000Y-88900000D03*
D12*
X140970000Y-90900000D03*
D11*
X146050000Y-121920000D03*
D12*
X146050000Y-126920000D03*
D11*
X173990000Y-92710000D03*
D12*
X168990000Y-92710000D03*
D13*
X149860000Y-106680000D03*
X149860000Y-109220000D03*
X149860000Y-111760000D03*
X149860000Y-114300000D03*
X149860000Y-116840000D03*
X149860000Y-119380000D03*
X149860000Y-121920000D03*
X149860000Y-124460000D03*
X149860000Y-127000000D03*
X149860000Y-129540000D03*
X149860000Y-132080000D03*
X149860000Y-134620000D03*
X149860000Y-137160000D03*
X149860000Y-139700000D03*
X157480000Y-139700000D03*
X157480000Y-137160000D03*
X157480000Y-134620000D03*
X157480000Y-132080000D03*
X157480000Y-129540000D03*
X157480000Y-127000000D03*
X157480000Y-124460000D03*
X157480000Y-121920000D03*
X157480000Y-119380000D03*
X157480000Y-116840000D03*
X157480000Y-114300000D03*
X157480000Y-111760000D03*
X157480000Y-109220000D03*
X157480000Y-106680000D03*
D14*
X162560000Y-83820000D03*
D15*
X167640000Y-83820000D03*
D16*
X152400000Y-83820000D03*
D17*
X154940000Y-83820000D03*
X152400000Y-86360000D03*
X154940000Y-86360000D03*
X152400000Y-88900000D03*
X154940000Y-88900000D03*
X152400000Y-91440000D03*
X154940000Y-91440000D03*
X152400000Y-93980000D03*
X154940000Y-93980000D03*
X152400000Y-96520000D03*
X154940000Y-96520000D03*
D18*
X170180000Y-96520000D03*
D19*
X172720000Y-96520000D03*
D20*
X177800000Y-104140000D03*
D21*
X177800000Y-106680000D03*
X177800000Y-109220000D03*
X177800000Y-111760000D03*
X177800000Y-114300000D03*
X177800000Y-116840000D03*
X177800000Y-119380000D03*
X177800000Y-121920000D03*
X177800000Y-124460000D03*
X177800000Y-127000000D03*
X177800000Y-129540000D03*
X177800000Y-132080000D03*
D20*
X175260000Y-104140000D03*
D21*
X175260000Y-106680000D03*
X175260000Y-109220000D03*
X175260000Y-111760000D03*
X175260000Y-114300000D03*
X175260000Y-116840000D03*
X175260000Y-119380000D03*
X175260000Y-121920000D03*
X175260000Y-124460000D03*
X175260000Y-127000000D03*
X175260000Y-129540000D03*
X175260000Y-132080000D03*
D20*
X139700000Y-114300000D03*
D21*
X139700000Y-116840000D03*
X139700000Y-119380000D03*
X139700000Y-121920000D03*
X139700000Y-124460000D03*
X139700000Y-127000000D03*
X139700000Y-129540000D03*
X139700000Y-132080000D03*
D20*
X137160000Y-114300000D03*
D21*
X137160000Y-116840000D03*
X137160000Y-119380000D03*
X137160000Y-121920000D03*
X137160000Y-124460000D03*
X137160000Y-127000000D03*
X137160000Y-129540000D03*
X137160000Y-132080000D03*
D20*
X142240000Y-114300000D03*
D21*
X142240000Y-116840000D03*
X142240000Y-119380000D03*
X142240000Y-121920000D03*
X142240000Y-124460000D03*
X142240000Y-127000000D03*
X142240000Y-129540000D03*
X142240000Y-132080000D03*
D20*
X167640000Y-104140000D03*
D21*
X167640000Y-106680000D03*
X167640000Y-109220000D03*
X167640000Y-111760000D03*
X167640000Y-114300000D03*
X167640000Y-116840000D03*
X167640000Y-119380000D03*
X167640000Y-121920000D03*
X167640000Y-124460000D03*
X167640000Y-127000000D03*
X167640000Y-129540000D03*
X167640000Y-132080000D03*
D20*
X170180000Y-104140000D03*
D21*
X170180000Y-106680000D03*
X170180000Y-109220000D03*
X170180000Y-111760000D03*
X170180000Y-114300000D03*
X170180000Y-116840000D03*
X170180000Y-119380000D03*
X170180000Y-121920000D03*
X170180000Y-124460000D03*
X170180000Y-127000000D03*
X170180000Y-129540000D03*
X170180000Y-132080000D03*
D20*
X172720000Y-104140000D03*
D21*
X172720000Y-106680000D03*
X172720000Y-109220000D03*
X172720000Y-111760000D03*
X172720000Y-114300000D03*
X172720000Y-116840000D03*
X172720000Y-119380000D03*
X172720000Y-121920000D03*
X172720000Y-124460000D03*
X172720000Y-127000000D03*
X172720000Y-129540000D03*
X172720000Y-132080000D03*
D20*
X134620000Y-104140000D03*
D21*
X134620000Y-106680000D03*
X134620000Y-109220000D03*
X134620000Y-111760000D03*
X134620000Y-114300000D03*
X134620000Y-116840000D03*
X134620000Y-119380000D03*
X134620000Y-121920000D03*
X134620000Y-124460000D03*
X134620000Y-127000000D03*
X134620000Y-129540000D03*
X134620000Y-132080000D03*
D20*
X177800000Y-99060000D03*
D21*
X177800000Y-96520000D03*
X177800000Y-93980000D03*
X177800000Y-91440000D03*
D20*
X132080000Y-104140000D03*
D21*
X132080000Y-106680000D03*
X132080000Y-109220000D03*
X132080000Y-111760000D03*
X132080000Y-114300000D03*
X132080000Y-116840000D03*
X132080000Y-119380000D03*
X132080000Y-121920000D03*
X132080000Y-124460000D03*
X132080000Y-127000000D03*
X132080000Y-129540000D03*
X132080000Y-132080000D03*
D18*
X162560000Y-96520000D03*
D19*
X162560000Y-93980000D03*
D22*
X163830000Y-89535000D03*
X173990000Y-89535000D03*
M02*
